<?xml version="1.0" standalone="no"?>
<!DOCTYPE svg PUBLIC "-//W3C//DTD SVG 20010904//EN"
 "http://www.w3.org/TR/2001/REC-SVG-20010904/DTD/svg10.dtd">
<svg version="1.0" xmlns="http://www.w3.org/2000/svg"
 width="700.000000pt" height="700.000000pt" viewBox="0 0 700.000000 700.000000"
 preserveAspectRatio="xMidYMid meet">
<metadata>
Created by potrace 1.14, written by Peter Selinger 2001-2017
</metadata>
<g transform="translate(0.000000,700.000000) scale(0.100000,-0.100000)"
fill="#000000" stroke="none">
<path d="M4210 6153 c-179 -19 -494 -103 -714 -189 -383 -152 -695 -348 -959
-604 -249 -241 -405 -472 -522 -775 -76 -195 -135 -486 -135 -659 l0 -64 -137
-6 c-514 -25 -681 -48 -813 -116 -67 -34 -145 -114 -176 -182 -25 -54 -29 -75
-29 -148 1 -95 20 -151 76 -221 132 -167 435 -213 1010 -153 l66 6 7 -98 c22
-318 101 -679 211 -959 297 -763 900 -1221 1714 -1304 536 -55 1192 75 1711
340 244 124 435 281 513 419 80 144 89 302 24 433 -140 283 -440 342 -1092
217 -255 -49 -303 -54 -510 -54 -164 0 -221 4 -318 22 -480 90 -873 355 -1140
768 -73 113 -198 376 -185 390 6 5 30 7 453 30 701 37 1121 92 1336 173 325
123 410 466 171 693 -66 63 -124 96 -232 130 -107 33 -365 33 -555 -1 -176
-31 -520 -119 -932 -239 -282 -82 -343 -96 -343 -83 0 9 7 57 15 106 53 326
214 609 448 789 197 150 341 211 742 311 584 146 778 234 895 402 163 236 30
551 -260 617 -64 15 -242 19 -340 9z"/>
</g>
</svg>
