<svg width="108" height="109" viewBox="0 0 108 109" fill="none" xmlns="http://www.w3.org/2000/svg">
<path d="M96.4286 0.6875H11.5714C5.18304 0.6875 0 5.85254 0 12.2188V96.7812C0 103.147 5.18304 108.312 11.5714 108.312H96.4286C102.817 108.312 108 103.147 108 96.7812V12.2188C108 5.85254 102.817 0.6875 96.4286 0.6875ZM30.6161 85.3701C29.2902 87.6764 26.325 88.4451 24.0348 87.1238C21.7205 85.8025 20.9491 82.8477 22.275 80.5654L25.7223 74.6316C29.6036 73.4545 32.7857 74.3674 35.2688 77.3703L30.6161 85.3701ZM64.1009 72.4215H20.25C17.5982 72.4215 15.4286 70.2594 15.4286 67.6168C15.4286 64.9742 17.5982 62.8121 20.25 62.8121H32.5446L48.3107 35.6176L43.3687 27.1133C42.0429 24.807 42.8384 21.8762 45.1286 20.5549C47.4429 19.2336 50.3839 20.0264 51.7098 22.3086L53.8554 26.0082L56.0009 22.3086C57.3268 20.0023 60.292 19.2336 62.5821 20.5549C64.8964 21.8762 65.6679 24.8311 64.342 27.1133L43.658 62.8121H58.6286C63.4982 62.8121 66.2223 68.5057 64.1009 72.4215ZM87.75 72.4215H80.7589L85.4839 80.5654C86.8098 82.8717 86.0143 85.8025 83.7241 87.1238C81.4098 88.4451 78.4688 87.6523 77.1429 85.3701C69.2116 71.7008 63.2813 61.4187 59.3036 54.5961C55.2777 47.6293 58.1464 40.6625 61.0152 38.3082C64.1732 43.7615 68.8982 51.9295 75.2143 62.8121H87.75C90.4018 62.8121 92.5714 64.9742 92.5714 67.6168C92.5714 70.2834 90.4018 72.4215 87.75 72.4215Z" fill="#FFFDFB"/>
</svg>
