<svg width="108" height="109" viewBox="0 0 108 109" fill="none" xmlns="http://www.w3.org/2000/svg">
<path d="M15.4286 0.6875C6.91875 0.6875 0 7.58223 0 16.0625V92.9375C0 101.418 6.91875 108.312 15.4286 108.312H92.5714C101.081 108.312 108 101.418 108 92.9375V16.0625C108 7.58223 101.081 0.6875 92.5714 0.6875H15.4286ZM52.5536 58.2717L15.4768 34.4164C15.9107 30.5727 19.1652 27.5938 23.1429 27.5938H84.8571C88.8348 27.5938 92.0893 30.5727 92.5232 34.4164L55.4464 58.2717C55.0125 58.56 54.5062 58.7041 54 58.7041C53.4938 58.7041 52.9875 58.56 52.5536 58.2717ZM59.6411 64.734L92.5714 43.5453V73.7188C92.5714 77.9709 89.1241 81.4062 84.8571 81.4062H23.1429C18.8759 81.4062 15.4286 77.9709 15.4286 73.7188V43.5453L48.3589 64.734C50.0464 65.815 51.9991 66.3916 54 66.3916C56.0009 66.3916 57.9536 65.815 59.6411 64.734Z" fill="#FFFDFB"/>
</svg>
