<svg width="447" height="351" viewBox="0 0 447 351" fill="none" xmlns="http://www.w3.org/2000/svg">
<path d="M223.071 351C346.27 351 446.142 304.684 446.142 247.551C446.142 190.417 346.27 144.102 223.071 144.102C99.8722 144.102 0 190.417 0 247.551C0 304.684 99.8722 351 223.071 351Z" fill="#F5F5F5"/>
<path d="M99.067 292.545C136.389 292.545 166.645 277.225 166.645 258.326C166.645 239.427 136.389 224.107 99.067 224.107C61.745 224.107 31.4895 239.427 31.4895 258.326C31.4895 277.225 61.745 292.545 99.067 292.545Z" fill="#E0E0E0"/>
<path d="M350.64 301.998C387.54 301.998 417.454 286.813 417.454 268.081C417.454 249.349 387.54 234.164 350.64 234.164C313.739 234.164 283.825 249.349 283.825 268.081C283.825 286.813 313.739 301.998 350.64 301.998Z" fill="#E0E0E0"/>
<path d="M381.906 225.38C381.906 225.38 378.825 211.927 382.474 199.773C386.123 187.618 393.895 178.484 403.073 175.161C412.251 171.839 422.62 177.292 414.485 185.373C406.35 193.455 390.395 203.862 389.353 225.755L381.906 225.38Z" fill="#E56D4B"/>
<path opacity="0.15" d="M381.906 225.38C381.906 225.38 378.825 211.927 382.474 199.773C386.123 187.618 393.895 178.484 403.073 175.161C412.251 171.839 422.62 177.292 414.485 185.373C406.35 193.455 390.395 203.862 389.353 225.755L381.906 225.38Z" fill="black"/>
<path d="M383.423 221.225H383.321C383.251 221.221 383.183 221.204 383.12 221.177C383.058 221.15 383.002 221.112 382.956 221.066C382.91 221.019 382.875 220.966 382.853 220.907C382.831 220.849 382.823 220.788 382.828 220.727C384.875 196.409 400.513 182.075 408.462 177.887C408.523 177.856 408.591 177.836 408.661 177.828C408.731 177.82 408.802 177.824 408.87 177.84C408.939 177.855 409.003 177.883 409.059 177.921C409.115 177.958 409.162 178.005 409.198 178.059C409.233 178.112 409.256 178.172 409.266 178.233C409.275 178.294 409.27 178.357 409.252 178.417C409.234 178.477 409.203 178.533 409.16 178.582C409.117 178.631 409.063 178.673 409.002 178.704C401.193 182.785 385.899 196.875 383.87 220.817C383.857 220.918 383.806 221.013 383.726 221.087C383.645 221.161 383.539 221.209 383.423 221.225Z" fill="white"/>
<path d="M390.302 238.988C390.067 236.765 389.396 234.594 388.319 232.571C387.212 230.4 385.173 228.49 384.531 226.147C384.172 224.102 384.751 222.015 386.141 220.343C387.435 218.751 389.315 217.47 390.014 215.617C390.712 213.764 390.014 211.65 390.125 209.65C390.236 207.438 391.322 205.351 393.154 203.828C394.986 202.305 397.421 201.466 399.945 201.487C402.291 201.487 404.534 202.303 406.796 202.826C409.066 203.481 411.517 203.481 413.787 202.826C416.234 201.975 418.755 201.298 421.326 200.801C425.72 200.066 431.565 200.434 433.948 204.27C434.598 205.199 434.882 206.289 434.758 207.372V207.511C434.088 210.491 430.206 211.74 427.916 213.535C427.293 214.025 426.232 214.752 426.129 215.552C426.027 216.352 426.986 217.25 427.507 217.886C428.838 219.519 430.569 221.004 431.137 223.004C431.956 225.878 429.806 229.127 427.302 230.833C424.824 232.373 421.942 233.339 418.925 233.641C417.435 233.837 415.797 233.992 414.755 234.947C414.331 235.386 414.016 235.899 413.832 236.451C413.648 237.004 413.597 237.584 413.684 238.155C413.768 239.306 414.14 240.424 414.261 241.567C414.402 243.389 413.983 245.211 413.046 246.842C412.109 248.474 410.69 249.854 408.937 250.84C406 252.432 402.485 252.989 399.098 252.399C396.306 251.95 393.513 249.599 392.499 247.306C391.336 244.634 390.597 241.835 390.302 238.988Z" fill="#E56D4B"/>
<path d="M392.815 245.428C392.75 245.432 392.683 245.425 392.621 245.406C392.558 245.387 392.501 245.357 392.452 245.318C392.403 245.279 392.364 245.232 392.337 245.179C392.31 245.127 392.295 245.069 392.294 245.012C390.684 217.576 419.623 205.339 426.874 203.78C427.002 203.755 427.137 203.774 427.249 203.834C427.362 203.893 427.444 203.988 427.479 204.099C427.51 204.211 427.49 204.33 427.422 204.429C427.354 204.529 427.244 204.6 427.116 204.629C420.023 206.156 391.745 218.123 393.281 244.971C393.286 245.085 393.24 245.197 393.154 245.282C393.067 245.367 392.945 245.419 392.815 245.428Z" fill="white"/>
<path d="M421.764 223.127C421.664 223.138 421.563 223.121 421.475 223.078C417.897 221.744 414.027 221.119 410.141 221.247C406.255 221.375 402.45 222.254 398.996 223.821C398.935 223.846 398.869 223.861 398.801 223.865C398.733 223.868 398.665 223.859 398.601 223.84C398.538 223.82 398.479 223.789 398.428 223.75C398.378 223.71 398.337 223.662 398.307 223.608C398.278 223.555 398.261 223.497 398.257 223.437C398.253 223.378 398.263 223.319 398.286 223.262C398.308 223.206 398.343 223.155 398.388 223.11C398.433 223.066 398.488 223.03 398.549 223.004C402.143 221.376 406.104 220.466 410.146 220.339C414.189 220.212 418.214 220.871 421.931 222.27C422.048 222.324 422.135 222.415 422.175 222.525C422.215 222.635 422.205 222.754 422.145 222.857C422.114 222.928 422.062 222.989 421.995 223.037C421.929 223.084 421.849 223.115 421.764 223.127Z" fill="white"/>
<path d="M61.8626 214.262C62.9889 207.944 62.5421 197.071 56.9758 185.651C51.0186 173.406 42.0827 164.672 33.2678 166.06C25.0673 167.325 25.421 176.9 35.7717 188.459C43.0321 196.565 51.335 205.732 53.6528 216.556L57.1341 231.576L61.8626 214.262Z" fill="#E56D4B"/>
<g opacity="0.15">
<path d="M61.8626 214.262C62.9889 207.944 62.5421 197.071 56.9758 185.651C51.0186 173.406 42.0827 164.672 33.2678 166.06C25.0673 167.325 25.421 176.9 35.7717 188.459C43.0321 196.565 51.335 205.732 53.6528 216.556L57.1341 231.576L61.8626 214.262Z" fill="black"/>
</g>
<path d="M59.8519 218.842C59.7497 218.818 59.6578 218.768 59.5881 218.698C59.5185 218.628 59.4742 218.542 59.461 218.45C57.0502 199.757 46.9787 179.268 36.0509 170.721C35.9559 170.634 35.9028 170.519 35.9028 170.399C35.9028 170.278 35.9559 170.163 36.0509 170.076C36.0978 170.033 36.1542 169.999 36.2165 169.976C36.2789 169.952 36.3461 169.94 36.4139 169.94C36.4817 169.94 36.5489 169.952 36.6113 169.976C36.6737 169.999 36.73 170.033 36.7769 170.076C47.8816 178.721 58.0927 199.463 60.5314 218.376C60.5405 218.436 60.5358 218.497 60.5177 218.555C60.4995 218.613 60.4682 218.667 60.4256 218.714C60.3831 218.761 60.3302 218.801 60.27 218.83C60.2098 218.858 60.1436 218.876 60.0753 218.883L59.8519 218.842Z" fill="white"/>
<path d="M52.787 247.893C52.2099 248.065 51.5956 248.154 50.9254 248.342C48.0084 249.197 44.9819 249.732 41.915 249.934C35.9019 250.244 29.5724 249.118 24.76 245.795C23.7641 245.118 22.7588 244.106 23.0846 243.044C23.3266 242.228 24.2295 241.746 25.0579 241.338L37.0562 235.486L22.3771 236.49C21.4192 236.616 20.4415 236.56 19.5102 236.326C18.2903 235.811 17.3058 234.947 16.7177 233.877C15.6627 232.316 14.8577 230.635 14.3255 228.882C14.037 227.918 13.8881 226.743 14.6979 226.041C15.1191 225.726 15.6203 225.505 16.1593 225.396C21.2298 224.015 26.4584 223.128 31.7505 222.751C26.6868 221.029 21.2043 220.808 15.8521 220.441C15.4679 220.44 15.088 220.37 14.7351 220.237C13.8881 219.862 13.6647 218.907 13.5809 218.082C13.0317 212.654 14.6234 207.111 15.247 201.756C15.4518 200.009 15.6752 200.075 17.5089 200.295C25.7932 201.307 33.4818 203.25 41.5334 205.062C42.4601 205.182 43.3184 205.559 43.9815 206.14C44.2673 206.547 44.4573 207 44.5405 207.472C44.6236 207.945 44.5981 208.427 44.4655 208.891C44.052 211.548 43.1465 214.129 41.7847 216.531C44.0934 214.792 45.9909 212.674 47.3696 210.295C47.6238 209.683 48.1103 209.167 48.7472 208.833C49.1685 208.746 49.6073 208.745 50.0289 208.831C50.4505 208.918 50.8435 209.089 51.1767 209.331C61.909 215.274 62.0207 226.939 59.8799 236.702C59.7775 237.183 59.6658 237.665 59.5541 238.147C59.2017 240.126 58.4247 242.029 57.2643 243.755C56.4387 244.99 55.4412 246.131 54.2949 247.15C53.863 247.495 53.3473 247.749 52.787 247.893Z" fill="#E56D4B"/>
<path d="M52.1263 249.199C52.0352 249.169 51.9555 249.117 51.8962 249.049C51.837 248.982 51.8006 248.901 51.7912 248.816C50.3112 233.869 30.8478 210.621 22.2842 205.976C22.2266 205.945 22.1765 205.905 22.1368 205.857C22.0971 205.809 22.0687 205.754 22.0531 205.697C22.0375 205.639 22.0351 205.579 22.046 205.521C22.0569 205.462 22.081 205.406 22.1167 205.356C22.1913 205.255 22.3076 205.183 22.4413 205.156C22.5749 205.128 22.7155 205.147 22.8334 205.209C31.5366 209.927 51.3165 233.551 52.8244 248.734C52.8308 248.794 52.8235 248.854 52.8029 248.911C52.7824 248.968 52.749 249.021 52.7048 249.067C52.6605 249.112 52.6063 249.15 52.5454 249.177C52.4844 249.204 52.4178 249.22 52.3497 249.224C52.2741 249.232 52.1974 249.223 52.1263 249.199Z" fill="white"/>
<path d="M263.757 65.2223C261.998 64.2835 259.624 63.7203 257.902 63.0183C256.608 62.4877 254.896 62.055 254.402 60.7408C254.222 60.175 254.134 59.5895 254.142 59.0021C254.149 58.419 254.042 57.839 253.825 57.2878C253.576 56.8935 253.373 56.4777 253.22 56.0471C253.176 55.4936 253.262 54.938 253.471 54.4145C253.6 53.9015 253.548 53.3664 253.322 52.8798C253.108 52.3228 253.07 51.7254 253.211 51.1507C253.352 50.576 253.667 50.0453 254.123 49.6147C254.385 49.4052 254.622 49.1727 254.83 48.9208C255.212 48.3657 255.054 47.6474 255.249 47.0188C256.096 44.2189 261.681 46.4637 263.413 47.3535C263.906 47.6066 266.373 48.7984 267.471 49.3779C267.764 47.7931 268.332 46.257 269.156 44.823C270.645 42.0231 274.312 41.5088 274.07 43.3292C273.633 45.324 273.458 47.3563 273.549 49.3861C273.635 51.036 273.894 52.6755 274.322 54.2839C274.964 57.0414 275.921 59.7352 277.179 62.3244C279.469 67.0508 290.751 80.8788 290.751 80.8788C296.336 78.0789 313.565 69.1323 320.416 65.4916C327.918 61.4999 336.696 62.855 336.696 62.855L322.669 81.7686C322.669 81.7686 301.167 91.858 294.334 95.1151C288.749 97.7844 284.282 98.8211 280.298 92.0948C274.108 81.6788 266.819 67.3446 263.757 65.2223Z" fill="#FFA8A7"/>
<path d="M265.888 49.9739C267.61 50.6759 267.955 51.7697 267.582 54.0554C267.359 55.3941 267.452 57.9246 268.979 59.1082C268.185 58.9435 267.467 58.5705 266.921 58.0389C266.242 57.2226 266.037 57.141 265.544 57.5001C265.176 57.7308 264.752 57.8844 264.306 57.9491C264.548 58.2626 264.667 58.6362 264.647 59.0143C264.627 59.3924 264.468 59.7546 264.194 60.047C263.263 61.1245 259.633 60.7572 256.887 59.1001C256.887 59.1001 261.467 60.9286 262.77 59.7205C264.073 58.5124 261.774 56.5614 259.978 55.9002C259.978 55.9002 264.445 57.3777 265.339 56.1288C266.233 54.8798 264.473 53.6799 261.848 52.7575C261.848 52.7575 265.572 53.786 266.391 52.7575C267.312 51.4106 266.279 50.4881 265.888 49.9739Z" fill="#F28F8F"/>
<path d="M338.93 55.9574H345.446C348.325 55.9563 351.175 55.4577 353.834 54.49C356.494 53.5223 358.909 52.1045 360.943 50.3177C362.977 48.5309 364.59 46.41 365.689 44.0764C366.788 41.7427 367.352 39.242 367.348 36.7172C367.355 30.8631 364.712 25.2458 360 21.0994C355.288 16.953 348.891 14.6167 342.216 14.6037C339.058 14.5735 335.926 15.1138 333.016 16.191C330.107 17.2681 327.481 18.8591 325.303 20.8647L324.865 51.0106C324.865 51.0106 333.298 55.9574 338.93 55.9574Z" fill="#263238"/>
<path d="M353.926 17.5669L352.902 11.6079C352.451 11.6475 352.013 11.7674 351.617 11.9604C351.22 12.1534 350.873 12.4153 350.595 12.7302C350.318 13.045 350.118 13.4062 350.005 13.7915C349.893 14.1768 349.871 14.5782 349.942 14.9711C350.098 15.7701 350.599 16.4857 351.341 16.9692C352.083 17.4526 353.008 17.6667 353.926 17.5669Z" fill="#263238"/>
<path d="M367.097 24.0892C363.438 26.9625 360.32 24.7177 357.062 21.4934C353.804 18.269 351.617 15.2977 355.247 12.4325C357.01 11.0588 359.323 10.3554 361.677 10.4772C364.031 10.5989 366.233 11.5356 367.799 13.0814C369.366 14.6272 370.168 16.6553 370.029 18.7197C369.89 20.7841 368.822 22.7155 367.059 24.0892H367.097Z" fill="#263238"/>
<path d="M396.203 250.342C395.347 251.901 395.793 253.844 395.728 258.072C395.784 260.855 395.654 263.638 395.337 266.407C395.188 267.395 394.825 268.293 394.583 269.256C394.426 270.022 393.98 270.721 393.317 271.239C393.033 271.474 392.688 271.645 392.312 271.737C391.936 271.83 391.54 271.841 391.158 271.77C390.861 271.688 390.587 271.555 390.35 271.378C390.113 271.202 389.92 270.985 389.78 270.741C389.264 269.81 388.853 268.837 388.552 267.835C387.621 274.905 378.908 279.802 384.233 281.549C386.104 282.143 388.093 282.401 390.081 282.307C392.069 282.213 394.015 281.769 395.803 281.002C397.285 280.363 398.564 279.413 399.526 278.235C401.574 275.092 401.388 272.105 401.388 269.403C401.453 263.427 402.57 260.342 403.119 257.354C403.817 253.738 397.525 249.795 396.203 250.342Z" fill="#263238"/>
<path d="M337.794 249.648C337.947 249.683 338.082 249.76 338.181 249.867C338.28 249.974 338.337 250.107 338.344 250.244C338.493 251.061 338.669 252.53 338.977 253.885C339.386 255.689 339.824 258.293 339.489 259.746C339.153 261.199 336.92 262.603 332.731 263.64C329.44 264.545 326.363 265.964 323.646 267.827C321.123 269.844 315.734 271.525 312.085 271.615C307.813 271.729 303.354 270.725 302.33 268.023C301.893 266.88 304.015 265.64 309.488 263.338C309.488 263.338 312.281 262.056 313.826 261.191C321.729 256.824 324.419 254.35 326.727 249.893L337.794 249.648Z" fill="#263238"/>
<path d="M323.748 253.559C326.271 251.167 326.745 248.865 326.41 244.424C326.075 239.984 322.082 201.324 321.058 191.651C319.336 175.39 321.207 129.196 322.743 117.915L370.82 121.261C374.403 129.13 377.028 138.828 376.47 154.036C376.032 165.635 376.33 197.104 376.33 197.104C376.33 197.104 382.343 201.724 386.644 210.858C390.432 218.931 394.798 246.775 394.798 246.775C395.178 247.983 395.66 249.165 396.24 250.31C397.32 251.466 397.941 252.898 398.009 254.391C398.008 259.21 397.424 264.015 396.268 268.725C395.992 269.875 395.375 270.939 394.48 271.812C393.584 272.685 392.441 273.335 391.167 273.697C390.556 273.921 389.893 274.019 389.231 273.982C388.889 273.978 388.56 273.868 388.3 273.672C387.835 273.264 388.3 272.285 388.347 271.795C388.491 271.009 388.575 270.215 388.598 269.419C388.654 267.852 388.598 265.942 388.477 264.375C388.247 260.863 387.608 257.381 386.569 253.983L385.638 251.975C385.638 251.975 364.229 214.025 358.179 204.777C353.348 197.512 350.146 169.341 346.73 153.938L341.722 190.753C341.722 190.753 343.463 197.397 344.124 202.483C345.055 209.315 339.516 236.082 337.878 245.6C337.569 247.365 337.544 249.159 337.803 250.93C337.217 255.053 333.699 256.326 330.059 258.661C328.197 259.82 320.285 264.064 315.473 264.922C311.564 265.615 310.065 264.285 309.525 263.289C314.664 260.519 319.434 257.255 323.748 253.559Z" fill="#FFA8A7"/>
<path d="M361.623 105.931C361.623 105.931 365.961 110.584 372.709 122.314C377.243 130.183 377.531 159.048 377.531 159.048C377.531 159.048 373.584 166.933 348.676 165.627L346.814 155.831L345.222 165.398L343.361 165.235C321.952 163.211 317.912 158.95 317.912 158.95C317.912 158.95 319.457 125.416 324.121 106.38C331.4 110.894 352.92 111.964 361.623 105.931Z" fill="#455A64"/>
<path d="M346.87 155.856L342.113 139.611C342.113 139.611 332.907 138.746 325.749 134.15C325.749 134.15 327.22 140.085 339.879 141.84L345.315 157.774L345.259 165.447L346.87 155.856Z" fill="#263238"/>
<path d="M364.881 160.223C373.733 158.37 377.252 155.17 377.252 155.17L377.541 158.998C377.541 158.998 373.594 166.884 348.685 165.578L347.866 161.227C353.563 161.685 359.306 161.346 364.881 160.223Z" fill="#37474F"/>
<path d="M317.94 158.974C317.94 158.974 318.014 157.423 318.172 154.778C322.456 156.716 327 158.175 331.697 159.121C336.405 160.061 341.193 160.659 346.013 160.908L345.259 165.423L343.398 165.259C321.952 163.235 317.94 158.974 317.94 158.974Z" fill="#37474F"/>
<path d="M319.224 77.826C324.027 71.2957 333.596 65.1 336.696 62.9368L353.06 63.051C355.312 63.149 358.645 63.3939 359.855 63.5653C360.931 63.7231 361.974 64.0259 362.945 64.4632C366.715 66.2264 367.096 69.4998 367.227 73.3854C367.366 77.6383 367.394 79.5076 366.054 86.5441L363.625 95.5233L363.252 96.8947C363.187 97.1315 363.131 97.3682 363.066 97.6131C362.132 101.05 362.641 104.666 364.5 107.8C368.632 114.747 372.784 120.143 374.161 125.979C372.096 125.2 370.227 124.071 368.66 122.657C365.998 120.412 364.388 119.392 362.256 116.714C357.109 125.441 329.463 132.877 320.807 119.359C320.807 119.359 323.46 107.703 323.906 103.792C323.227 100.405 321.216 94.5356 321.17 93.2459C315.641 88.895 315.734 82.5279 319.224 77.826Z" fill="#E56D4B"/>
<path opacity="0.1" d="M329.864 92.5193C329.864 92.5193 335.793 97.1313 343.081 95.3192C345.123 94.8718 347 93.9705 348.529 92.7023C350.058 91.4341 351.189 89.8416 351.812 88.0786C351.812 88.0786 352.045 95.2865 342.877 97.2211C334.034 99.0905 329.864 92.5193 329.864 92.5193Z" fill="black"/>
<path d="M321.179 42.9456C321.998 53.7289 324.903 56.6757 328.011 57.4594C330.106 57.9818 333.866 57.7532 337.608 57.2145V63.6959C337.608 63.6959 333.289 67.6794 333.615 70.6507C333.941 73.6221 340.41 73.9649 345.26 71.0507C347.929 69.4328 350.343 67.5113 352.436 65.3366C352.842 64.9206 353.063 64.3903 353.06 63.8428V48.6025C353.06 48.6025 355.108 50.5127 358.747 48.325C359.532 47.8853 360.204 47.3073 360.72 46.6278C361.237 45.9483 361.587 45.1821 361.748 44.3778C361.909 43.5734 361.878 42.7485 361.656 41.9553C361.434 41.1621 361.027 40.418 360.46 39.7702C358.887 38.1376 354.875 38.0233 352.939 40.5865C351.85 42.4476 351.701 44.3251 350.491 43.5496C347.252 41.5007 349.29 35.4438 345.381 33.1419C343.494 32.0469 341.529 31.0598 339.498 30.1869C332.526 28.0726 328.058 29.1012 326.606 24.9136C321.738 26.5462 320.267 31.044 321.179 42.9456Z" fill="#FFA8A7"/>
<path d="M335.384 41.0927C335.382 41.3772 335.476 41.6558 335.654 41.894C335.831 42.1321 336.084 42.3193 336.382 42.4324C336.68 42.5454 337.009 42.5793 337.328 42.5299C337.648 42.4804 337.944 42.3498 338.179 42.1542C338.415 41.9587 338.58 41.7067 338.654 41.4297C338.728 41.1526 338.707 40.8627 338.595 40.5957C338.482 40.3288 338.283 40.0967 338.022 39.9282C337.76 39.7597 337.448 39.6622 337.124 39.6478C336.676 39.639 336.241 39.7858 335.915 40.0564C335.589 40.3269 335.398 40.6993 335.384 41.0927Z" fill="#263238"/>
<path d="M323.302 40.6844C323.287 40.8678 323.313 41.0521 323.379 41.2265C323.445 41.401 323.55 41.5623 323.688 41.7011C323.825 41.8399 323.993 41.9535 324.181 42.0354C324.368 42.1173 324.573 42.1658 324.782 42.1783C324.993 42.1922 325.204 42.1669 325.403 42.104C325.602 42.0411 325.783 41.9421 325.936 41.8133C326.088 41.6846 326.207 41.5291 326.286 41.357C326.364 41.185 326.401 41.0003 326.392 40.815C326.407 40.6321 326.381 40.4483 326.315 40.2743C326.248 40.1003 326.143 39.9396 326.006 39.8014C325.868 39.6632 325.7 39.5504 325.513 39.4694C325.325 39.3883 325.121 39.3408 324.912 39.3294C324.495 39.327 324.094 39.4673 323.793 39.7203C323.493 39.9733 323.316 40.3192 323.302 40.6844Z" fill="#263238"/>
<path d="M331.009 39.3293L330.739 48.4229L325.293 46.9372L331.009 39.3293Z" fill="#F28F8F"/>
<path d="M337.617 57.2062C341.573 56.7572 349.718 54.7001 350.975 51.8757C350.462 53.3029 349.465 54.5588 348.117 55.4756C345.688 57.3123 337.617 59.3693 337.617 59.3693V57.2062Z" fill="#F28F8F"/>
<path d="M336.677 36.195L340.549 37.6806C340.777 37.2111 340.786 36.6823 340.576 36.2067C340.366 35.7311 339.952 35.3461 339.423 35.1338C339.164 35.0372 338.886 34.9882 338.605 34.9898C338.323 34.9914 338.046 35.0435 337.788 35.1429C337.531 35.2424 337.3 35.387 337.108 35.568C336.917 35.7489 336.771 35.9623 336.677 36.195Z" fill="#263238"/>
<path d="M339.74 48.1782L332.126 50.5128C332.278 50.9579 332.53 51.3716 332.869 51.729C333.207 52.0864 333.625 52.3802 334.096 52.5929C334.567 52.8055 335.082 52.9326 335.61 52.9665C336.139 53.0005 336.669 52.9405 337.171 52.7903C337.691 52.6436 338.172 52.4062 338.586 52.0924C338.999 51.7786 339.336 51.3949 339.575 50.9641C339.815 50.5334 339.954 50.0646 339.982 49.5859C340.01 49.1072 339.928 48.6284 339.74 48.1782Z" fill="#B16668"/>
<path d="M338.809 49.9413C337.903 49.9413 337.033 50.2553 336.39 50.8149C335.747 51.3745 335.382 52.1344 335.374 52.929C335.978 52.9859 336.588 52.9388 337.171 52.7902C337.864 52.5992 338.485 52.2446 338.964 51.7652C339.444 51.2858 339.763 50.7 339.889 50.072C339.539 49.9787 339.175 49.9346 338.809 49.9413Z" fill="#F28F8F"/>
<path d="M329.501 17.9341C320.416 18.8973 315.222 24.9298 315.222 35.158H323.599C325.488 35.155 327.311 34.5522 328.731 33.4611C330.152 32.37 331.073 30.8646 331.325 29.2235L331.632 35.158C333.186 35.1568 334.683 34.6447 335.827 33.7228C336.972 32.8009 337.68 31.5362 337.813 30.1785L337.915 29.2072C338.058 30.8255 338.892 32.3371 340.25 33.4402C341.608 34.5432 343.39 35.1566 345.241 35.158H345.986L346.842 24.5461L329.501 17.9341Z" fill="#263238"/>
<path d="M332.731 186.034C332.731 158.86 313.937 127.261 290.751 115.523C280.121 110.119 270.161 109.539 262.77 113.425L245.01 122.567L250.065 131.808C249.158 135.625 248.715 139.516 248.743 143.416C248.743 170.598 267.545 202.189 290.723 213.927C292.285 214.721 293.902 215.43 295.563 216.05L300.357 224.931L318.014 215.993C327.006 211.536 332.731 201.022 332.731 186.034Z" fill="#E56D4B"/>
<path d="M297.834 226.071C316.419 219.169 320.189 190.178 306.253 161.318C292.318 132.457 265.955 114.655 247.369 121.557C228.784 128.458 225.015 157.45 238.95 186.31C252.886 215.171 279.249 232.973 297.834 226.071Z" fill="#E56D4B"/>
<path opacity="0.1" d="M332.256 193.071C332.209 193.381 332.172 193.683 332.116 193.986C332.023 194.622 331.912 195.259 331.791 195.871C331.586 196.883 331.353 197.863 331.083 198.81C330.925 199.447 330.729 200.067 330.515 200.671C330.413 200.973 330.301 201.267 330.199 201.561C330.096 201.855 329.975 202.157 329.864 202.442C329.631 203.022 329.38 203.577 329.128 204.132L328.737 204.948C328.449 205.52 328.16 206.067 327.807 206.581L327.509 207.079C327.025 207.895 326.503 208.622 325.954 209.34L325.675 209.699L325.461 209.952C324.149 211.574 322.582 213.025 320.807 214.262L320.407 214.54C320.165 214.703 319.913 214.866 319.662 215.013L318.731 215.544C318.461 215.691 318.173 215.846 317.893 215.977L300.71 224.76C307.887 220.842 312.811 212.932 314.263 201.904C314.549 199.657 314.689 197.397 314.682 195.136C314.682 183.161 311.033 170.321 304.964 158.697L322.985 149.554C329.063 161.179 332.731 174.043 332.731 186.027C332.731 188.271 332.585 190.515 332.293 192.745C332.293 192.859 332.275 192.965 332.256 193.071Z" fill="black"/>
<path opacity="0.1" d="M332.302 192.745C332.163 193.814 331.995 194.859 331.791 195.871C331.586 196.883 331.353 197.863 331.083 198.81C330.906 199.446 330.711 200.067 330.515 200.671C330.413 200.973 330.301 201.267 330.199 201.561C330.096 201.854 329.975 202.157 329.864 202.442C329.631 203.022 329.38 203.577 329.128 204.132L328.737 204.948C328.449 205.52 328.16 206.067 327.807 206.581L327.509 207.079C327.025 207.895 326.503 208.622 325.954 209.34C325.796 209.552 325.638 209.756 325.461 209.952C324.149 211.574 322.582 213.025 320.807 214.262L320.407 214.54C320.165 214.703 319.913 214.866 319.662 215.013L318.731 215.544C318.461 215.691 318.173 215.846 317.893 215.976L300.71 224.76C307.887 220.842 312.811 212.932 314.263 201.903L332.302 192.745Z" fill="black"/>
<path opacity="0.4" d="M322.985 149.562L304.983 158.705C297.276 143.922 285.64 131.089 272.628 124.494C262.1 119.147 252.475 118.78 245.094 122.543L262.78 113.433C270.17 109.539 280.13 110.119 290.76 115.523C303.698 122.094 315.278 134.853 322.985 149.562Z" fill="white"/>
<path d="M301.548 187.961C301.548 195.545 299.296 201.683 295.507 205.65C290.23 211.201 282.038 212.556 272.86 207.871C263.683 203.185 255.435 193.471 250.158 182.566C246.369 174.737 244.117 166.329 244.117 158.738L301.548 187.961Z" fill="#37474F"/>
<path d="M295.507 205.65C290.229 211.201 282.038 212.556 272.86 207.871C263.683 203.185 255.435 193.471 250.158 182.565C256.04 178.843 264.064 178.794 272.86 183.243C281.657 187.692 289.624 195.887 295.507 205.65Z" fill="#F28F8F"/>
<path d="M284.412 161.309C284.412 165.194 286.739 169.529 289.615 170.99C292.491 172.451 294.818 170.476 294.818 166.59C294.818 162.705 292.491 158.37 289.615 156.909C286.739 155.448 284.412 157.423 284.412 161.309Z" fill="#37474F"/>
<path d="M251.489 144.599C251.489 148.485 253.816 152.819 256.692 154.272C259.568 155.725 261.895 153.766 261.895 149.88C261.895 145.995 259.559 141.66 256.692 140.199C253.825 138.738 251.489 140.681 251.489 144.599Z" fill="#37474F"/>
<path d="M306.668 128.241C304.96 128.198 303.253 128.341 301.585 128.665C298.123 129.22 294.8 129.604 291.346 128.494C289.373 127.857 287.055 126.453 286.692 124.461C286.329 122.47 288.805 121.825 290.341 121.098C292.452 120.085 294.653 119.222 296.922 118.519C300.73 117.338 304.847 117.153 308.771 117.988C310.791 118.404 313.5 118.976 315.492 118.151C316.842 117.588 318.163 116.911 319.485 116.315L329.882 111.605L344.208 105.115L350.798 80.2098C350.798 80.2098 352.334 69.9816 358.822 63.4104C363.746 63.7941 368.549 65.2879 369.656 67.9572C370.764 70.6265 369.991 74.2998 368.623 79.8833C367.255 85.4668 360.153 103.556 357.388 110.021C356.122 112.976 355.526 114.217 351.04 115.923C344.425 118.453 337.791 120.957 331.139 123.433C327.686 124.714 324.242 125.996 320.779 127.253C318.601 128.069 316.404 128.959 314.012 129.065C311.62 129.171 309.153 128.363 306.668 128.241Z" fill="#FFA8A7"/>
<path d="M124.563 72.6344C124.563 72.6344 142.974 82.6258 144.612 83.4258C146.251 84.2258 149.639 87.0747 153.102 83.3279C155.894 80.3239 174.836 54.7574 174.836 54.7574L164.783 50.5127L147.098 69.5243L120.476 52.9044L124.563 72.6344Z" fill="#FFA8A7"/>
<path d="M124.963 54.4145C130.92 58.5368 141.159 65.1978 141.159 65.1978C140.287 70.2982 137.557 75.0144 133.377 78.6422L122.989 73.0179L110.098 50.1045C110.098 50.1045 116.855 48.831 124.963 54.4145Z" fill="#37474F"/>
<path d="M133.228 113.016C133.228 85.597 152.236 53.745 175.683 41.8679C186.443 36.4232 196.505 35.8436 203.989 39.7619L221.945 48.986L216.807 58.3081C217.726 62.1599 218.172 66.0869 218.138 70.022C218.138 97.4414 199.13 129.293 175.683 141.162C174.106 141.963 172.474 142.677 170.796 143.301L165.947 152.28L148.14 143.301C139.018 138.746 133.228 128.142 133.228 113.016Z" fill="#E56D4B"/>
<path d="M228.038 113.357C242.162 84.248 238.388 54.9697 219.608 47.962C200.829 40.9544 174.156 58.8711 160.032 87.9802C145.908 117.089 149.682 146.368 168.462 153.375C187.241 160.383 213.915 142.466 228.038 113.357Z" fill="#E56D4B"/>
<path opacity="0.1" d="M133.712 120.118L133.852 121.041C133.954 121.686 134.066 122.322 134.187 122.935C134.392 123.963 134.625 124.951 134.904 125.906C135.062 126.543 135.257 127.171 135.481 127.783C135.583 128.085 135.695 128.387 135.797 128.681C135.9 128.975 136.03 129.277 136.142 129.571C136.374 130.151 136.626 130.714 136.877 131.277C137.007 131.538 137.138 131.808 137.277 132.093C137.566 132.665 137.864 133.22 138.208 133.726L138.506 134.224C138.999 135.04 139.53 135.783 140.079 136.501C140.172 136.632 140.265 136.746 140.368 136.869L140.572 137.122C141.884 138.756 143.451 140.22 145.227 141.473L145.627 141.75C145.878 141.922 146.129 142.077 146.381 142.232C146.632 142.387 146.986 142.591 147.312 142.762C147.637 142.934 147.879 143.064 148.159 143.203L165.611 152.109C158.351 148.158 153.343 140.183 151.91 129.057C151.621 126.791 151.478 124.513 151.482 122.233C151.482 110.143 155.205 97.1967 161.311 85.4991L143.086 76.1934C136.933 87.9236 133.228 100.886 133.228 112.992C133.227 115.256 133.373 117.518 133.666 119.767C133.712 119.898 133.712 120.004 133.712 120.118Z" fill="black"/>
<path opacity="0.1" d="M133.656 119.792C133.805 120.869 133.973 121.922 134.178 122.934C134.382 123.946 134.615 124.95 134.894 125.906C135.071 126.542 135.267 127.171 135.471 127.783C135.574 128.085 135.685 128.387 135.788 128.681C135.89 128.975 136.021 129.277 136.132 129.571C136.365 130.15 136.616 130.714 136.868 131.277C136.998 131.538 137.128 131.807 137.268 132.093C137.556 132.665 137.854 133.22 138.199 133.726L138.497 134.224C138.99 135.04 139.52 135.783 140.07 136.501C140.228 136.722 140.395 136.926 140.563 137.121C141.875 138.756 143.441 140.22 145.217 141.472L145.617 141.75C145.869 141.921 146.12 142.076 146.371 142.232C146.623 142.387 146.976 142.591 147.302 142.762C147.628 142.934 147.87 143.064 148.149 143.203L165.611 152.109C158.351 148.158 153.343 140.183 151.91 129.056L133.656 119.792Z" fill="black"/>
<path opacity="0.4" d="M143.085 76.1933L161.311 85.4256C169.111 70.5037 180.858 57.5573 194.029 50.8963C204.678 45.5005 214.423 45.1822 221.879 48.9372L203.989 39.762C196.542 35.8437 186.443 36.4233 175.683 41.8762C162.567 48.5045 150.876 61.3775 143.085 76.1933Z" fill="white"/>
<path d="M182.115 88.0702C182.115 91.9885 179.76 96.3638 176.856 97.8658C173.952 99.3678 171.597 97.3515 171.597 93.4251C171.597 89.4987 173.952 85.1397 176.856 83.6296C179.76 82.1194 182.115 84.152 182.115 88.0702Z" fill="#37474F"/>
<path d="M215.392 71.2136C215.392 75.1319 213.037 79.5072 210.133 81.0092C207.229 82.5112 204.874 80.4868 204.874 76.5685C204.874 72.6503 207.229 68.275 210.133 66.773C213.037 65.271 215.392 67.2872 215.392 71.2136Z" fill="#37474F"/>
<path d="M184.079 133.97C181.905 133.977 179.751 133.608 177.74 132.885C171.764 130.754 167.175 125.538 164.82 118.093C164.711 117.788 164.672 117.466 164.707 117.147C164.742 116.828 164.85 116.519 165.024 116.237C165.198 115.955 165.435 115.707 165.721 115.507C166.006 115.307 166.335 115.16 166.686 115.073C167.038 114.987 167.406 114.963 167.769 115.004C168.131 115.045 168.48 115.149 168.796 115.31C169.112 115.472 169.387 115.687 169.606 115.944C169.825 116.2 169.983 116.493 170.07 116.804C171.932 122.755 175.422 126.893 179.806 128.46C183.53 129.799 187.998 129.277 192.67 126.893C203.84 121.228 214.005 106.412 217.951 90.021C218.101 89.3997 218.525 88.8558 219.132 88.5091C219.739 88.1623 220.478 88.0411 221.186 88.1721C221.895 88.3031 222.515 88.6755 222.91 89.2075C223.305 89.7395 223.444 90.3874 223.294 91.0087C218.975 108.926 208.029 124.64 195.37 131.007C191.967 132.846 188.074 133.868 184.079 133.97Z" fill="#37474F"/>
<path d="M161.516 120.02C160.314 120.053 159.121 119.834 158.035 119.383C157.564 119.141 157.218 118.748 157.07 118.287C156.922 117.826 156.983 117.333 157.241 116.911C157.498 116.489 157.932 116.17 158.452 116.023C158.971 115.875 159.535 115.909 160.027 116.118C161.663 116.492 163.398 116.344 164.923 115.702C166.213 115.218 167.358 114.479 168.268 113.543C169.179 112.607 169.831 111.499 170.172 110.306C170.329 109.834 170.693 109.436 171.185 109.2C171.676 108.963 172.255 108.907 172.793 109.045C173.331 109.182 173.785 109.502 174.054 109.933C174.324 110.364 174.388 110.871 174.231 111.343C173.5 113.817 171.857 116.011 169.557 117.582C167.258 119.152 164.431 120.013 161.516 120.028V120.02Z" fill="#37474F"/>
<path d="M216.109 92.4374C214.903 92.4716 213.706 92.2504 212.618 91.7925C212.147 91.5502 211.802 91.1574 211.654 90.6965C211.506 90.2356 211.567 89.7424 211.824 89.3202C212.082 88.898 212.516 88.5797 213.035 88.4319C213.554 88.284 214.119 88.3182 214.61 88.5273C216.247 88.9008 217.982 88.7533 219.506 88.111C220.798 87.6293 221.944 86.8913 222.855 85.955C223.766 85.0187 224.417 83.9096 224.756 82.7153C224.913 82.2433 225.277 81.8453 225.768 81.6088C226.26 81.3722 226.838 81.3166 227.376 81.4541C227.914 81.5916 228.368 81.9109 228.638 82.3418C228.908 82.7728 228.971 83.28 228.814 83.752C228.081 86.2247 226.439 88.4166 224.143 89.9882C221.846 91.5599 219.022 92.4235 216.109 92.4455V92.4374Z" fill="#37474F"/>
<path d="M73.7214 270.66C73.3863 271.811 72.6881 275.084 65.7442 275.084C58.8003 275.084 54.8257 272.636 53.4574 269.501C52.0891 266.366 52.871 264.113 53.0013 261.42C53.1316 258.726 50.8418 257.003 50.3392 255.542C49.5945 253.395 51.633 250.44 51.633 250.44L73.7214 270.66Z" fill="#263238"/>
<path d="M140.479 250.775C140.662 251.256 140.727 251.766 140.671 252.271C140.615 252.775 140.439 253.264 140.154 253.705C139.651 254.301 134.997 257.273 129.244 256.652C125.025 256.288 120.966 255.045 117.404 253.028C114.044 251.289 111.726 251.036 108.31 251.044C104.894 251.053 102.549 250.489 102.269 249.738C101.767 248.416 101.729 247.567 102.455 247.583L140.479 250.775Z" fill="#263238"/>
<path d="M54.062 245.747C53.941 248.881 64.8316 251.6 64.5989 247.616L68.3222 236.049L56.1098 234.915L54.062 245.747Z" fill="#FFA8A7"/>
<path d="M104.857 238.392C108.292 240.547 111.457 240.841 115.487 239.045L117.516 220.107H102.707L104.857 238.392Z" fill="#FFA8A7"/>
<path d="M73.0696 112.69C70.2771 135.547 65.1762 181.684 65.1762 181.684C65.1762 181.684 60.7083 187.659 59.0421 198.679C56.9943 212.295 54.9558 240.702 54.9558 240.702C56.7589 241.65 58.7774 242.238 60.8684 242.426C62.9595 242.613 65.072 242.395 67.0565 241.788C67.0565 241.788 84.4721 200.083 87.6927 186.688C90.4852 174.99 95.4837 150.975 95.4837 150.975L101.711 183.627C100.088 188.809 99.4095 194.184 99.7003 199.553C99.9982 205.846 103.368 229.666 103.368 229.666C104.373 232.27 113.691 232.115 116.688 230.409C116.688 230.409 121.454 190.41 122.087 183.757C122.915 175.055 124.451 112.658 124.451 112.658L73.0696 112.69Z" fill="#37474F"/>
<path d="M95.4653 150.974L98.9373 136.918C98.9373 136.918 106.71 135.367 112.257 131.465C112.257 131.465 110.228 135.946 101.711 139.375L98.1647 152.542L101.218 181.422L95.4653 150.974Z" fill="#263238"/>
<path d="M64.599 247.616L64.9992 246.408C65.4553 246.808 65.3809 247.151 65.3902 248.228C65.3902 249.085 65.3902 249.91 65.5205 251.044C65.686 252.526 65.9975 253.993 66.4513 255.428C67.3821 258.767 68.3595 260.105 71.0309 264.228C71.6639 265.199 73.1998 266.823 73.6559 267.885C74.112 268.946 74.2423 270.864 72.8181 271.599C68.7597 273.705 62.4953 273.133 58.5207 271.493C57.0338 270.901 55.772 269.947 54.8858 268.745C53.9996 267.542 53.5263 266.141 53.5222 264.709C53.5222 263.893 53.727 263.02 53.7642 262.171C53.7407 260.223 53.1785 258.31 52.126 256.595C51.5111 255.605 51.0181 254.559 50.6553 253.477C50.1247 251.502 51.1766 249.518 52.0608 247.763C52.8148 246.236 53.6991 244.196 54.2948 244.432C54.2948 244.628 54.0621 245.771 54.0621 245.771C54.6764 246.587 56.6125 247.6 58.9303 247.991C60.4196 248.228 64.4407 248.62 64.599 247.616Z" fill="#455A64"/>
<path d="M115.925 235.094C116.455 235.094 116.995 235.461 117.935 236.661C119.225 238.323 120.896 239.73 122.841 240.792C126.341 242.947 131.86 245.126 137.538 246.988C140.629 248 141.215 249.959 140.191 251.714C138.59 253.118 133.136 256.399 124.172 254.008C118.587 252.522 116.66 250.016 112.686 249.575C109.893 249.265 104.997 249.934 102.13 247.943C101.199 246.041 101.953 244.13 102.242 241.486C102.53 238.841 103.489 234.621 104.448 234.784L104.615 236.188C105.379 239.241 113.393 239.543 115.664 237.543L115.925 235.094Z" fill="#455A64"/>
<path d="M93.0358 49.2556C85.4217 49.2556 79.9019 49.6229 74.9779 50.5535C71.1243 51.2719 69.9049 56.9451 69.6536 60.7246C68.8251 72.9691 75.0709 95.7846 75.0709 95.7846L72.1575 117.008C78.6732 123.131 107.882 126.322 124.563 117.351C124.563 117.351 125.009 75.5975 124.563 68.561C123.781 56.1778 117.721 50.2433 112.518 49.8923C112.518 49.8678 100.65 49.2556 93.0358 49.2556Z" fill="#E56D4B"/>
<path d="M86.0825 11.6326C86.0825 11.6326 82.0893 12.1142 80.6279 14.7508C79.3527 17.0446 79.8088 22.5873 81.5587 28.6279C83.3087 34.6685 84.8538 38.301 85.8498 39.9744C86.515 41.0025 87.6044 41.7679 88.8936 42.1131L88.6981 34.946L88.4002 29.9584C88.4002 29.9584 92.0491 25.5831 92.4493 21.9995C92.9706 17.3875 91.8629 15.4692 91.8629 15.4692L86.0825 11.6326Z" fill="#37474F"/>
<path d="M92.5237 18.5626C92.5274 21.2082 93.4259 23.7933 95.1056 25.9909C96.7852 28.1885 99.1705 29.8997 101.96 30.908C104.749 31.9163 107.816 32.1763 110.774 31.6553C113.731 31.1342 116.446 29.8554 118.575 27.9807C120.703 26.106 122.15 23.7197 122.731 21.1237C123.313 18.5278 123.003 15.8389 121.842 13.3974C120.68 10.9558 118.718 8.87135 116.205 7.40777C113.692 5.94419 110.741 5.16728 107.724 5.17536C103.685 5.18616 99.8162 6.6019 96.9663 9.1118C94.1165 11.6217 92.5187 15.0207 92.5237 18.5626Z" fill="#37474F"/>
<path d="M88.5677 29.1582C87.1901 30.1949 86.0824 27.5256 84.9189 26.4481C83.7554 25.3706 80.0042 23.9992 78.1425 27.4277C76.2809 30.8561 79.8645 35.7621 82.6756 36.913C86.7991 38.5865 88.6515 34.9376 88.6515 34.9376L89.089 50.0065C96.1353 59.3694 112.518 57.4674 105.685 50.5942V45.6964C105.685 45.6964 110.34 46.2923 112.555 45.9821C116.278 45.4678 118.261 42.9863 119.387 39.4517C121.193 33.7376 121.146 25.0278 118.642 13.918C114.444 11.0772 100.659 10.6528 91.8535 15.5505C92.4585 25.3461 89.9639 28.1134 88.5677 29.1582Z" fill="#FFA8A7"/>
<path d="M121.472 5.10213C121.425 5.00439 121.349 4.91913 121.253 4.85473C121.157 4.79033 121.043 4.749 120.923 4.7348C120.732 4.74746 120.552 4.81652 120.411 4.93071C119.361 5.66591 118.243 6.3239 117.069 6.89799C117.381 5.583 117.4 4.22759 117.125 2.90629C116.967 2.08999 116.706 0.220672 115.562 0.016598C114.882 -0.0976837 114.286 0.400258 113.774 0.832895C109.195 4.59603 103.21 2.84915 97.6898 3.00425C93.0357 3.13485 87.5066 4.78377 85.4216 8.71833C84.4908 10.5223 84.3046 12.4162 86.1849 13.6651C87.86 14.6485 89.7711 15.2798 91.7698 15.5099C100.966 16.914 113.346 19.673 120.15 12.1549C121.173 11.1007 121.82 9.80647 122.012 8.43263C122.182 7.31981 121.988 6.18759 121.454 5.16744C121.467 5.1478 121.474 5.12504 121.472 5.10213Z" fill="#263238"/>
<path d="M105.648 45.6884C105.648 45.6884 97.2709 44.2272 94.3389 42.8722C92.6191 42.0913 91.2079 40.8737 90.2898 39.3784C90.7291 40.8891 91.5145 42.3056 92.5982 43.5415C94.7484 45.9333 105.63 47.672 105.63 47.672L105.648 45.6884Z" fill="#F28F8F"/>
<path d="M103.48 27.3868C103.469 27.6768 103.361 27.9575 103.169 28.1939C102.977 28.4304 102.711 28.6121 102.402 28.7164C102.093 28.8208 101.756 28.8432 101.433 28.7807C101.11 28.7183 100.815 28.5739 100.585 28.3654C100.355 28.157 100.2 27.8938 100.14 27.6086C100.079 27.3234 100.115 27.0288 100.244 26.7617C100.373 26.4946 100.589 26.2666 100.865 26.1064C101.141 25.9461 101.464 25.8605 101.795 25.8604C102.02 25.8625 102.243 25.9038 102.45 25.9818C102.657 26.0599 102.844 26.1732 103.001 26.3152C103.157 26.4571 103.28 26.625 103.363 26.8089C103.445 26.9929 103.485 27.1893 103.48 27.3868Z" fill="#263238"/>
<path d="M101.683 21.8363L98.0991 23.5832C97.8422 23.1524 97.7849 22.6512 97.9393 22.1842C98.0936 21.7173 98.4477 21.3207 98.9275 21.0772C99.1644 20.9646 99.4246 20.8949 99.6927 20.8722C99.9609 20.8495 100.231 20.8743 100.488 20.9451C100.745 21.0159 100.984 21.1313 101.189 21.2844C101.394 21.4375 101.562 21.6252 101.683 21.8363Z" fill="#263238"/>
<path d="M102.586 35.3052L111.15 38.0887C110.968 38.5938 110.671 39.0612 110.277 39.463C109.884 39.8648 109.402 40.1927 108.86 40.4268C108.318 40.6609 107.728 40.7965 107.125 40.8254C106.522 40.8542 105.918 40.7758 105.351 40.5948C104.199 40.1976 103.268 39.4248 102.753 38.4385C102.237 37.4523 102.178 36.3293 102.586 35.3052Z" fill="#B16668"/>
<path d="M118.419 23.0118L115.096 20.816C115.25 20.6217 115.447 20.4568 115.675 20.3312C115.903 20.2056 116.158 20.1219 116.425 20.0853C116.691 20.0487 116.963 20.0598 117.224 20.1181C117.485 20.1763 117.73 20.2805 117.944 20.4242C118.387 20.7198 118.683 21.1533 118.771 21.6349C118.86 22.1165 118.734 22.6094 118.419 23.0118Z" fill="#263238"/>
<path d="M117.423 26.93C117.411 27.2176 117.302 27.4955 117.111 27.7294C116.919 27.9632 116.654 28.1426 116.347 28.2454C116.041 28.3481 115.707 28.3697 115.386 28.3073C115.066 28.245 114.774 28.1016 114.545 27.8948C114.317 27.688 114.163 27.427 114.103 27.1442C114.042 26.8613 114.077 26.5691 114.204 26.3038C114.332 26.0385 114.545 25.8117 114.817 25.6517C115.09 25.4917 115.41 25.4054 115.739 25.4036C115.964 25.4057 116.186 25.447 116.393 25.525C116.6 25.6031 116.788 25.7164 116.944 25.8584C117.101 26.0003 117.224 26.1682 117.306 26.3521C117.389 26.5361 117.428 26.7325 117.423 26.93Z" fill="#263238"/>
<path d="M108.878 25.5586L109.456 34.3991L114.715 32.8155L108.878 25.5586Z" fill="#F28F8F"/>
<path d="M105.35 40.595C106.137 40.8494 106.989 40.9004 107.808 40.7419C107.786 40.1947 107.613 39.6603 107.304 39.1842C106.996 38.7081 106.561 38.3046 106.036 38.0079C105.511 37.7112 104.912 37.5303 104.29 37.4804C103.669 37.4306 103.042 37.5133 102.465 37.7216C102.641 38.371 102.997 38.9725 103.5 39.4735C104.003 39.9744 104.638 40.3595 105.35 40.595Z" fill="#F28F8F"/>
<path d="M83.0014 109.449C78.8872 108.233 77.2676 107.523 75.3035 102.062C70.0723 87.5398 65.3438 75.5647 64.3385 68.2833C62.4024 54.2022 68.8529 52.9206 73.7211 51.386L80.423 65.663L90.2897 96.7884C98.2203 99.9149 111.205 102.225 120.495 104.756C122.536 105.168 124.629 105.347 126.722 105.286C129.961 105.009 131.953 104.674 133.759 104.951C133.582 106.119 133.508 107.221 133.415 108.257C136.583 108.25 139.745 107.996 142.862 107.498C149.62 106.396 152.04 108.364 146.493 114.314C143.356 117.686 137.184 118.984 128.211 118.151C123.561 117.626 118.964 116.782 114.463 115.629C102.716 112.861 89.4706 111.351 83.0014 109.449Z" fill="#FFA8A7"/>
<path d="M74.9779 50.5127C65.0833 51.4596 60.9319 59.1083 62.9703 68.0304C64.4317 74.3649 67.2894 83.1074 69.5978 89.4909C69.5978 89.4909 81.6426 89.3848 87.423 84.536C85.2449 78.2668 84.8912 76.9526 82.9644 71.0099C82.2569 59.1246 79.4459 53.3371 74.9779 50.5127Z" fill="#37474F"/>
<path d="M167.967 46.5945C169.065 45.7782 170.303 44.9619 171.69 44.0966C171.69 44.0966 175.702 44.4231 180.579 47.8189C183.67 49.9658 192.978 49.8189 191.647 46.0639C189.785 40.7824 183.269 38.856 180.347 38.3009C175.534 37.3867 166.896 41.0926 167.967 46.5945Z" fill="#FFA8A7"/>
</svg>
