
<svg width="108" height="109" viewBox="0 0 108 109" fill="none" xmlns="http://www.w3.org/2000/svg">
<path d="M46.8643 43.8576C45.4603 44.793 44.2549 45.9948 43.3169 47.3945C42.379 48.7941 41.7268 50.3641 41.3978 52.0149C40.7332 55.3488 41.4248 58.8092 43.3205 61.635C45.2162 64.4607 48.1607 66.4202 51.5062 67.0825C54.8518 67.7448 58.3243 67.0555 61.1598 65.1664C63.9954 63.2773 65.9618 60.343 66.6263 57.0091C67.2909 53.6752 66.5993 50.2148 64.7036 47.3891C62.8079 44.5633 59.8634 42.6038 56.5179 41.9415C53.1723 41.2793 49.6999 41.9685 46.8643 43.8576ZM81.1688 27.4256C79.9152 26.1764 78.3964 25.1914 76.733 24.5428C72.3696 22.8371 62.8473 22.9092 56.7 22.9813C55.7116 22.9813 54.7955 23.0053 54 23.0053C53.2045 23.0053 52.2643 23.0053 51.2518 22.9813C45.1045 22.9092 35.6304 22.8131 31.267 24.5428C29.6036 25.1914 28.1089 26.1764 26.8313 27.4256C25.5536 28.6748 24.5893 30.1883 23.9384 31.8459C22.2268 36.1941 22.3232 45.7074 22.3714 51.8334C22.3714 52.8184 22.3955 53.7312 22.3955 54.5C22.3955 55.2688 22.3955 56.1816 22.3714 57.1666C22.3232 63.2926 22.2268 72.8059 23.9384 77.1541C24.5893 78.8117 25.5777 80.3012 26.8313 81.5744C28.0848 82.8477 29.6036 83.8086 31.267 84.4572C35.6304 86.1629 45.1527 86.0908 51.3 86.0188C52.2884 86.0188 53.2045 85.9947 54 85.9947C54.7955 85.9947 55.7357 85.9947 56.7482 86.0188C62.8955 86.0908 72.3696 86.1869 76.733 84.4572C78.3964 83.8086 79.8911 82.8236 81.1688 81.5744C82.4464 80.3252 83.4107 78.8117 84.0616 77.1541C85.7973 72.8299 85.7009 63.3646 85.6286 57.2146C85.6286 56.2057 85.6045 55.2687 85.6045 54.476C85.6045 53.6832 85.6045 52.7703 85.6286 51.7373C85.7009 45.6113 85.7973 36.1461 84.0616 31.7979C83.4107 30.1402 82.4223 28.6508 81.1688 27.3775V27.4256ZM64.9929 38.116C69.3533 41.0214 72.377 45.5339 73.3987 50.6609C74.4205 55.7879 73.3566 61.1094 70.4411 65.4547C68.9975 67.6063 67.1427 69.4534 64.9828 70.8907C62.8228 72.328 60.3999 73.3272 57.8525 73.8314C52.7076 74.8496 47.3676 73.7894 43.0071 70.884C38.6467 67.9818 35.6218 63.4723 34.5978 58.3476C33.5738 53.2228 34.6346 47.9026 37.5469 43.5573C40.4592 39.212 44.9844 36.1976 50.127 35.1771C55.2696 34.1567 60.6083 35.2138 64.9688 38.116H64.9929ZM72.0321 37.8037C71.2848 37.2992 70.6821 36.5785 70.3205 35.7377C69.9589 34.8969 69.8866 33.984 70.0554 33.0711C70.2241 32.1582 70.6821 31.3654 71.3089 30.7168C71.9357 30.0682 72.7795 29.6357 73.6714 29.4676C74.5634 29.2994 75.5036 29.3715 76.3473 29.7318C77.1911 30.0922 77.9143 30.6687 78.4205 31.4135C78.9268 32.1582 79.192 33.0471 79.192 33.96C79.192 34.5605 79.0714 35.1611 78.8545 35.7137C78.6375 36.2662 78.2759 36.7707 77.8661 37.2031C77.4563 37.6355 76.9259 37.9719 76.3714 38.2121C75.817 38.4523 75.2143 38.5725 74.6116 38.5725C73.6955 38.5725 72.8036 38.3082 72.0562 37.8037H72.0321ZM108 16.0625C108 7.58223 101.081 0.6875 92.5714 0.6875H15.4286C6.91875 0.6875 0 7.58223 0 16.0625V92.9375C0 101.418 6.91875 108.312 15.4286 108.312H92.5714C101.081 108.312 108 101.418 108 92.9375V16.0625ZM86.0625 86.4512C81.5545 90.9436 76.0821 92.3609 69.9107 92.6732C63.5464 93.0336 44.4536 93.0336 38.0893 92.6732C31.9179 92.3609 26.4455 90.9436 21.9375 86.4512C17.4295 81.9588 16.0071 76.5055 15.7179 70.3555C15.3562 64.0133 15.3562 44.9867 15.7179 38.6445C16.0312 32.4945 17.4295 27.0412 21.9375 22.5488C26.4455 18.0564 31.942 16.6391 38.0893 16.3508C44.4536 15.9904 63.5464 15.9904 69.9107 16.3508C76.0821 16.6631 81.5545 18.0564 86.0625 22.5488C90.5705 27.0412 91.9929 32.4945 92.2821 38.6445C92.6437 44.9627 92.6437 63.9652 92.2821 70.3314C91.9687 76.4814 90.5705 81.9348 86.0625 86.4271V86.4512Z" fill="#FFFDFB"/>
</svg>
