<svg width="404" height="423" viewBox="0 0 404 423" fill="none" xmlns="http://www.w3.org/2000/svg">
<path d="M389.132 193.615C389.132 193.615 388.756 193.517 388.083 193.384C387.129 193.196 386.15 193.169 385.187 193.304C383.769 193.505 382.432 194.085 381.323 194.984C379.978 196.093 379.034 197.606 378.633 199.293L378.471 199.933L378.22 199.329C377.557 197.723 376.419 196.354 374.957 195.401C373.76 194.625 372.384 194.163 370.958 194.06C369.633 193.992 368.306 194.158 367.039 194.548C367.347 194.356 367.683 194.212 368.035 194.122C368.985 193.826 369.981 193.702 370.976 193.757C372.454 193.849 373.883 194.324 375.118 195.135C376.67 196.112 377.876 197.544 378.57 199.231H378.158V199.187C378.589 197.404 379.608 195.816 381.054 194.673C382.034 193.906 383.181 193.375 384.404 193.122C385.627 192.869 386.893 192.901 388.101 193.215C388.465 193.29 388.814 193.425 389.132 193.615Z" fill="#E0E0E0"/>
<path d="M55.0297 141.277C55.0297 141.277 54.6532 141.18 53.9807 141.046C53.0267 140.858 52.0476 140.831 51.0846 140.966C49.6649 141.163 48.3276 141.744 47.2201 142.646C45.8758 143.755 44.9317 145.268 44.5302 146.956V147L44.3688 147.64L44.1178 147.035C43.4544 145.43 42.3167 144.061 40.854 143.108C39.6575 142.332 38.2813 141.87 36.855 141.766C35.5301 141.699 34.2036 141.864 32.9368 142.255C33.2205 142.064 33.5319 141.917 33.8603 141.819C34.8104 141.523 35.8068 141.4 36.8012 141.455C38.3057 141.516 39.7666 141.973 41.0333 142.779C42.5827 143.759 43.7885 145.19 44.4854 146.876H44.0729V146.831C44.5041 145.049 45.5233 143.46 46.969 142.317C47.9519 141.555 49.1018 141.032 50.326 140.791C51.5502 140.551 52.8144 140.598 54.0166 140.931C54.371 140.991 54.7133 141.108 55.0297 141.277Z" fill="#E0E0E0"/>
<path d="M286.979 122.928C286.682 123.311 286.362 123.676 286.02 124.021C285.15 125.012 284.364 126.073 283.671 127.193C281.358 130.88 280.145 135.141 280.174 139.482V139.633H279.743C279.073 135.376 277.076 131.433 274.032 128.357C272.748 127.113 271.349 125.991 269.854 125.007C269.854 125.007 269.979 125.007 270.203 125.158C270.427 125.309 270.741 125.434 271.1 125.691C272.222 126.397 273.265 127.219 274.211 128.144C277.381 131.217 279.457 135.228 280.129 139.571H279.699V139.42C279.671 135.007 280.949 130.681 283.375 126.98C284.097 125.865 284.929 124.823 285.858 123.87C286.181 123.523 286.468 123.283 286.647 123.115C286.748 123.037 286.86 122.974 286.979 122.928Z" fill="#E0E0E0"/>
<path d="M318.226 335.861C304.104 339.175 293.327 353.126 293.775 367.521C284.728 357.64 268.185 355.623 257.013 363.079C245.841 370.534 241.385 386.422 247.15 398.48C233.782 388.137 212.038 391.007 201.862 404.451C200.698 400.199 198.539 396.279 195.559 393.009C192.58 389.739 188.864 387.211 184.714 385.631C180.564 384.051 176.097 383.464 171.674 383.916C167.252 384.368 163 385.848 159.263 388.235C156.851 373.244 144.639 360.271 129.674 356.841C114.709 353.411 98.0319 359.755 89.218 372.169C85.4763 368.542 80.9417 365.817 75.966 364.208C70.9902 362.598 65.7071 362.146 60.5266 362.887C55.3461 363.627 50.4074 365.541 46.0938 368.479C41.7802 371.417 38.2077 375.301 35.6533 379.828L44.7183 382.725C52.9971 384.32 60.7303 387.977 67.1898 393.351C73.6492 398.725 78.6225 405.639 81.6415 413.444C85.824 408.911 91.0475 405.445 96.8691 403.338C102.691 401.232 108.939 400.547 115.084 401.342C121.23 402.137 127.091 404.389 132.172 407.906C137.253 411.424 141.403 416.103 144.271 421.548H214.074C231.45 421.406 244.712 422.33 260.779 421.548C267.127 399.395 296.349 379.704 318.307 387.222C320.633 378.835 325.189 371.222 331.497 365.176C337.806 359.13 345.637 354.874 354.172 352.851C347.95 340.037 332.196 332.573 318.226 335.861Z" fill="#EBEBEB"/>
<path d="M354.773 352.691L354.208 352.815C354.28 352.958 354.361 353.1 354.423 353.242L354.773 352.691Z" fill="#EBEBEB"/>
<path d="M174.362 311.602C174.9 307.755 169.413 304.583 165.297 304.254C163.325 304.103 161.289 304.396 159.424 303.756C155.389 302.361 153.784 297.198 149.848 295.554C146.907 294.319 143.518 295.421 140.667 296.843C137.815 298.265 135 300.051 131.808 300.255C129.037 300.433 126.025 299.411 123.604 300.753C121.811 301.757 120.851 303.818 119.183 305.036C117.516 306.253 115.427 306.475 113.409 306.591C111.392 306.706 109.294 306.715 107.455 307.55C105.617 308.386 104.093 310.314 104.47 312.287L174.362 311.602Z" fill="#EBEBEB"/>
<path d="M370.159 95.0349C370.796 90.4498 364.277 86.691 359.399 86.3001C357.059 86.1135 354.629 86.46 352.424 85.6958C347.627 84.043 345.708 77.9029 341.027 75.9213C337.531 74.4551 333.505 75.7614 330.116 77.4497C326.726 79.138 323.364 81.2706 319.58 81.5105C316.281 81.7238 312.703 80.5064 309.816 82.1059C307.673 83.2966 306.543 85.7491 304.562 87.1975C302.58 88.6459 300.078 88.9125 297.693 89.0369C295.308 89.1613 292.798 89.1969 290.61 90.1921C288.422 91.1873 286.611 93.471 287.068 95.8169L370.159 95.0349Z" fill="#EBEBEB"/>
<path d="M114.853 71.1229C115.525 66.2978 108.657 62.3258 103.493 61.9082C101.027 61.7127 98.4625 62.0859 96.1313 61.2862C91.0743 59.509 89.0569 53.0667 84.1254 51.0052C80.4402 49.459 76.1902 50.8363 72.6216 52.6135C69.053 54.3907 65.5113 56.6388 61.5124 56.8965C58.0424 57.1187 54.2676 55.8391 51.228 57.5185C48.9596 58.7715 47.776 61.3661 45.6868 62.8501C43.5977 64.334 40.9795 64.6273 38.451 64.7961C35.9225 64.9649 33.2865 64.9561 30.9821 66.0046C28.6778 67.0531 26.7679 69.4701 27.2432 71.9404L114.853 71.1229Z" fill="#EBEBEB"/>
<path d="M386.648 254.848C387.545 248.344 378.292 242.994 371.334 242.408C368.007 242.141 364.564 242.648 361.417 241.519C354.603 239.173 351.886 230.447 345.233 227.666C340.266 225.587 334.545 227.435 329.721 229.843C324.898 232.251 320.145 235.273 314.757 235.61C310.076 235.912 304.992 234.188 300.895 236.454C297.846 238.143 296.241 241.635 293.426 243.688C290.61 245.74 287.087 246.122 283.67 246.353C280.254 246.584 276.722 246.575 273.61 247.988C270.499 249.401 267.926 252.653 268.571 255.986L386.648 254.848Z" fill="#F5F5F5"/>
<path d="M125.756 208.624C126.581 202.732 118.188 197.889 111.894 197.392C108.881 197.152 105.761 197.605 102.927 196.619C96.7587 194.486 94.2929 186.595 88.2765 184.072C83.7934 182.197 78.5929 183.867 74.2353 186.045C69.8777 188.222 65.5559 190.958 60.6872 191.269C56.4462 191.536 51.8464 189.981 48.1344 192.034C45.3728 193.562 43.9202 196.717 41.3738 198.583C38.8274 200.449 35.6354 200.786 32.542 200.955C29.4486 201.124 26.2656 201.151 23.4322 202.43C20.5989 203.71 18.2856 206.66 18.8684 209.672L125.756 208.624Z" fill="#EBEBEB"/>
<path d="M403.272 369.538C403.272 369.538 402.824 369.059 401.99 368.108C401.568 367.637 401.093 367.024 400.385 366.384L399.309 365.326C398.904 364.911 398.476 364.52 398.027 364.154L396.547 362.892C396.036 362.439 395.426 362.003 394.835 361.577C393.642 360.644 392.225 359.799 390.728 358.831C387.195 356.758 383.423 355.114 379.493 353.935C374.613 352.449 369.524 351.75 364.421 351.864L362.314 351.927L360.171 352.14L359.086 352.246L358.001 352.433L355.804 352.824C352.765 353.499 349.798 354.463 346.946 355.703C343.913 357.051 341.024 358.694 338.32 360.608C335.468 362.664 332.831 364.998 330.448 367.575C325.316 373.175 321.598 379.902 319.598 387.204L319.544 387.408L319.347 387.337C313.929 385.593 308.15 385.257 302.562 386.359C296.67 387.494 291.03 389.667 285.912 392.775C280.519 395.988 275.676 400.031 271.566 404.753C267.238 409.62 264.007 415.346 262.088 421.548L262.044 421.699H261.882C253.041 422.143 243.95 422.045 234.598 421.868C229.944 421.788 225.237 421.708 220.485 421.69H206.139H145.374H145.24L145.177 421.565C142.081 415.791 137.547 410.897 132.005 407.348C126.724 403.903 120.659 401.817 114.36 401.279C108.528 400.856 102.675 401.733 97.2303 403.845C91.7856 405.958 86.8878 409.253 82.8969 413.488L82.6817 413.71L82.5741 413.426C79.9676 406.7 75.8851 400.633 70.622 395.663C68.1859 393.373 65.5382 391.314 62.7137 389.514C60.0432 387.85 57.2215 386.437 54.2854 385.293C51.5232 384.228 48.6692 383.413 45.7584 382.858L43.6513 382.547L42.6202 382.405L41.5801 382.325L39.5448 382.165H37.5363C32.6767 382.13 27.8397 382.825 23.1902 384.227C19.4423 385.325 15.8326 386.843 12.4307 388.75C10.9871 389.638 9.62422 390.411 8.47653 391.273C7.40292 392.006 6.36747 392.792 5.37419 393.628C4.47756 394.33 3.74232 395.077 3.06985 395.663C2.54897 396.142 2.05224 396.646 1.58144 397.174C0.747576 398.062 0.308228 398.48 0.308228 398.48C0.308228 398.48 0.720678 398.018 1.53661 397.138C2.02734 396.58 2.54814 396.049 3.09675 395.547C3.76025 394.952 4.45963 394.197 5.39212 393.486C6.382 392.641 7.41445 391.846 8.4855 391.105C9.63318 390.216 10.9871 389.443 12.4307 388.554C15.8294 386.623 19.4392 385.081 23.1902 383.96C27.838 382.545 32.6743 381.833 37.5363 381.845H39.5448L41.598 382.005L42.6381 382.085L43.6782 382.227L45.7943 382.538C48.7254 383.085 51.6004 383.894 54.384 384.955C57.3508 386.112 60.2025 387.54 62.902 389.221C65.7491 391.026 68.418 393.094 70.873 395.396C76.1736 400.417 80.2834 406.542 82.9058 413.328L82.583 413.266C86.6145 408.985 91.5616 405.652 97.0615 403.512C102.561 401.372 108.475 400.478 114.369 400.897C120.74 401.435 126.876 403.539 132.22 407.019C137.828 410.607 142.418 415.556 145.553 421.397L145.347 421.272H206.103H220.449C225.21 421.272 229.917 421.37 234.571 421.459C243.887 421.637 252.997 421.734 261.819 421.29L261.613 421.459C263.555 415.196 266.823 409.416 271.198 404.504C275.346 399.73 280.238 395.644 285.688 392.402C290.849 389.269 296.538 387.084 302.482 385.951C308.136 384.837 313.985 385.186 319.464 386.964L319.213 387.097C321.238 379.74 324.997 372.964 330.179 367.326C332.583 364.74 335.241 362.397 338.114 360.333C340.84 358.406 343.753 356.754 346.811 355.401C349.701 354.162 352.703 353.198 355.777 352.522L357.992 352.14L359.086 351.953L360.18 351.847L362.332 351.642L364.448 351.58C369.579 351.48 374.692 352.2 379.592 353.713C383.532 354.914 387.313 356.578 390.854 358.671C392.351 359.648 393.768 360.51 394.951 361.452C395.552 361.923 396.153 362.341 396.664 362.785L398.143 364.065C398.592 364.431 399.018 364.826 399.416 365.247L400.483 366.313C401.047 366.874 401.577 367.467 402.07 368.09C402.85 369.032 403.272 369.538 403.272 369.538Z" fill="#263238"/>
<path d="M201.53 35.0371L206.211 44.4561C206.378 44.7845 206.622 45.0682 206.924 45.2831C207.225 45.4981 207.574 45.6381 207.941 45.6913L218.423 47.2019C218.845 47.2649 219.241 47.4433 219.566 47.717C219.891 47.9907 220.133 48.3489 220.265 48.7513C220.396 49.1537 220.411 49.5845 220.309 49.9951C220.207 50.4058 219.992 50.7802 219.687 51.0761L212.11 58.407C211.842 58.6622 211.641 58.9789 211.526 59.3291C211.41 59.6793 211.383 60.0523 211.447 60.4152L213.186 70.7318C213.259 71.1497 213.211 71.5793 213.05 71.972C212.889 72.3648 212.62 72.7051 212.275 72.9546C211.929 73.2041 211.519 73.3528 211.093 73.384C210.666 73.4151 210.239 73.3275 209.86 73.131L200.481 68.2437C200.152 68.0732 199.786 67.9842 199.414 67.9842C199.043 67.9842 198.676 68.0732 198.347 68.2437L188.977 73.1576C188.598 73.3542 188.171 73.4418 187.745 73.4106C187.318 73.3795 186.909 73.2308 186.563 72.9813C186.217 72.7318 185.948 72.3915 185.787 71.9987C185.626 71.6059 185.579 71.1764 185.651 70.7584L187.444 60.4152C187.506 60.0523 187.478 59.6799 187.362 59.3302C187.246 58.9804 187.047 58.6636 186.781 58.407L179.195 51.0761C178.89 50.7796 178.675 50.4045 178.573 49.9932C178.472 49.5819 178.488 49.1506 178.62 48.748C178.752 48.3453 178.996 47.9873 179.322 47.7141C179.649 47.441 180.046 47.2636 180.468 47.2019L190.95 45.6913C191.316 45.6389 191.664 45.4991 191.964 45.284C192.264 45.0689 192.507 44.7848 192.671 44.4561L197.361 35.0371C197.544 34.6422 197.838 34.3078 198.208 34.0734C198.577 33.8389 199.007 33.7144 199.446 33.7144C199.884 33.7144 200.314 33.8389 200.683 34.0734C201.053 34.3078 201.347 34.6422 201.53 35.0371Z" fill="#FF725E"/>
<path d="M183.597 41.2573C183.517 41.3461 177.563 35.8724 170.318 29.0302C163.073 22.1881 157.263 16.59 157.353 16.4744C157.442 16.3589 163.423 21.8593 170.677 28.7015C177.93 35.5436 183.723 41.1684 183.597 41.2573Z" fill="#FF725E"/>
<path d="M171.206 47.0509C171.206 47.1753 166.086 46.9709 159.801 46.5977C153.515 46.2245 148.414 45.8068 148.414 45.7091C148.414 45.6114 153.533 45.7802 159.828 46.1623C166.122 46.5444 171.206 46.9265 171.206 47.0509Z" fill="#FF725E"/>
<path d="M190.591 30.1855C189.357 27.9967 188.258 25.7355 187.3 23.4145C186.201 21.1545 185.24 18.8311 184.422 16.4568C185.666 18.642 186.768 20.9036 187.722 23.2279C188.822 25.4861 189.781 27.8097 190.591 30.1855Z" fill="#FF725E"/>
<path d="M198.526 0C198.652 0 198.759 6.22014 198.759 13.8265C198.759 21.4328 198.652 27.6618 198.526 27.6618C198.401 27.6618 198.293 21.4417 198.293 13.8265C198.293 6.21125 198.401 0 198.526 0Z" fill="#FF725E"/>
<path d="M214.379 16.7144C213.534 19.0094 212.546 21.25 211.42 23.4232C210.427 25.6588 209.295 27.8311 208.031 29.9277C208.876 27.6317 209.867 25.3909 210.998 23.2188C211.986 20.9825 213.115 18.8101 214.379 16.7144Z" fill="#FF725E"/>
<path d="M239.995 21.2371C240.067 21.3438 233.226 26.1955 224.753 32.078C216.279 37.9604 209.286 42.6522 209.214 42.5456C209.142 42.4389 215.975 37.5872 224.457 31.6959C232.939 25.8045 239.915 21.1305 239.995 21.2371Z" fill="#FF725E"/>
<path d="M240.668 40.8928C238.21 42.0912 235.686 43.1532 233.109 44.074C230.588 45.1118 228.007 46.002 225.38 46.7398C227.831 45.5604 230.345 44.5162 232.912 43.6119C235.441 42.555 238.031 41.647 240.668 40.8928Z" fill="#FF725E"/>
<path d="M181.042 59.8288C181.042 59.9443 172.192 63.0899 161.182 66.8398C150.171 70.5896 141.205 73.5398 141.169 73.3976C141.133 73.2554 150.019 70.1364 161.029 66.3777C172.04 62.619 181.006 59.7044 181.042 59.8288Z" fill="#FF725E"/>
<path d="M251.132 69.5145C251.132 69.6389 243.277 67.5684 233.656 64.8938C224.035 62.2191 216.262 59.9532 216.297 59.8288C216.333 59.7044 224.161 61.7748 233.782 64.4495C243.403 67.1241 251.167 69.39 251.132 69.5145Z" fill="#FF725E"/>
<path d="M173.734 85.5712C175.397 83.8404 177.167 82.2141 179.033 80.7017C180.801 79.0692 182.676 77.5552 184.646 76.1699C182.984 77.9064 181.211 79.5359 179.338 81.0483C177.569 82.6727 175.698 84.1834 173.734 85.5712Z" fill="#FF725E"/>
<path d="M199.27 107.333C199.145 107.333 199.082 99.7353 199.127 90.3784C199.172 81.0215 199.324 73.4152 199.45 73.4241C199.575 73.433 199.647 81.0127 199.593 90.3784C199.539 99.7442 199.396 107.333 199.27 107.333Z" fill="#FF725E"/>
<path d="M225.739 87.4728C223.803 85.9782 221.964 84.3637 220.233 82.6389C218.37 81.0302 216.615 79.3026 214.979 77.4673C216.915 78.9619 218.754 80.5764 220.485 82.3012C222.348 83.9099 224.103 85.6375 225.739 87.4728Z" fill="#FF725E"/>
<path d="M244.918 55.4481L244.998 56.9765C245.001 57.0307 245.017 57.0834 245.045 57.1299C245.073 57.1764 245.113 57.2153 245.16 57.2431L246.469 58.0428C246.524 58.074 246.569 58.1203 246.598 58.1761C246.628 58.2319 246.64 58.2949 246.635 58.3576C246.629 58.4203 246.605 58.48 246.566 58.5298C246.528 58.5795 246.475 58.6171 246.415 58.6382L244.972 59.1802C244.922 59.1996 244.878 59.2308 244.844 59.2711C244.809 59.3115 244.785 59.3596 244.774 59.4112L244.407 60.9041C244.392 60.9638 244.36 61.0183 244.316 61.0611C244.271 61.104 244.215 61.1336 244.154 61.1466C244.094 61.1596 244.031 61.1554 243.972 61.1345C243.914 61.1136 243.862 61.0769 243.824 61.0285L242.856 59.8466C242.822 59.8041 242.778 59.7705 242.728 59.7488C242.678 59.7271 242.623 59.718 242.569 59.7222L241.026 59.8378C240.965 59.8426 240.903 59.8303 240.848 59.8022C240.793 59.774 240.747 59.7312 240.715 59.6784C240.683 59.6257 240.667 59.5653 240.668 59.5039C240.669 59.4426 240.688 59.3828 240.722 59.3313L241.564 58.0428C241.59 57.9966 241.604 57.9446 241.604 57.8917C241.604 57.8389 241.59 57.7869 241.564 57.7407L240.973 56.3189C240.952 56.2621 240.947 56.2007 240.958 56.1413C240.97 56.0819 240.997 56.0266 241.037 55.9812C241.078 55.9358 241.129 55.9019 241.187 55.8832C241.246 55.8644 241.308 55.8615 241.367 55.8746L242.864 56.2745C242.917 56.287 242.972 56.287 243.025 56.2747C243.078 56.2623 243.128 56.2379 243.169 56.2034L244.344 55.2171C244.39 55.1686 244.449 55.1349 244.515 55.1207C244.58 55.1064 244.649 55.1122 244.711 55.1372C244.773 55.1622 244.826 55.2053 244.863 55.2608C244.9 55.3163 244.919 55.3816 244.918 55.4481Z" fill="#FF725E"/>
<path d="M254.817 39.3379L255.525 40.0665C255.549 40.0917 255.578 40.1107 255.611 40.1215C255.644 40.1324 255.679 40.1349 255.713 40.1287L256.718 39.9688C256.758 39.9628 256.8 39.9679 256.838 39.9838C256.876 39.9996 256.908 40.0254 256.932 40.0584C256.956 40.0914 256.971 40.1304 256.974 40.171C256.977 40.2116 256.969 40.2523 256.951 40.2887L256.467 41.1773C256.449 41.2086 256.44 41.2437 256.44 41.2794C256.44 41.3151 256.449 41.3503 256.467 41.3816L256.933 42.2702C256.95 42.307 256.956 42.3476 256.952 42.3878C256.947 42.4279 256.931 42.466 256.906 42.498C256.881 42.53 256.848 42.5546 256.81 42.5693C256.772 42.584 256.731 42.5881 256.691 42.5812L255.695 42.4035C255.661 42.3963 255.625 42.3973 255.59 42.4066C255.556 42.4158 255.524 42.4331 255.498 42.4568L254.781 43.1766C254.751 43.2047 254.715 43.2242 254.675 43.2331C254.635 43.242 254.593 43.24 254.555 43.2272C254.516 43.2144 254.481 43.1913 254.455 43.1604C254.428 43.1296 254.411 43.0922 254.404 43.0522L254.27 42.0481C254.266 42.0138 254.253 41.9812 254.232 41.9532C254.212 41.9253 254.185 41.9029 254.153 41.8881L253.257 41.4261C253.218 41.4095 253.186 41.3821 253.163 41.3474C253.14 41.3127 253.127 41.2721 253.127 41.2306C253.127 41.1891 253.14 41.1485 253.163 41.1137C253.186 41.079 253.218 41.0517 253.257 41.0351L254.153 40.5997C254.187 40.5869 254.216 40.5653 254.239 40.5371C254.261 40.5089 254.275 40.4752 254.279 40.4397L254.431 39.4534C254.438 39.4123 254.456 39.374 254.484 39.3427C254.511 39.3114 254.547 39.2884 254.588 39.2764C254.628 39.2643 254.671 39.2637 254.711 39.2746C254.752 39.2854 254.788 39.3074 254.817 39.3379Z" fill="#FF725E"/>
<path d="M141.106 27.2441L141.805 27.9728C141.828 27.9995 141.857 28.0195 141.89 28.0304C141.924 28.0414 141.959 28.043 141.993 28.035L142.998 27.875C143.038 27.869 143.08 27.8742 143.118 27.89C143.156 27.9058 143.188 27.9317 143.212 27.9647C143.237 27.9977 143.251 28.0366 143.254 28.0772C143.257 28.1178 143.249 28.1586 143.231 28.1949L142.747 29.0835C142.729 29.1148 142.72 29.15 142.72 29.1857C142.72 29.2214 142.729 29.2565 142.747 29.2879L143.213 30.1765C143.23 30.2132 143.236 30.2539 143.232 30.294C143.227 30.3341 143.211 30.3723 143.186 30.4043C143.161 30.4362 143.128 30.4609 143.09 30.4756C143.052 30.4902 143.011 30.4943 142.971 30.4875L141.976 30.3098C141.94 30.3044 141.904 30.3072 141.87 30.318C141.835 30.3288 141.804 30.3472 141.778 30.372L141.061 31.0828C141.032 31.1109 140.995 31.1305 140.955 31.1394C140.915 31.1483 140.874 31.1462 140.835 31.1334C140.796 31.1206 140.761 31.0975 140.735 31.0667C140.708 31.0359 140.691 30.9984 140.684 30.9584L140.559 29.9721C140.554 29.937 140.541 29.9035 140.52 29.8742C140.5 29.8449 140.474 29.8206 140.442 29.8033L139.546 29.3501C139.51 29.331 139.48 29.3028 139.46 29.2684C139.439 29.234 139.428 29.1947 139.428 29.1546C139.428 29.1145 139.439 29.0752 139.46 29.0408C139.48 29.0064 139.51 28.9781 139.546 28.9591L140.442 28.5237C140.476 28.508 140.505 28.4843 140.526 28.4549C140.548 28.4254 140.563 28.3911 140.568 28.3549L140.72 27.3596C140.727 27.3186 140.745 27.2802 140.773 27.2489C140.801 27.2176 140.836 27.1946 140.877 27.1826C140.917 27.1706 140.96 27.1699 141 27.1808C141.041 27.1917 141.077 27.2136 141.106 27.2441Z" fill="#FF725E"/>
<path d="M51.8911 242.079C51.8911 242.079 51.5145 241.981 50.833 241.848C49.8826 241.655 48.9057 241.628 47.9459 241.768C46.5235 241.964 45.1832 242.545 44.0724 243.447C42.7332 244.557 41.7901 246.065 41.3825 247.748V247.801L41.2122 248.432L40.9701 247.828C40.3033 246.224 39.1624 244.858 37.6974 243.909C36.5 243.133 35.1247 242.669 33.6984 242.558C32.3729 242.492 31.046 242.66 29.7802 243.056C30.0878 242.864 30.4235 242.72 30.7754 242.63C31.7259 242.335 32.7215 242.208 33.7164 242.256C35.2061 242.329 36.6516 242.782 37.9126 243.571C39.463 244.553 40.6713 245.983 41.3736 247.668H40.9611V247.615C41.3889 245.845 42.3944 244.264 43.8214 243.118C44.8067 242.35 45.9591 241.82 47.187 241.57C48.415 241.321 49.6848 241.358 50.8958 241.679C51.2475 241.757 51.5837 241.892 51.8911 242.079Z" fill="#263238"/>
<path d="M95.2879 238.676C94.8693 239.221 94.4171 239.74 93.934 240.231C92.6997 241.633 91.5841 243.134 90.5985 244.718C87.3271 249.943 85.6114 255.977 85.6491 262.125V262.348L85.0305 262.401C84.0924 256.365 81.2704 250.772 76.9608 246.406C75.1456 244.645 73.1673 243.056 71.052 241.661C71.225 241.707 71.3888 241.782 71.5362 241.883C71.993 242.109 72.4361 242.361 72.8632 242.639C74.4536 243.632 75.9299 244.794 77.2657 246.104C81.7632 250.458 84.709 256.144 85.6581 262.303L85.0484 262.348V262.125C85.0021 255.865 86.8103 249.729 90.2489 244.478C91.2725 242.885 92.4528 241.397 93.7726 240.035C94.2299 239.546 94.6692 239.218 94.8844 238.978C95.0996 238.738 95.2789 238.676 95.2879 238.676Z" fill="#263238"/>
<path d="M317.088 185.858C317.088 185.902 316.335 185.6 314.945 185.298C312.986 184.874 310.968 184.796 308.982 185.067C306.023 185.452 303.23 186.642 300.912 188.506C298.09 190.789 296.1 193.926 295.246 197.436V197.534L295.075 198.174L294.833 197.569C293.454 194.238 291.083 191.401 288.037 189.439C285.555 187.835 282.699 186.889 279.743 186.693C277.751 186.554 275.749 186.737 273.816 187.235C272.444 187.59 271.727 187.901 271.709 187.866C271.869 187.764 272.041 187.68 272.22 187.617C272.725 187.404 273.243 187.223 273.771 187.075C276.191 186.37 278.735 186.185 281.233 186.535C283.731 186.884 286.124 187.759 288.252 189.101C291.381 191.096 293.819 193.992 295.237 197.401H294.824V197.303C295.698 193.7 297.751 190.485 300.661 188.159C302.653 186.588 304.984 185.494 307.473 184.964C309.962 184.434 312.54 184.481 315.008 185.102C315.542 185.228 316.066 185.391 316.577 185.591C316.752 185.67 316.923 185.759 317.088 185.858Z" fill="#263238"/>
<path d="M376.723 153.424C376.723 153.424 376.301 153.309 375.539 153.157C374.466 152.935 373.361 152.902 372.275 153.06C370.671 153.277 369.159 153.932 367.909 154.952C366.37 156.193 365.286 157.901 364.824 159.813V159.866L364.663 160.506L364.412 159.902C363.665 158.083 362.377 156.533 360.718 155.459C359.377 154.587 357.834 154.067 356.235 153.948C355.146 153.865 354.05 153.952 352.989 154.206C352.236 154.393 351.832 154.553 351.823 154.517C351.908 154.453 352.001 154.402 352.101 154.366C352.374 154.239 352.656 154.133 352.944 154.046C354.282 153.645 355.691 153.535 357.076 153.722C358.46 153.909 359.788 154.389 360.969 155.13C362.713 156.229 364.07 157.837 364.851 159.733H364.439V159.68C364.922 157.678 366.064 155.893 367.685 154.606C368.788 153.741 370.079 153.141 371.456 152.854C372.833 152.567 374.258 152.601 375.62 152.953C375.926 153.028 376.226 153.126 376.516 153.246C376.594 153.295 376.664 153.355 376.723 153.424Z" fill="#263238"/>
<path d="M337.728 140.148C337.728 140.148 337.325 140.611 336.58 141.437C335.548 142.611 334.613 143.865 333.783 145.187C331.04 149.559 329.601 154.611 329.632 159.76V159.946H329.192C328.77 157.177 327.859 154.503 326.502 152.047C325.403 150.043 324.027 148.2 322.414 146.573C321.319 145.465 320.117 144.465 318.827 143.587C318.341 143.289 317.871 142.966 317.419 142.619C317.557 142.668 317.689 142.731 317.814 142.805C318.065 142.956 318.46 143.143 318.917 143.445C320.245 144.279 321.478 145.253 322.593 146.351C326.333 149.999 328.785 154.745 329.587 159.884H329.156V159.697C329.125 154.468 330.63 149.343 333.487 144.947C334.346 143.627 335.33 142.392 336.428 141.259C336.805 140.842 337.136 140.566 337.325 140.371C337.45 140.282 337.586 140.207 337.728 140.148Z" fill="#263238"/>
<path d="M162.356 165.215H237.395C240.282 165.215 240.282 160.772 237.395 160.772H162.356C159.469 160.772 159.46 165.215 162.356 165.215Z" fill="#455A64"/>
<path d="M164.947 80.2842H159.567V421.485H164.947V80.2842Z" fill="#455A64"/>
<path d="M164.669 421.486C164.544 421.486 164.436 345.147 164.436 251C164.436 156.854 164.544 80.5063 164.669 80.5063C164.795 80.5063 164.903 156.827 164.903 251C164.903 345.173 164.768 421.486 164.669 421.486Z" fill="#263238"/>
<path d="M162.356 130.694H237.395C240.282 130.694 240.282 126.251 237.395 126.251H162.356C159.469 126.251 159.46 130.694 162.356 130.694Z" fill="#455A64"/>
<path d="M240.031 80.9771H234.651V421.476H240.031V80.9771Z" fill="#455A64"/>
<path d="M234.786 378.584C234.652 378.584 234.553 312.091 234.553 230.083C234.553 148.075 234.652 81.5637 234.786 81.5637C234.921 81.5637 235.019 148.048 235.019 230.083C235.019 312.118 234.912 378.584 234.786 378.584Z" fill="#263238"/>
<path d="M162.257 392.633H237.341C240.219 392.633 240.228 388.19 237.341 388.19H162.257C159.379 388.19 159.37 392.633 162.257 392.633Z" fill="#455A64"/>
<path d="M163.872 323.758H234.41C237.297 323.758 237.297 319.315 234.41 319.315H163.872C160.984 319.315 160.975 323.758 163.872 323.758Z" fill="#455A64"/>
<path d="M162.257 275.623H237.341C240.219 275.623 240.228 271.18 237.341 271.18H162.257C159.379 271.18 159.37 275.623 162.257 275.623Z" fill="#455A64"/>
<path d="M162.257 237.654H237.341C240.219 237.654 240.228 233.211 237.341 233.211H162.257C159.379 233.211 159.37 237.654 162.257 237.654Z" fill="#455A64"/>
<path d="M162.257 200.582H237.341C240.219 200.582 240.228 196.139 237.341 196.139H162.257C159.379 196.139 159.37 200.582 162.257 200.582Z" fill="#455A64"/>
<path d="M162.975 359.248H234.338C237.225 359.248 237.225 354.805 234.338 354.805H162.975C160.088 354.805 160.088 359.248 162.975 359.248Z" fill="#455A64"/>
<path d="M224.062 135.332L219.507 125.282C219.507 125.282 219.75 119.951 218.978 119.453C217.92 118.831 217.66 119.347 217.365 121.142L216.943 123.807C216.943 123.807 215.204 120.049 213.581 119.898C212.478 119.791 212.164 121.675 212.164 121.675C212.164 121.675 210.326 119.977 209.026 120.386C207.726 120.795 208.129 122.554 208.129 122.554C207.944 122.43 207.734 122.349 207.513 122.318C207.292 122.286 207.066 122.305 206.854 122.373C206.641 122.44 206.447 122.555 206.286 122.708C206.125 122.861 206.001 123.049 205.924 123.256C205.161 125.096 208.506 127.886 209.017 129.121C210.084 131.698 207.815 131.787 207.815 131.787C207.815 131.787 201.996 131.049 202.292 132.533C202.588 134.017 204.534 134.008 206.031 134.159C207.268 134.284 211.949 135.439 213.464 135.812C213.782 135.894 214.085 136.026 214.361 136.203L217.84 139.758L224.062 135.332Z" fill="#FFBE9D"/>
<path d="M221.704 366.153L221.507 391.958L207.457 392.126L207.6 366.277L221.704 366.153Z" fill="#FF725E"/>
<path d="M214.576 391.069C214.45 391.069 214.477 385.417 214.576 378.451C214.674 371.484 214.934 365.842 215.051 365.842C215.168 365.842 215.15 371.493 215.006 378.46C214.863 385.426 214.692 391.069 214.576 391.069Z" fill="#263238"/>
<path d="M207.501 383.871C207.588 383.664 207.712 383.474 207.869 383.311C208.244 382.831 208.667 382.391 209.133 381.996C209.818 381.394 210.588 380.894 211.419 380.512C212.868 379.835 214.497 379.634 216.069 379.942C217.641 380.249 219.072 381.047 220.152 382.218C220.564 382.676 220.905 383.191 221.166 383.747C221.276 383.942 221.349 384.156 221.381 384.378C220.951 383.688 220.465 383.034 219.928 382.423C218.543 381.034 216.662 380.242 214.692 380.219C212.719 380.257 210.82 380.966 209.312 382.227C208.138 383.16 207.564 383.916 207.501 383.871Z" fill="#263238"/>
<path opacity="0.3" d="M207.465 375.616L207.448 378.46H221.704V375.616H207.465Z" fill="black"/>
<path d="M207.457 392.126L207.474 389.434L221.525 389.443L221.507 391.957L207.457 392.126Z" fill="#E0E0E0"/>
<path d="M192.232 299.197L192.043 323.953L178.567 324.122L178.701 299.313L192.232 299.197Z" fill="#FF725E"/>
<path d="M185.39 323.092C185.283 323.092 185.301 317.671 185.435 310.989C185.57 304.307 185.776 298.886 185.884 298.886C185.991 298.886 185.982 304.307 185.839 310.998C185.695 317.689 185.507 323.092 185.39 323.092Z" fill="#263238"/>
<path d="M178.612 316.187C178.612 316.187 178.711 315.983 178.962 315.654C179.325 315.194 179.733 314.772 180.181 314.392C180.837 313.816 181.574 313.337 182.369 312.971C183.759 312.317 185.325 312.124 186.835 312.42C188.344 312.716 189.718 313.485 190.752 314.614C191.144 315.051 191.47 315.542 191.721 316.072C191.831 316.26 191.901 316.469 191.927 316.685C191.523 316.019 191.058 315.391 190.537 314.81C189.208 313.475 187.4 312.715 185.507 312.695C183.62 312.729 181.802 313.407 180.36 314.614C179.222 315.512 178.666 316.241 178.612 316.187Z" fill="#263238"/>
<path opacity="0.3" d="M178.567 308.27L178.558 310.998H192.232V308.27H178.567Z" fill="black"/>
<path d="M178.567 324.122L178.576 321.537H192.061L192.043 323.954L178.567 324.122Z" fill="#E0E0E0"/>
<path d="M194.805 133.218L195.164 133.129C195.733 132.18 196.532 131.386 197.489 130.82C198.445 130.254 199.529 129.933 200.642 129.885C202.888 129.828 205.07 130.634 206.73 132.134C207.887 133.155 208.802 134.417 209.958 135.421C210.504 135.966 211.168 136.38 211.9 136.633C212.632 136.885 213.412 136.969 214.181 136.879C214.361 137.438 213.285 137.767 213.374 138.345C213.41 138.482 213.486 138.606 213.593 138.699C213.7 138.793 213.833 138.852 213.975 138.869C214.387 138.9 214.801 138.9 215.213 138.869C215.419 138.853 215.626 138.902 215.803 139.009C215.98 139.116 216.118 139.275 216.199 139.464C216.235 139.664 216.216 139.87 216.145 140.06C215.754 141.829 214.911 143.469 213.697 144.823C213.085 145.491 212.318 146.002 211.462 146.312C210.606 146.622 209.687 146.72 208.784 146.6C207.381 146.213 206.095 145.493 205.036 144.503L198.58 139.376C197.555 138.629 196.633 137.754 195.836 136.772C195.033 135.768 194.663 134.491 194.805 133.218Z" fill="#263238"/>
<path d="M196.15 133.573C195.282 132.85 194.252 132.344 193.146 132.098C192.594 131.981 192.024 131.974 191.469 132.08C190.915 132.185 190.387 132.4 189.918 132.711C189.13 133.403 188.464 134.22 187.946 135.128C187.684 135.581 187.334 135.977 186.915 136.293C186.496 136.609 186.017 136.838 185.507 136.967C185.324 136.968 185.146 137.024 184.996 137.127C184.754 137.35 184.924 137.785 185.22 137.918C185.531 138.021 185.868 138.021 186.179 137.918C185.662 138.518 184.947 138.918 184.162 139.047C184.263 139.419 184.508 139.736 184.843 139.931C185.179 140.126 185.578 140.181 185.955 140.086C185.607 141.284 185.408 142.52 185.363 143.765C185.326 145.023 185.756 146.25 186.574 147.213C187.47 148.217 189.04 148.777 189.452 150.092" fill="#263238"/>
<path d="M205.197 177.487L188.412 177.274L190.286 163.056C190.286 163.056 189.139 162.808 189.067 156.641C188.995 150.474 188.699 139.98 188.699 139.98C192.236 138.477 196.114 137.937 199.932 138.417C203.75 138.896 207.369 140.378 210.416 142.708L211.312 143.41L205.197 177.487Z" fill="#FFBE9D"/>
<path d="M209.393 151.025C209.501 150.972 213.661 149.763 213.527 153.984C213.392 158.205 209.151 157.201 209.151 157.076C209.151 156.952 209.393 151.025 209.393 151.025Z" fill="#FFBE9D"/>
<path d="M189.425 150.136C189.318 150.092 185.525 149.079 185.668 153.299C185.812 157.52 190.044 156.516 190.044 156.392C190.044 156.267 189.425 150.136 189.425 150.136Z" fill="#FFBE9D"/>
<path d="M210.765 150.554C210.137 154.108 210.263 155.939 209.671 158.303C208.775 162.043 206.874 164.905 203.475 166.771C200.077 168.637 195.495 168.601 192.59 166.06C190.543 164.492 189.194 162.193 188.833 159.653C188.529 156.987 187.74 152.011 187.722 149.346C187.722 144.529 187.856 140.211 187.856 140.211L201.718 137.714L209.608 142.37L210.765 150.554Z" fill="#263238"/>
<path d="M196.464 168.903C197.251 169.134 198.077 169.207 198.893 169.117C199.709 169.027 200.499 168.776 201.216 168.379C201.216 168.272 200.158 168.592 198.849 168.734C197.54 168.877 196.482 168.788 196.464 168.903Z" fill="#263238"/>
<path d="M210.102 156.561C210.505 152.935 210.765 148.795 211.339 145.009C211.707 143.387 211.908 141.731 211.94 140.069C211.814 138.62 211.411 139.064 210.765 137.749C209.958 136.114 206.883 135.021 205.081 134.666C203.278 134.31 203.054 132.755 201.673 133.955C201.172 133.189 200.445 132.594 199.591 132.252C198.737 131.91 197.798 131.837 196.9 132.043C196.003 132.248 195.191 132.723 194.576 133.403C193.96 134.082 193.571 134.932 193.46 135.839C192.961 135.372 192.322 135.081 191.64 135.01C190.958 134.939 190.271 135.092 189.686 135.445C189.1 135.799 188.648 136.333 188.398 136.966C188.148 137.599 188.116 138.296 188.305 138.949C187.808 139.039 187.341 139.25 186.946 139.562C186.551 139.873 186.24 140.277 186.04 140.737C185.841 141.197 185.759 141.699 185.802 142.197C185.845 142.696 186.012 143.177 186.287 143.596C186.933 144.574 188.08 145.116 188.798 146.049C189.181 146.597 189.402 147.241 189.433 147.907C189.465 148.573 189.307 149.235 188.977 149.816" fill="#263238"/>
<path d="M192.232 155.805C192.033 157.061 192.201 158.347 192.716 159.511C193.109 160.721 193.839 161.796 194.823 162.612C194.143 161.581 193.544 160.499 193.03 159.378C192.672 158.209 192.405 157.015 192.232 155.805Z" fill="#455A64"/>
<path d="M190.367 152.731C189.927 153.789 189.833 154.958 190.098 156.072C190.243 157.208 190.749 158.269 191.541 159.102C191.095 158.102 190.741 157.064 190.483 156.001C190.353 154.916 190.314 153.822 190.367 152.731Z" fill="#455A64"/>
<path d="M207.806 138.14C206.802 136.448 205.292 135.106 203.484 134.302C202.576 133.917 201.581 133.779 200.601 133.901C199.622 134.023 198.692 134.4 197.907 134.995" fill="#263238"/>
<path d="M207.483 147.479C207.412 147.479 207.483 146.991 207.618 146.235C207.818 145.273 207.926 144.294 207.941 143.312C207.943 142.343 207.725 141.387 207.304 140.513C206.972 139.855 206.64 139.509 206.694 139.455C206.748 139.402 207.169 139.669 207.591 140.344C208.139 141.238 208.424 142.266 208.416 143.312C208.406 144.331 208.245 145.342 207.941 146.315C207.734 147.062 207.546 147.497 207.483 147.479Z" fill="#455A64"/>
<path d="M204.614 148.874C204.707 148.203 204.894 147.548 205.17 146.928C205.304 146.262 205.534 145.619 205.852 145.018C206.007 145.71 205.931 146.433 205.636 147.079C205.287 148.172 204.731 148.928 204.614 148.874Z" fill="#455A64"/>
<path d="M191.299 147.79C190.856 147.381 190.528 146.863 190.349 146.289C189.788 144.933 189.641 143.443 189.928 142.006C190.225 140.572 190.935 139.254 191.972 138.211C192.366 137.749 192.872 137.395 193.442 137.181C193.487 137.252 192.922 137.634 192.232 138.442C191.314 139.482 190.687 140.742 190.413 142.097C190.139 143.452 190.229 144.854 190.672 146.164C191.004 147.151 191.371 147.755 191.299 147.79Z" fill="#455A64"/>
<path d="M206.461 132.098C205.983 131.964 205.522 131.773 205.09 131.529C204.048 131.018 202.907 130.739 201.745 130.712C201.178 130.7 200.615 130.807 200.093 131.026C199.571 131.245 199.101 131.571 198.714 131.982C198.423 132.361 198.162 132.762 197.934 133.182C197.919 132.923 197.957 132.664 198.044 132.42C198.132 132.175 198.269 131.951 198.446 131.76C198.789 131.31 199.23 130.942 199.737 130.685C200.359 130.381 201.043 130.223 201.736 130.223C202.975 130.244 204.188 130.587 205.251 131.218C205.708 131.431 206.119 131.729 206.461 132.098Z" fill="#455A64"/>
<path d="M187.498 136.008C187.444 136.008 187.543 135.519 187.991 134.888C188.587 134.075 189.439 133.482 190.413 133.2C191.386 132.919 192.427 132.966 193.371 133.333C194.079 133.626 194.42 133.973 194.384 134.017C194 133.923 193.622 133.804 193.254 133.662C192.365 133.405 191.42 133.405 190.531 133.661C189.641 133.918 188.844 134.42 188.233 135.11C187.776 135.599 187.569 136.043 187.498 136.008Z" fill="#455A64"/>
<path d="M192.071 151.514C192.071 151.451 192.752 151.274 193.864 150.776C195.371 150.101 196.751 149.175 197.943 148.039L198.741 147.266L198.302 148.288C198.03 148.934 197.828 149.607 197.701 150.296C197.639 150.643 197.585 151.078 197.701 151.14C197.818 151.203 198.177 151.052 198.499 150.829C199.572 150.145 200.533 149.303 201.351 148.332L202.086 147.444L201.754 148.528L200.813 151.549L200.49 151.363C201.518 150.34 202.421 149.201 203.18 147.968C203.085 148.356 202.924 148.726 202.705 149.061C202.172 150.007 201.508 150.875 200.732 151.638L200.212 152.153L200.418 151.442C200.678 150.554 200.965 149.496 201.315 148.404L201.718 148.617C200.881 149.653 199.886 150.552 198.768 151.283C198.592 151.396 198.409 151.5 198.221 151.594C198.099 151.665 197.96 151.702 197.818 151.702C197.676 151.702 197.537 151.665 197.414 151.594C197.313 151.503 197.235 151.389 197.188 151.262C197.141 151.135 197.127 150.999 197.145 150.865C197.145 150.643 197.199 150.474 197.226 150.278C197.365 149.556 197.587 148.853 197.89 148.181L198.257 148.43C197.009 149.589 195.544 150.495 193.945 151.096C193.348 151.339 192.715 151.48 192.071 151.514Z" fill="#455A64"/>
<path d="M200.185 135.243C200.039 134.994 199.846 134.775 199.615 134.599C199.384 134.424 199.121 134.295 198.84 134.221C198.273 134.093 197.685 134.093 197.118 134.221C195.717 134.485 194.45 135.219 193.532 136.301C193.325 136.541 193.137 136.923 193.361 137.189C193.495 137.297 193.664 137.354 193.836 137.349C195.93 137.521 198.037 137.446 200.113 137.127" fill="#263238"/>
<path d="M172.775 259.157C173.053 259.655 176.451 270.922 183.947 272.833C191.443 274.743 214.8 273.473 215.437 272.833C216.073 272.193 222.941 268.443 226.259 260.659C229.576 252.875 205.753 239.289 205.753 239.289L172.775 259.157Z" fill="#263238"/>
<path d="M230.222 262.205L230.428 268.488C230.428 269.456 230.312 274.326 230.204 275.285L227.29 314.303C227.003 314.188 225.309 338.295 225.165 346.755C225.022 354.894 224.331 377.038 224.331 377.038H205.161L203.87 340.375L203.063 300.69L201.88 272.922L230.222 262.205Z" fill="#263238"/>
<path d="M172.775 252.946C172.775 252.946 173.196 253.568 173.098 262.205C173.026 268.807 177.07 309.505 177.07 309.505L193.433 309.016L196.706 268.256L172.775 252.946Z" fill="#263238"/>
<path d="M203.386 273.41C202.935 273.511 202.476 273.573 202.014 273.597C201.117 273.695 199.844 273.81 198.248 273.908C194.083 274.239 189.892 273.997 185.794 273.188C181.624 272.391 177.876 270.148 175.223 266.862C174.454 265.856 173.849 264.738 173.43 263.547C173.316 263.224 173.223 262.895 173.152 262.561C173.098 262.33 173.08 262.205 173.098 262.205C173.644 263.805 174.45 265.306 175.483 266.648C178.149 269.795 181.823 271.941 185.893 272.726C189.953 273.525 194.097 273.824 198.23 273.615L202.005 273.446C202.463 273.392 202.926 273.38 203.386 273.41Z" fill="#455A64"/>
<path d="M222.789 272.629C222.114 272.893 221.41 273.078 220.691 273.179C217.258 273.831 213.767 274.128 210.272 274.068C209.547 274.09 208.822 274.03 208.111 273.89C208.825 273.77 209.548 273.719 210.272 273.739C211.599 273.686 213.437 273.597 215.463 273.419C217.49 273.242 219.319 273.02 220.637 272.833C221.346 272.694 222.067 272.626 222.789 272.629Z" fill="#455A64"/>
<path d="M222.233 279.773C221.302 279.771 220.374 279.679 219.462 279.497C217.767 279.249 215.436 278.813 212.89 278.191C210.343 277.569 208.075 276.876 206.452 276.316C205.56 276.054 204.695 275.709 203.87 275.285C204.783 275.46 205.682 275.701 206.56 276.005C208.2 276.485 210.478 277.125 213.006 277.782C215.535 278.44 217.857 278.875 219.534 279.213C220.446 279.332 221.349 279.519 222.233 279.773Z" fill="#455A64"/>
<path d="M217.669 143.081C216.965 141.652 216.175 140.266 215.302 138.931C215.302 138.931 220.592 133.377 223.775 133.546L226.797 137.687L217.669 143.081Z" fill="white"/>
<path d="M242.721 160.542C241.564 156.987 227.066 136.239 227.066 136.239C221.686 136.239 216.503 142.663 216.503 142.663L226.806 164.167L215.974 174.048L228.204 188.364C228.204 188.364 235.924 178.793 238.238 175.328C243.393 167.588 243.869 164.114 242.721 160.542Z" fill="#FF725E"/>
<path opacity="0.3" d="M172.309 258.011C172.309 258.011 173.519 266.008 180.262 268.363C187.005 270.718 202.579 268.363 202.579 268.363L204.372 262.543L206.309 269.412L230.402 266.355L230.061 260.899L204.525 250.387L172.309 258.011Z" fill="black"/>
<path d="M224.842 231.398C224.331 228.572 223.677 227.142 223.551 225.436C223.166 220.344 223.193 208.135 223.551 206.571C224.009 204.518 228.196 188.364 228.196 188.364L226.77 175.852L208.981 172.92L207.735 170.076C207.735 170.076 195.863 167.028 188.358 171.027L187.058 174.066L182.423 175.221C181.723 175.497 178.092 176.501 175.339 177.238C173.822 177.638 172.411 178.363 171.206 179.36C170.001 180.358 169.031 181.605 168.364 183.014C167.89 184.036 167.474 185.083 167.117 186.151C165.889 189.759 158.823 209.699 158.51 215.777C158.142 222.885 164.49 223.125 168.373 222.219C172.255 221.312 176.505 212.711 176.505 212.711L178.944 229.541C178.587 231.838 178.02 234.099 177.249 236.294C174.882 242.692 171.475 255.07 171.475 255.07C172.802 259.193 177.626 265.733 180.154 266.622C182.683 267.51 199.584 266.791 199.584 266.791L204.57 253.684L209.169 267.466L233.154 263.76L224.842 231.398Z" fill="#FF725E"/>
<path d="M204.542 226.546C204.605 226.653 201.153 228.919 196.831 231.593C194.258 233.279 191.6 234.836 188.869 236.258C191.352 234.446 193.926 232.758 196.58 231.202C199.153 229.517 201.81 227.963 204.542 226.546Z" fill="#263238"/>
<path d="M198.23 233.459C198.293 233.566 194.644 235.983 190.026 238.862C185.409 241.741 181.652 243.98 181.58 243.874C181.508 243.767 185.166 241.35 189.784 238.471C194.402 235.592 198.159 233.344 198.23 233.459Z" fill="#263238"/>
<path d="M217.194 214.621C216.532 216.272 215.554 217.78 214.315 219.064C213.194 220.442 211.811 221.589 210.245 222.441C210.155 222.334 212.038 220.921 213.966 218.762C215.894 216.603 217.068 214.55 217.194 214.621Z" fill="#263238"/>
<path d="M217.669 216.87C217.484 217.496 217.212 218.094 216.862 218.647C216.105 220.026 215.254 221.353 214.316 222.619C213.373 223.874 212.342 225.061 211.231 226.173C210.805 226.673 210.307 227.107 209.752 227.462C209.653 227.364 211.76 225.249 213.939 222.308C216.118 219.367 217.553 216.799 217.669 216.87Z" fill="#263238"/>
<path d="M218.234 238.676C218.372 237.869 218.579 237.075 218.853 236.303C219.274 234.855 219.83 232.847 220.359 230.598C220.888 228.35 221.256 226.315 221.542 224.823C221.645 224.012 221.81 223.21 222.036 222.423C222.072 223.245 222.015 224.067 221.865 224.876C221.616 226.827 221.263 228.764 220.807 230.678C220.359 232.604 219.812 234.505 219.166 236.374C218.937 237.172 218.625 237.943 218.234 238.676Z" fill="#263238"/>
<path d="M227.066 186.399C226.94 186.471 225.344 183.734 222.932 180.686C220.521 177.638 218.243 175.425 218.342 175.354C218.933 175.727 219.47 176.179 219.938 176.696C221.143 177.863 222.266 179.11 223.3 180.428C224.336 181.745 225.282 183.128 226.133 184.569C226.524 185.136 226.838 185.751 227.066 186.399Z" fill="#263238"/>
<path d="M230.912 180.073C229.888 178.636 228.683 177.334 227.326 176.199C225.885 175.18 224.318 174.35 222.663 173.728C223.202 173.72 223.736 173.823 224.232 174.03C226.695 174.853 228.801 176.483 230.204 178.651C230.534 179.073 230.775 179.557 230.912 180.073Z" fill="#263238"/>
<path d="M178.917 229.505C178.791 229.505 177.348 220.326 175.707 208.97C174.066 197.614 172.829 188.381 172.963 188.363C173.098 188.346 174.524 197.542 176.173 208.899C177.823 220.255 179.043 229.478 178.917 229.505Z" fill="#263238"/>
<path d="M209.232 172.92C208.14 172.946 207.048 172.916 205.959 172.831C203.933 172.751 201.144 172.715 198.06 172.831C194.976 172.946 192.205 173.293 190.205 173.569C189.129 173.765 188.042 173.905 186.951 173.986C187.224 173.869 187.51 173.783 187.802 173.728C188.349 173.595 189.156 173.426 190.152 173.249C192.76 172.785 195.395 172.488 198.042 172.36C200.687 172.229 203.337 172.262 205.977 172.458C206.99 172.538 207.77 172.627 208.371 172.707C208.666 172.741 208.955 172.813 209.232 172.92Z" fill="#263238"/>
<g opacity="0.3">
<path d="M176.568 213.315C175.617 206.206 174.308 199.097 173.358 191.989C170.766 198.982 172.192 207.237 176.568 213.315Z" fill="black"/>
</g>
<g opacity="0.3">
<path d="M226.635 163.892C228.318 162.306 230.466 161.292 232.768 160.995C233.307 160.878 233.865 160.875 234.406 160.985C234.946 161.095 235.458 161.316 235.906 161.635C236.005 161.706 236.085 161.799 236.14 161.908C236.194 162.016 236.222 162.136 236.22 162.257C236.194 162.374 236.131 162.481 236.041 162.562C235.951 162.643 235.839 162.694 235.718 162.71C235.479 162.759 235.231 162.759 234.992 162.71C232.239 162.221 229.253 163.021 226.644 164.016" fill="black"/>
</g>
<g opacity="0.3">
<path d="M187.964 174.137C190.275 174.7 192.673 174.821 195.029 174.492C199.214 174.131 203.38 173.592 207.528 172.875C200.856 171.98 194.072 172.357 187.542 173.986" fill="black"/>
</g>
<g opacity="0.3">
<path d="M187.184 240.701C196.673 238.046 205.193 232.748 211.734 225.435C204.22 230.136 194.491 235.53 187.184 240.701Z" fill="black"/>
</g>
<path d="M232.446 162.834C231.375 162.789 230.304 162.873 229.254 163.083C228.244 163.444 227.283 163.927 226.393 164.523C226.349 164.523 226.546 164.158 227.012 163.758C227.623 163.237 228.343 162.855 229.119 162.639C229.898 162.422 230.714 162.374 231.513 162.497C232.123 162.603 232.464 162.781 232.446 162.834Z" fill="#263238"/>
</svg>
