<svg width="180" height="180" viewBox="0 0 180 180" fill="none" xmlns="http://www.w3.org/2000/svg">
<g clip-path="url(#clip0_2_76)">
<rect width="180" height="180" fill="white"/>
<rect width="180" height="180" fill="#F18D8D"/>
<rect width="180" height="180" fill="url(#paint0_linear_2_76)"/>
<g opacity="0.4">
<mask id="mask0_2_76" style="mask-type:luminance" maskUnits="userSpaceOnUse" x="0" y="0" width="180" height="180">
<rect width="180" height="180" fill="white"/>
</mask>
<g mask="url(#mask0_2_76)">
<path opacity="0.5" fill-rule="evenodd" clip-rule="evenodd" d="M124.13 159.707C131.734 155.969 138.64 151.028 144.598 145.127L167.101 167.63H124.13V159.707ZM90.3802 167.63V167.621C102.182 167.564 113.371 164.864 123.38 160.076V167.63H90.3802ZM56.6303 167.63V160.076C66.6398 164.864 77.8283 167.564 89.6303 167.621V167.63H56.6303ZM12.9112 167.63L35.4127 145.127C41.3707 151.028 48.2782 155.969 55.8802 159.707V167.63H12.9112ZM20.3033 124.13C24.0413 131.734 28.9823 138.64 34.8833 144.598L12.3803 167.101V124.13H20.3033ZM12.3803 90.3801H12.3893C12.4463 102.184 15.1463 113.371 19.9342 123.38H12.3803V90.3801ZM12.3803 56.6301H19.9342C15.1463 66.6396 12.4463 77.8281 12.3893 89.6301H12.3803V56.6301ZM12.3803 12.9111L34.8833 35.4126C28.9823 41.3706 24.0413 48.2781 20.3033 55.8801H12.3803V12.9111ZM55.8802 20.3031C48.2782 24.0411 41.3707 28.9821 35.4127 34.8831L12.9112 12.3801H55.8802V20.3031ZM89.6303 12.3801V12.3891C77.8283 12.4461 66.6398 15.1476 56.6303 19.9341V12.3801H89.6303ZM123.38 12.3801V19.9341C113.371 15.1476 102.182 12.4461 90.3802 12.3891V12.3801H123.38ZM167.101 12.3801L144.598 34.8831C138.64 28.9821 131.734 24.0411 124.13 20.3031V12.3801H167.101ZM159.707 55.8801C155.971 48.2781 151.03 41.3706 145.129 35.4126L167.63 12.9111V55.8801H159.707ZM167.63 89.6301H167.621C167.566 77.8281 164.864 66.6396 160.078 56.6301H167.63V89.6301ZM167.63 123.38H160.078C164.864 113.371 167.566 102.184 167.621 90.3801H167.63V123.38ZM124.661 124.13H158.864C155.185 131.528 150.355 138.254 144.598 144.067L124.661 124.13ZM124.13 124.66L144.068 144.598C138.254 150.355 131.528 155.183 124.13 158.864V124.66ZM90.3802 138.371C103.165 138.272 114.776 133.189 123.38 124.973V159.25C113.387 164.086 102.194 166.814 90.3802 166.871V138.371ZM56.6303 124.973C65.2343 133.189 76.8458 138.272 89.6303 138.371V166.871C77.8163 166.814 66.6233 164.086 56.6303 159.25V124.973ZM55.8802 124.661V158.864C48.4837 155.183 41.7562 150.355 35.9437 144.598L55.8802 124.661ZM55.3508 124.13L35.4128 144.067C29.6558 138.254 24.8272 131.528 21.1462 124.13H55.3508ZM41.6393 90.3801C41.7383 103.165 46.8218 114.776 55.0373 123.38H20.7608C15.9248 113.387 13.1963 102.194 13.1393 90.3801H41.6393ZM55.0373 56.6301C46.8218 65.2341 41.7383 76.8456 41.6393 89.6301H13.1393C13.1963 77.8161 15.9248 66.6231 20.7623 56.6301H55.0373ZM55.3508 55.8801H21.1462C24.8272 48.4836 29.6558 41.7561 35.4128 35.9436L55.3508 55.8801ZM55.8802 55.3491L35.9437 35.4126C41.7562 29.6556 48.4837 24.8271 55.8802 21.1461V55.3491ZM89.6303 41.6391C76.8458 41.7381 65.2343 46.8216 56.6303 55.0371V20.7621C66.6233 15.9246 77.8163 13.1961 89.6303 13.1391V41.6391ZM123.38 55.0371C114.776 46.8216 103.165 41.7381 90.3802 41.6391V13.1391C102.194 13.1961 113.387 15.9246 123.38 20.7621V55.0371ZM124.13 55.3506V21.1461C131.528 24.8271 138.254 29.6556 144.068 35.4126L124.13 55.3506ZM124.661 55.8801L144.598 35.9436C150.355 41.7561 155.183 48.4836 158.864 55.8801H124.661ZM138.371 89.6301C138.274 76.8456 133.189 65.2341 124.973 56.6301H159.25C164.086 66.6231 166.814 77.8161 166.871 89.6301H138.371ZM138.371 90.3801H166.871C166.814 102.194 164.086 113.387 159.25 123.38H124.973C133.189 114.776 138.274 103.165 138.371 90.3801ZM90.3802 124.13H123.178C114.679 132.395 103.12 137.522 90.3802 137.621V124.13ZM89.6302 124.13V137.621C76.8907 137.522 65.3317 132.395 56.8327 124.13H89.6302ZM55.8803 90.3801V123.178C47.6168 114.679 42.4897 103.12 42.3893 90.3801H55.8803ZM55.8803 89.6301H42.3893C42.4897 76.8906 47.6168 65.3316 55.8803 56.8326V89.6301ZM89.6302 55.8801H56.8327C65.3317 47.6166 76.8907 42.4896 89.6302 42.3891V55.8801ZM90.3802 55.8801V42.3891C103.12 42.4896 114.679 47.6166 123.178 55.8801H90.3802ZM124.13 89.6301V56.8326C132.395 65.3316 137.522 76.8906 137.621 89.6301H124.13ZM124.13 90.3801H137.621C137.522 103.12 132.395 114.679 124.13 123.179V90.3801ZM90.3802 90.9096L122.851 123.38H90.3802V90.9096ZM89.6302 90.9111V123.38H57.1612L89.6302 90.9111ZM89.1008 90.3801L56.6303 122.851V90.3801H89.1008ZM89.1008 89.6301H56.6303V57.1596L89.1008 89.6301ZM89.6302 89.0991L57.1612 56.6301H89.6302V89.0991ZM90.3802 89.1006V56.6301H122.851L90.3802 89.1006ZM123.38 90.3801V122.849L90.9112 90.3801H123.38ZM90.9112 89.6301L123.38 57.1611V89.6301H90.9112ZM167.63 167.101L145.129 144.598C151.03 138.64 155.971 131.734 159.707 124.13H167.63V167.101ZM182.036 181.505L168.911 168.38H180.38V167.63H168.38V124.13H180.38V123.38H168.38V90.3801H180.38V89.6301H168.38V56.6301H180.38V55.8801H168.38V12.3801H180.38V11.6301H168.911L180.536 0.0050993L180.005 -0.524401L168.38 11.1006V-0.369901H167.63V11.6301H124.13V-0.369901H123.38V11.6301H90.3802V-0.369901H89.6302V11.6301H56.6303V-0.369901H55.8803V11.6301H12.3803V-0.369901H11.6303V11.1006L0.00525081 -0.524401L-0.525749 0.0050993L11.1008 11.6301H-0.369749V12.3801H11.6303V55.8801H-0.369749V56.6301H11.6303V89.6301H-0.369749V90.3801H11.6303V123.38H-0.369749V124.13H11.6303V167.63H-0.369749V168.38H11.1008L-0.525749 180.005L0.00525081 180.536L11.6303 168.911V180.38H12.3803V168.38H55.8803V180.38H56.6303V168.38H89.6302V180.38H90.3802V168.38H123.38V180.38H124.13V168.38H167.63V180.38H168.38V168.911L181.505 182.036L182.036 181.505Z" fill="white"/>
</g>
</g>
<g opacity="0.4">
<rect opacity="0.720266" x="30.4102" y="7.91016" width="119.531" height="164.531" rx="12.4805" stroke="white" stroke-width="0.351562"/>
<rect opacity="0.720266" x="19.1602" y="19.1602" width="142.031" height="142.031" rx="12.4805" stroke="white" stroke-width="0.351562"/>
<rect opacity="0.720266" x="7.91016" y="30.4102" width="164.531" height="119.531" rx="12.4805" stroke="white" stroke-width="0.351562"/>
<path d="M172.441 90.1758C172.441 135.61 135.61 172.441 90.1758 172.441C44.7417 172.441 7.91016 135.61 7.91016 90.1758C7.91016 44.7417 44.7417 7.91016 90.1758 7.91016C135.61 7.91016 172.441 44.7417 172.441 90.1758Z" stroke="white" stroke-width="0.351562"/>
<path d="M127.09 90.1758C127.09 110.563 110.563 127.09 90.1758 127.09C69.7887 127.09 53.2617 110.563 53.2617 90.1758C53.2617 69.7887 69.7887 53.2617 90.1758 53.2617C110.563 53.2617 127.09 69.7887 127.09 90.1758Z" stroke="white" stroke-width="0.351562"/>
<rect x="64.1602" y="64.1602" width="52.0312" height="52.0312" stroke="white" stroke-width="0.351562"/>
<path d="M64.1602 0.175781V180.176" stroke="white" stroke-width="0.351562" stroke-linecap="square"/>
<path d="M90.1758 0V180" stroke="white" stroke-width="0.351562" stroke-linecap="square"/>
<path d="M116.191 0V180" stroke="white" stroke-width="0.351562" stroke-linecap="square"/>
<path d="M180.176 64.1602H0.175781" stroke="white" stroke-width="0.351562" stroke-linecap="square"/>
<path d="M180 90.1758H0" stroke="white" stroke-width="0.351562" stroke-linecap="square"/>
<path d="M180.176 116.191H0.175781" stroke="white" stroke-width="0.351562" stroke-linecap="square"/>
<path d="M0.175781 0.175781L180.176 180.176" stroke="white" stroke-width="0.351562" stroke-linecap="square"/>
<path d="M180.176 0.175781L0.175781 180.176" stroke="white" stroke-width="0.351562" stroke-linecap="square"/>
</g>
<rect width="180" height="180.176" fill="white"/>
<path d="M128.682 135.915C59.1986 150.744 32.517 53.6342 95.4161 39.5205C158.315 25.4069 56.1226 22.9367 57.9266 83.3984C49.9639 211.485 198.166 121.086 128.682 135.915Z" stroke="#E6534C" stroke-width="19.3359"/>
<path d="M33.7152 90.1456C47.9112 88.5707 122.967 89.059 117.425 81.1061C111.883 73.1532 78.9529 87.5207 56.1931 91.7907C28.815 96.9273 19.5192 91.7205 33.7152 90.1456Z" stroke="#E6534C" stroke-width="17.2266"/>
</g>
<defs>
<linearGradient id="paint0_linear_2_76" x1="90" y1="0" x2="90" y2="180" gradientUnits="userSpaceOnUse">
<stop stop-color="#E8EBEE"/>
<stop offset="1" stop-color="#CED3DB"/>
</linearGradient>
<clipPath id="clip0_2_76">
<rect width="180" height="180" fill="white"/>
</clipPath>
</defs>
</svg>
