<svg width="354" height="322" viewBox="0 0 354 322" fill="none" xmlns="http://www.w3.org/2000/svg">
<path d="M47.3112 123.897C60.2559 123.897 70.7495 113.984 70.7495 101.756C70.7495 89.5278 60.2559 79.615 47.3112 79.615C34.3666 79.615 23.8729 89.5278 23.8729 101.756C23.8729 113.984 34.3666 123.897 47.3112 123.897Z" fill="#EE6842"/>
<path d="M68.9273 97.9673C69.3238 97.9673 69.766 98.5291 70.0939 99.6743C70.4832 101.298 70.5453 102.977 70.2769 104.623C69.914 107.103 69.0549 109.496 67.7455 111.674C66.1393 114.412 63.8971 116.772 61.1872 118.574C58.4774 120.377 55.3704 121.576 52.0996 122.082C49.4895 122.511 46.817 122.469 44.2233 121.959C42.491 121.643 40.8379 121.02 39.3511 120.123C38.3217 119.453 37.8948 118.862 38.0473 118.516C38.3904 117.753 40.8836 118.178 44.6045 117.998C49.3027 117.84 53.8607 116.446 57.7647 113.972C61.5454 111.336 64.4693 107.753 66.2053 103.629C67.6768 100.38 68.0504 98.0177 68.9273 97.9673Z" fill="#A04C35"/>
<path d="M48.3864 107.107C50.8201 106.968 53.1164 105.995 54.8445 104.37C55.8976 103.374 56.5038 102.033 56.5372 100.625C56.4986 99.9687 56.2271 99.3438 55.7664 98.8512C55.3058 98.3585 54.6828 98.0268 53.9981 97.9097C53.0067 97.8922 52.0377 98.1889 51.2456 98.7524C50.4554 99.3276 49.5653 99.7688 48.6151 100.056C47.2427 100.351 45.8321 99.8328 44.5359 99.3358C43.2397 98.8388 41.8444 98.277 40.4567 98.5147C39.9822 98.545 39.5249 98.6945 39.1321 98.9478C38.7394 99.201 38.4254 99.5489 38.2226 99.9552C38.2226 99.9552 37.5212 101.396 38.9317 103.326C40.0311 104.67 41.4786 105.724 43.1346 106.387C44.7906 107.049 46.5993 107.297 48.3864 107.107Z" fill="white"/>
<path d="M37.7347 94.5245C37.533 94.166 37.221 93.8737 36.8399 93.6859C36.4588 93.4982 36.0265 93.424 35.5998 93.4729C35.3268 93.4751 35.061 93.5555 34.8373 93.7034C34.5078 93.9426 34.2534 94.2621 34.1016 94.6276C33.9498 94.993 33.9063 95.3907 33.9757 95.7778C34.0412 96.0368 34.1624 96.2804 34.332 96.4932C34.5015 96.7061 34.7157 96.8836 34.9611 97.0147C35.2065 97.1458 35.4779 97.2277 35.7584 97.2553C36.0388 97.2829 36.3223 97.2556 36.591 97.1751C36.8523 97.0743 37.0897 96.9253 37.2892 96.7367C37.4887 96.5482 37.6464 96.3239 37.7529 96.077C37.8595 95.8301 37.9127 95.5656 37.9096 95.299C37.9065 95.0324 37.847 94.7691 37.7347 94.5245Z" fill="white"/>
<path d="M60.0522 94.5964C59.8507 94.2373 59.5391 93.944 59.1581 93.755C58.7771 93.5661 58.3446 93.4903 57.9172 93.5376C57.6449 93.5437 57.3802 93.6237 57.1548 93.7681C56.8239 94.0079 56.5688 94.3286 56.4169 94.6955C56.2651 95.0624 56.2223 95.4615 56.2932 95.8497C56.3586 96.1088 56.4799 96.3523 56.6494 96.5651C56.8189 96.778 57.0331 96.9555 57.2785 97.0866C57.5239 97.2177 57.7953 97.2997 58.0758 97.3273C58.3562 97.3548 58.6397 97.3275 58.9085 97.247C59.1698 97.1462 59.4071 96.9972 59.6067 96.8086C59.8062 96.6201 59.9638 96.3958 60.0704 96.1489C60.1769 95.902 60.2302 95.6375 60.227 95.3709C60.2239 95.1043 60.1645 94.841 60.0522 94.5964Z" fill="white"/>
<path d="M315.617 46.9927C318.866 33.4819 309.906 20.041 295.604 16.9714C281.301 13.9019 267.073 22.3661 263.823 35.8768C260.574 49.3875 269.534 62.8285 283.837 65.898C298.139 68.9676 312.368 60.5034 315.617 46.9927Z" fill="#EE6842"/>
<path d="M313.421 38.1711C313.817 38.1711 314.26 38.805 314.58 40.0942C314.969 41.9221 315 43.8019 314.671 45.6403C314.232 48.4094 313.249 51.0768 311.774 53.5055C309.962 56.5563 307.449 59.1851 304.421 61.1992C301.393 63.2133 297.927 64.5615 294.275 65.1449C291.356 65.6443 288.364 65.6223 285.453 65.0801C283.511 64.7476 281.649 64.0863 279.956 63.1282C278.782 62.408 278.279 61.7885 278.431 61.4428C278.774 60.6721 281.572 61.2555 285.835 61.1187C288.29 61.0535 290.728 60.7052 293.093 60.0815C298.805 58.6462 303.783 55.3241 307.123 50.7181C308.538 48.8244 309.705 46.776 310.6 44.6175C312.17 40.9009 312.536 38.2144 313.421 38.1711Z" fill="#A04C35"/>
<path d="M297.706 38.3368C297.783 38.3368 297.379 39.4028 296.067 40.6344C294.34 42.2551 292.04 43.2149 289.609 43.3293C287.178 43.4437 284.788 42.7044 282.899 41.2539C281.466 40.1519 280.955 39.1579 281.031 39.0931C281.108 39.0283 281.794 39.871 283.235 40.8001C285.079 42.0406 287.312 42.6572 289.573 42.55C291.834 42.4428 293.99 41.6182 295.694 40.2095C297.02 39.1795 297.592 38.2648 297.706 38.3368Z" fill="white"/>
<path d="M278.881 33.2589C278.655 32.8521 278.304 32.5198 277.874 32.3062C277.443 32.0926 276.954 32.0079 276.472 32.0633C276.176 32.0725 275.89 32.1626 275.648 32.3225C275.276 32.5954 274.989 32.9587 274.819 33.3735C274.648 33.7884 274.6 34.2392 274.68 34.6778C274.749 34.9736 274.883 35.2525 275.073 35.4962C275.264 35.7399 275.506 35.9431 275.785 36.0925C276.064 36.2419 276.373 36.3343 276.693 36.3635C277.012 36.3928 277.334 36.3583 277.638 36.2624C277.93 36.1443 278.195 35.9724 278.416 35.7568C278.637 35.5412 278.81 35.2862 278.926 35.0066C279.041 34.7271 279.097 34.4286 279.089 34.1285C279.082 33.8284 279.011 33.5328 278.881 33.2589Z" fill="white"/>
<path d="M306.749 35.679C306.66 35.032 306.512 34.3934 306.307 33.7703C306.024 33.153 305.581 32.613 305.018 32.2001C304.319 31.7138 303.47 31.458 302.602 31.4724C301.734 31.4867 300.895 31.7703 300.215 32.2794C299.664 32.7157 299.241 33.2788 298.987 33.9144C298.804 34.5444 298.677 35.1876 298.606 35.8375C298.53 35.8807 298.103 35.074 298.446 33.7559C298.685 32.8863 299.219 32.1146 299.967 31.5588C300.714 31.003 301.633 30.6937 302.584 30.6782C303.535 30.6627 304.466 30.9418 305.233 31.4729C306 32.004 306.562 32.7578 306.833 33.6191C307.23 34.9011 306.825 35.715 306.749 35.679Z" fill="white"/>
<path d="M283.014 298.697C282.312 296.082 284.142 293.475 286.186 291.595C288.229 289.715 290.661 288.03 291.729 285.531C293.467 281.49 291.195 276.225 294.138 272.861C295.869 270.88 298.949 270.232 300.489 268.115C301.195 266.94 301.668 265.654 301.885 264.319C303.548 257.592 307.092 251.411 312.148 246.42C312.453 252.425 311.041 258.396 308.061 263.707C306.864 265.824 305.4 267.891 305.011 270.261C304.348 274.114 306.604 278.09 305.575 281.872C304.409 286.193 299.239 289.074 298.972 293.518C298.743 297.278 302.197 300.606 301.915 304.365C301.699 305.965 301.082 307.494 300.116 308.824C297.005 313.65 292.453 316.963 285.591 316.812L277.204 317.049L283.014 298.697Z" fill="#EE6842"/>
<path d="M275.465 317.229C274.705 317.334 273.931 317.314 273.178 317.172C272.247 317.037 271.333 316.815 270.448 316.509C269.231 316.101 268.095 315.505 267.086 314.744C266.481 314.275 266.009 313.671 265.713 312.987C265.46 312.22 265.331 311.421 265.332 310.617C265.321 309.763 265.262 308.909 265.157 308.06C264.998 307.152 264.653 306.281 264.142 305.496C263.159 303.847 261.527 302.284 261.009 300.044C260.49 297.804 260.871 295.47 261.276 293.086C261.68 290.702 262.076 288.109 261.123 285.624C260.17 283.139 258.409 280.885 257.501 278.076C256.594 275.267 257.051 272.206 256.876 269.202C256.822 267.679 256.457 266.18 255.801 264.787C255.13 263.383 254.2 262.05 253.468 260.566C251.996 257.563 251.752 254.17 251.363 250.85C251.175 249.174 250.985 247.482 250.792 245.772C250.677 244.052 250.373 242.348 249.884 240.687C249.332 239.008 248.67 237.362 247.902 235.761C247.509 234.93 247.19 234.07 246.949 233.189C246.81 232.282 246.724 231.368 246.69 230.452C246.609 228.617 246.695 226.778 246.949 224.957C247.185 223.127 247.551 221.312 247.765 219.475L247.81 219.158L247.856 218.791L248.199 218.957C249.97 219.817 251.509 221.049 252.698 222.558C253.857 224.046 254.784 225.683 255.45 227.42C256.838 230.834 257.318 234.414 258.005 237.828C258.691 241.242 259.568 244.605 261.405 247.458C262.32 248.898 263.426 250.173 264.394 251.556C265.424 252.908 266.127 254.457 266.453 256.093C266.925 259.457 264.928 262.396 265.34 265.37C265.53 266.835 266.05 268.245 266.864 269.505C267.627 270.78 268.511 271.961 269.358 273.149C270.217 274.308 270.965 275.537 271.592 276.823C272.172 278.084 272.513 279.432 272.598 280.806C272.789 283.485 272.369 286.028 272.56 288.426C272.781 290.711 273.472 292.932 274.596 294.966C275.602 296.925 276.723 298.697 277.646 300.418C278.112 301.242 278.532 302.088 278.904 302.954C279.237 303.766 279.479 304.608 279.628 305.467C279.869 306.971 279.882 308.499 279.666 310.005C279.426 312.1 278.582 314.093 277.226 315.767C277.02 316.025 276.79 316.266 276.54 316.487C276.372 316.654 276.185 316.804 275.984 316.934C275.671 317.15 275.503 317.244 275.503 317.244C276.107 316.8 276.654 316.293 277.135 315.731C278.435 314.055 279.226 312.075 279.422 310.005C279.624 308.521 279.598 307.017 279.346 305.539C279.183 304.698 278.927 303.875 278.584 303.083C278.233 302.262 277.821 301.427 277.318 300.577C276.372 298.87 275.244 297.105 274.215 295.139C273.056 293.072 272.339 290.811 272.103 288.484C271.897 286.028 272.308 283.485 272.103 280.863C272.013 279.536 271.677 278.235 271.111 277.017C270.49 275.756 269.75 274.551 268.9 273.416C268.054 272.242 267.154 271.053 266.376 269.75C265.528 268.433 264.99 266.959 264.798 265.428C264.417 262.252 266.376 259.291 265.888 256.166C265.57 254.604 264.89 253.129 263.898 251.844C262.945 250.483 261.832 249.186 260.894 247.731C259.003 244.8 258.096 241.379 257.417 237.943C256.739 234.507 256.243 230.964 254.878 227.614C254.228 225.927 253.327 224.336 252.202 222.889C251.063 221.432 249.587 220.24 247.887 219.403L248.275 219.209C248.275 219.31 248.275 219.418 248.275 219.526C248.054 221.384 247.688 223.199 247.452 225.014C247.205 226.807 247.121 228.617 247.2 230.423C247.231 231.31 247.31 232.195 247.437 233.074C247.676 233.924 247.987 234.755 248.367 235.559C249.137 237.179 249.804 238.841 250.365 240.536C250.858 242.225 251.165 243.958 251.28 245.707C251.47 247.414 251.661 249.114 251.844 250.785C252.225 254.127 252.469 257.462 253.887 260.357C254.589 261.798 255.527 263.138 256.22 264.593C256.893 266.039 257.266 267.594 257.318 269.173C257.478 272.235 257.044 275.231 257.905 277.953C258.767 280.676 260.582 282.923 261.489 285.487C262.396 288.052 262.038 290.767 261.626 293.137C261.215 295.506 260.78 297.847 261.314 299.965C261.847 302.082 263.372 303.652 264.364 305.352C264.889 306.165 265.239 307.068 265.393 308.01C265.501 308.873 265.554 309.741 265.553 310.61C265.547 311.393 265.666 312.172 265.904 312.922C266.183 313.572 266.625 314.148 267.192 314.6C268.177 315.358 269.287 315.957 270.479 316.372C271.346 316.694 272.245 316.935 273.162 317.092C273.729 317.189 274.303 317.244 274.878 317.258C275.259 317.222 275.465 317.229 275.465 317.229Z" fill="#E0E0E0"/>
<path d="M249.457 223.523C249.457 223.523 249.457 223.603 249.541 223.768C249.625 223.934 249.648 224.193 249.724 224.488C249.884 225.115 250.075 226.059 250.387 227.24C250.7 228.421 251.462 229.754 252.103 231.403C252.86 233.25 253.516 235.132 254.07 237.043C254.695 239.167 255.252 241.523 255.831 244.044C256.411 246.564 257.021 249.265 258.477 251.815C259.156 253.112 259.926 254.415 260.536 255.849C261.128 257.319 261.525 258.853 261.718 260.415C262.12 263.648 262.706 266.857 263.471 270.031C265.118 276.549 266.689 282.758 268.115 288.412L272.019 303.393C273.101 307.628 273.978 311.078 274.596 313.477C274.878 314.644 275.107 315.566 275.274 316.235C275.335 316.524 275.389 316.761 275.435 316.956C275.443 317.037 275.443 317.119 275.435 317.201C275.392 317.126 275.361 317.046 275.343 316.963C275.282 316.776 275.213 316.545 275.13 316.243L274.367 313.513C273.711 311.093 272.773 307.657 271.622 303.429C270.471 299.201 269.121 294.066 267.619 288.462L262.93 270.081C262.161 266.894 261.576 263.669 261.176 260.422C260.996 258.9 260.614 257.404 260.04 255.971C259.453 254.574 258.698 253.277 258.012 251.966C256.548 249.366 255.953 246.586 255.382 244.044C254.81 241.501 254.291 239.167 253.689 237.05C253.087 234.932 252.446 233.045 251.806 231.417C251.165 229.79 250.471 228.428 250.166 227.211C249.861 225.994 249.732 225.05 249.602 224.424C249.549 224.128 249.503 223.891 249.472 223.703C249.461 223.644 249.456 223.584 249.457 223.523Z" fill="#E0E0E0"/>
<path d="M273.978 317.251C268.504 314.132 266.986 304.769 269.312 299.144C271.638 293.518 275.679 288.397 276.327 282.397C276.83 277.781 275.259 273.034 276.426 268.525C277.997 262.446 284.325 257.765 284.287 251.498C284.287 247.991 282.175 244.67 282.365 241.163C282.594 236.841 286.109 233.463 288.297 229.682C291.652 223.919 291.912 217.041 293.086 210.537C294.26 204.033 296.898 197.082 303.051 193.913C303.92 199.445 305.43 203.234 304.904 210.717C304.713 213.404 301.381 218.532 300.893 224.402C300.604 227.917 300.398 231.446 300.131 234.968C299.864 238.49 299.635 241.883 298.316 245.088C297.302 247.537 295.686 249.762 294.931 252.291C293.513 257.059 295.305 262.237 294.168 267.07C293.193 271.161 290.166 274.676 289.533 278.825C288.633 284.659 292.583 290.753 290.516 296.313C289.479 299.072 287.062 301.276 286.361 304.128C285.819 306.339 286.361 308.68 285.888 310.905C285.126 314.507 277.844 317.229 273.978 316.984" fill="#EE6842"/>
<path d="M301.504 199.387C301.516 199.493 301.516 199.599 301.504 199.704C301.504 199.935 301.435 200.23 301.374 200.612C301.244 201.404 301.099 202.578 300.802 204.091C300.505 205.603 299.643 207.325 298.972 209.385C298.301 211.445 297.546 213.821 296.913 216.479C296.281 219.137 295.732 222.083 295.16 225.252C294.588 228.421 293.97 231.871 292.285 235.163C291.523 236.812 290.631 238.469 289.998 240.205C289.357 242.016 288.957 243.896 288.808 245.801C288.478 249.853 287.916 253.885 287.123 257.88C285.393 266.055 283.746 273.848 282.244 280.928C280.741 288.008 279.239 294.347 278.042 299.705C276.845 305.064 275.831 309.371 275.107 312.382C274.764 313.823 274.489 314.997 274.299 315.818C274.207 316.185 274.131 316.48 274.07 316.711C274.05 316.812 274.019 316.911 273.978 317.006C273.982 316.902 273.995 316.798 274.017 316.696C274.062 316.466 274.123 316.171 274.192 315.796C274.36 314.975 274.596 313.815 274.901 312.346L277.608 299.662C278.774 294.296 280.162 287.929 281.695 280.863C283.227 273.798 284.821 265.99 286.536 257.815C287.321 253.834 287.884 249.816 288.221 245.779C288.377 243.834 288.792 241.915 289.457 240.068C290.135 238.26 291.02 236.603 291.797 234.961C293.475 231.72 294.085 228.327 294.687 225.173C295.289 222.018 295.838 219.058 296.509 216.393C297.18 213.728 297.912 211.351 298.652 209.291C299.391 207.231 300.23 205.524 300.566 204.04C300.901 202.556 301.077 201.375 301.237 200.583L301.42 199.69C301.437 199.587 301.465 199.485 301.504 199.387Z" fill="#EBEBEB"/>
<path d="M353.42 316.445C353.42 316.546 274.298 316.633 176.718 316.633C79.1367 316.633 0 316.546 0 316.445C0 316.344 79.1138 316.257 176.71 316.257C274.306 316.257 353.42 316.337 353.42 316.445Z" fill="#455A64"/>
<path d="M170.214 128.031C160.965 136.105 154.339 153.442 152.532 164.995C150.725 176.548 149.795 188.763 143.077 198.559C141.217 201.274 138.846 204.055 139.067 207.274C139.372 211.79 144.656 214.556 149.429 214.938C154.202 215.319 159.051 214.217 163.756 215.031C172.41 216.551 179.173 224.395 187.972 224.294C194.529 224.243 200.247 219.576 203.175 214.03C206.103 208.484 206.767 202.16 207.392 196.024C209.275 177.448 210.67 164.073 212.554 145.497" fill="#EE6842"/>
<path d="M149.383 196.42C148.631 196.005 147.991 195.43 147.515 194.741C147.038 194.053 146.738 193.269 146.638 192.451C146.753 192.451 147.08 193.452 147.843 194.54C148.605 195.628 149.459 196.326 149.383 196.42Z" fill="#FAFAFA"/>
<path d="M186.942 216.465C186.773 216.484 186.601 216.484 186.432 216.465L184.975 216.385C183.709 216.299 181.925 216.162 179.638 215.939C175.132 215.5 168.925 214.707 162.147 213.425C158.938 212.894 155.777 212.131 152.692 211.142C150.165 210.308 147.834 209.016 145.83 207.339C144.479 206.203 143.38 204.825 142.597 203.284C142.392 202.866 142.216 202.435 142.071 201.995C142.012 201.844 141.974 201.686 141.957 201.526C141.957 201.526 142.17 202.16 142.719 203.219C143.535 204.712 144.645 206.045 145.99 207.145C147.992 208.766 150.303 210.013 152.799 210.818C155.878 211.783 159.028 212.531 162.223 213.058C168.986 214.333 175.185 215.168 179.668 215.672L185.006 216.241L186.454 216.385C186.62 216.394 186.784 216.421 186.942 216.465Z" fill="#FAFAFA"/>
<path d="M183.275 206.964C182.445 206.715 181.681 206.303 181.033 205.754C180.482 205.361 179.972 204.92 179.508 204.436L179.455 204.372V204.321C179.577 204.047 179.676 203.889 179.714 203.903C179.752 203.918 179.714 204.091 179.676 204.386V204.271L181.292 205.459C182.003 205.9 182.667 206.404 183.275 206.964Z" fill="#FAFAFA"/>
<path d="M161.148 144.699C161.148 144.8 160.53 144.757 160.042 144.267C159.554 143.776 159.516 143.214 159.623 143.207C159.73 143.2 159.92 143.618 160.324 144.007C160.729 144.396 161.171 144.598 161.148 144.699Z" fill="#FAFAFA"/>
<path d="M158.182 153.615C158.182 153.716 157.351 153.731 156.657 153.111C155.963 152.491 155.849 151.713 155.956 151.713C156.062 151.713 156.299 152.318 156.924 152.837C157.549 153.356 158.197 153.507 158.182 153.615Z" fill="#FAFAFA"/>
<path d="M155.75 163.634C155.75 163.685 155.536 163.735 155.185 163.692C154.734 163.622 154.311 163.435 153.965 163.151C153.613 162.877 153.349 162.516 153.203 162.107C153.096 161.79 153.119 161.581 153.203 161.574C153.287 161.566 153.523 162.294 154.263 162.863C155.002 163.432 155.757 163.526 155.75 163.634Z" fill="#FAFAFA"/>
<path d="M153.683 173.502C153.622 173.589 153.058 173.365 152.418 172.998C151.777 172.63 151.304 172.277 151.358 172.169C151.411 172.061 151.983 172.306 152.624 172.673C153.264 173.041 153.737 173.416 153.683 173.502Z" fill="#FAFAFA"/>
<path d="M151.762 184.796C151.701 184.882 151.038 184.558 150.466 183.888C149.894 183.218 149.703 182.533 149.802 182.504C149.902 182.476 150.245 183.038 150.778 183.65C151.312 184.263 151.823 184.709 151.762 184.796Z" fill="#FAFAFA"/>
<path d="M138.343 286.453L134.012 304.92L126.128 318.605C125.992 318.838 125.909 319.095 125.884 319.36C125.858 319.624 125.891 319.891 125.98 320.143C126.068 320.395 126.211 320.628 126.4 320.825C126.588 321.023 126.817 321.182 127.073 321.292C127.369 321.423 127.695 321.485 128.021 321.471C128.348 321.457 128.667 321.369 128.949 321.212C132.624 319.21 146.082 311.777 146.318 310.408C146.592 308.824 152.258 291.199 152.258 291.199L138.343 286.453Z" fill="#EE6842"/>
<g opacity="0.6">
<path d="M127.073 321.299L146.638 309.177L146.44 309.955C146.266 310.629 145.844 311.224 145.251 311.633C143.657 312.713 139.151 315.623 129.01 321.234C128.718 321.397 128.389 321.488 128.05 321.499C127.712 321.51 127.376 321.441 127.073 321.299Z" fill="white"/>
</g>
<g opacity="0.6">
<path d="M144.183 302.298C143.894 302.41 143.66 302.62 143.527 302.887C143.394 303.154 143.372 303.458 143.466 303.739C143.573 304.011 143.786 304.233 144.061 304.36C144.337 304.488 144.653 304.51 144.945 304.424C145.247 304.308 145.491 304.09 145.632 303.813C145.773 303.536 145.8 303.22 145.708 302.925C145.566 302.654 145.319 302.444 145.018 302.341C144.716 302.238 144.385 302.248 144.091 302.37" fill="white"/>
</g>
<path d="M133.608 314.299C133.343 313.589 132.881 312.959 132.271 312.475C131.661 311.991 130.924 311.67 130.138 311.547C130.138 311.496 130.413 311.41 130.901 311.46C131.521 311.539 132.102 311.79 132.571 312.181C133.049 312.558 133.402 313.059 133.585 313.622C133.699 314.018 133.661 314.299 133.608 314.299Z" fill="#263238"/>
<path d="M131.579 316.438C131.473 316.495 131 315.753 130.054 315.249C129.456 314.991 128.843 314.768 128.217 314.579C128.561 314.473 128.928 314.445 129.286 314.499C129.644 314.553 129.983 314.687 130.275 314.889C131.351 315.472 131.724 316.416 131.579 316.438Z" fill="#263238"/>
<path d="M137.008 311.741C136.324 311.028 135.585 310.363 134.797 309.753C133.925 309.255 133.015 308.819 132.075 308.449C133.144 308.497 134.176 308.833 135.049 309.416C135.923 309.999 136.603 310.806 137.008 311.741Z" fill="#263238"/>
<path d="M138.823 306.225C138.739 306.326 137.778 305.648 136.391 305.281C135.003 304.913 133.814 304.964 133.798 304.841C134.69 304.621 135.628 304.634 136.513 304.877C137.397 305.121 138.196 305.587 138.823 306.225Z" fill="#263238"/>
<path d="M140.241 300.859C139.458 300.404 138.615 300.05 137.733 299.807C136.824 299.687 135.903 299.687 134.995 299.807C134.995 299.763 135.247 299.576 135.758 299.439C136.432 299.27 137.139 299.253 137.822 299.388C138.505 299.523 139.146 299.807 139.692 300.218C140.111 300.528 140.279 300.794 140.241 300.859Z" fill="#263238"/>
<path d="M138.038 298.762C138.025 298.514 138.077 298.266 138.19 298.042C138.422 297.419 138.782 296.846 139.25 296.356C139.555 295.966 139.99 295.685 140.485 295.557C140.653 295.53 140.825 295.553 140.979 295.621C141.133 295.689 141.261 295.8 141.347 295.938C141.493 296.218 141.526 296.538 141.438 296.839C141.232 297.446 140.81 297.967 140.242 298.313C139.675 298.658 138.998 298.807 138.327 298.733C137.666 298.645 137.048 298.374 136.551 297.953C136.054 297.532 135.701 296.982 135.537 296.371C135.496 296.216 135.491 296.055 135.521 295.899C135.551 295.743 135.616 295.594 135.712 295.463C135.824 295.343 135.974 295.259 136.139 295.223C136.305 295.187 136.478 295.2 136.635 295.261C137.088 295.473 137.475 295.793 137.755 296.191C138.182 296.711 138.508 297.298 138.716 297.926C138.816 298.154 138.861 298.4 138.846 298.647C138.526 297.833 138.076 297.07 137.511 296.385C137.252 296.052 136.912 295.783 136.52 295.6C136.435 295.564 136.34 295.554 136.249 295.574C136.159 295.593 136.077 295.641 136.017 295.708C135.959 295.798 135.922 295.898 135.908 296.002C135.893 296.106 135.902 296.212 135.933 296.313C136.094 296.835 136.41 297.303 136.844 297.661C137.277 298.018 137.811 298.25 138.381 298.33C138.947 298.393 139.519 298.272 140.003 297.986C140.487 297.701 140.853 297.268 141.042 296.76C141.12 296.557 141.12 296.335 141.042 296.133C140.998 296.054 140.928 295.99 140.843 295.951C140.758 295.913 140.662 295.9 140.569 295.917C140.151 296.028 139.779 296.257 139.501 296.572C138.877 297.213 138.381 297.954 138.038 298.762Z" fill="#263238"/>
<path d="M199.355 293.245L198.761 308.06C198.761 308.06 214.49 313.606 214.658 316.351L184.236 316.293L184.159 293.194L199.355 293.245Z" fill="#EE6842"/>
<g opacity="0.6">
<path d="M189.352 306.786C189.059 306.869 188.809 307.052 188.65 307.3C188.491 307.547 188.434 307.841 188.49 308.126C188.568 308.405 188.756 308.645 189.016 308.796C189.275 308.948 189.587 308.999 189.886 308.94C190.201 308.852 190.47 308.655 190.639 308.388C190.807 308.12 190.862 307.803 190.793 307.499C190.684 307.218 190.465 306.986 190.182 306.853C189.898 306.719 189.571 306.692 189.268 306.778" fill="white"/>
</g>
<g opacity="0.6">
<path d="M184.236 316.279L184.319 313.952L213.461 314.874C213.461 314.874 214.811 315.436 214.658 316.315L184.236 316.279Z" fill="white"/>
</g>
<path d="M199.249 307.902C199.249 308.046 198.486 308.104 197.769 308.558C197.053 309.012 196.649 309.596 196.511 309.539C196.374 309.481 196.595 308.673 197.495 308.14C198.395 307.607 199.287 307.772 199.249 307.902Z" fill="#263238"/>
<path d="M202.443 309.155C202.443 309.292 201.833 309.53 201.322 310.121C200.812 310.712 200.674 311.346 200.56 311.338C200.446 311.331 200.324 310.539 200.964 309.811C201.605 309.083 202.436 309.026 202.443 309.155Z" fill="#263238"/>
<path d="M204.243 312.772C204.113 312.772 203.907 312.094 204.288 311.331C204.67 310.567 205.364 310.257 205.432 310.372C205.501 310.488 205.059 310.898 204.754 311.532C204.449 312.166 204.395 312.757 204.243 312.772Z" fill="#263238"/>
<path d="M198.989 304.517C198.928 304.647 198.227 304.452 197.403 304.517C196.58 304.582 195.878 304.82 195.833 304.698C195.787 304.575 196.389 304.077 197.358 304.027C198.326 303.977 199.066 304.409 198.989 304.517Z" fill="#263238"/>
<g opacity="0.3">
<path d="M199.233 296.176L199.127 298.813L184.175 298.662L184.159 296.284L199.233 296.176Z" fill="black"/>
</g>
<path d="M199.05 301.528C198.552 301.66 198.024 301.66 197.526 301.528C196.976 301.44 196.44 301.285 195.932 301.067C195.632 300.939 195.342 300.792 195.063 300.628C194.892 300.539 194.738 300.424 194.605 300.289C194.514 300.192 194.459 300.069 194.446 299.94C194.434 299.81 194.466 299.68 194.537 299.569C194.608 299.469 194.705 299.388 194.818 299.332C194.931 299.277 195.057 299.249 195.185 299.252C195.378 299.25 195.57 299.275 195.757 299.324C196.081 299.4 196.398 299.503 196.702 299.633C197.215 299.853 197.688 300.147 198.105 300.505C198.814 301.125 199.05 301.651 199.005 301.68C198.959 301.709 198.593 301.283 197.876 300.772C197.457 300.479 197.002 300.237 196.519 300.051C196.234 299.946 195.941 299.862 195.642 299.799C195.322 299.72 195.047 299.713 194.964 299.85C194.88 299.987 194.925 299.922 194.964 300.008C195.065 300.107 195.18 300.192 195.307 300.26C195.563 300.421 195.831 300.565 196.107 300.693C196.579 300.916 197.071 301.097 197.579 301.233C198.077 301.295 198.569 301.394 199.05 301.528Z" fill="#263238"/>
<path d="M198.86 301.729C198.569 301.32 198.427 300.832 198.456 300.339C198.433 299.806 198.505 299.273 198.669 298.762C198.769 298.46 198.899 298.169 199.058 297.89C199.142 297.701 199.275 297.536 199.446 297.41C199.617 297.284 199.82 297.201 200.034 297.17C200.168 297.179 200.297 297.221 200.408 297.292C200.519 297.362 200.608 297.46 200.667 297.573C200.744 297.741 200.798 297.918 200.827 298.099C200.877 298.422 200.877 298.749 200.827 299.072C200.739 299.609 200.514 300.118 200.171 300.555C199.576 301.276 198.951 301.463 198.944 301.42C198.936 301.376 199.409 301.081 199.866 300.361C200.132 299.951 200.298 299.491 200.354 299.014C200.396 298.737 200.396 298.456 200.354 298.178C200.308 297.876 200.186 297.631 200.064 297.66C199.942 297.689 199.66 297.883 199.531 298.128C199.381 298.376 199.256 298.636 199.157 298.906C198.981 299.369 198.878 299.855 198.852 300.346C198.822 301.182 198.936 301.708 198.86 301.729Z" fill="#263238"/>
<path d="M169.665 130.718C169.665 130.718 160.042 145.072 158.655 150.568C157.267 156.064 131.206 288.7 131.206 288.7L159.341 296.695L183.908 188.18L176.71 295.895C176.702 295.994 176.715 296.094 176.75 296.189C176.784 296.283 176.839 296.369 176.911 296.442C176.982 296.515 177.069 296.574 177.166 296.613C177.263 296.653 177.367 296.673 177.472 296.673L205.752 295.852C205.948 295.852 206.137 295.781 206.279 295.654C206.421 295.527 206.505 295.352 206.515 295.168C207.209 284.702 215.809 153.996 214.231 150.201C212.584 146.225 208.269 132.425 208.269 132.425L169.665 130.718Z" fill="#263238"/>
<path d="M148.91 86.263C147.385 87.3218 147.317 89.4105 147.645 91.1608C147.973 92.911 148.567 94.7621 147.919 96.3971C147.396 97.4133 146.738 98.3622 145.96 99.2205C145.281 100.15 144.763 101.331 145.197 102.397C145.96 104.378 149.246 104.558 150.077 106.51C150.55 107.626 150.008 108.886 149.36 109.916C148.712 110.946 147.912 111.976 147.835 113.179C147.825 113.633 147.916 114.083 148.102 114.501C148.288 114.92 148.565 115.296 148.915 115.607C149.266 115.917 149.681 116.155 150.135 116.303C150.588 116.452 151.07 116.509 151.549 116.471C152.921 116.276 153.996 115.304 155.163 114.598C156.329 113.892 157.969 113.46 159.028 114.31C160.271 115.311 159.791 117.191 159.791 118.711C159.781 119.551 160.008 120.378 160.449 121.107C160.89 121.836 161.529 122.441 162.299 122.86C163.089 123.245 164.003 123.341 164.863 123.128C165.723 122.915 166.469 122.409 166.958 121.707C167.385 120.987 167.568 119.986 168.384 119.676C169.406 119.28 170.397 120.295 171.472 120.547C172.08 120.64 172.703 120.543 173.247 120.27C173.791 119.997 174.225 119.563 174.484 119.035C174.976 117.961 175.085 116.766 174.796 115.628C173.927 111.112 170.382 107.554 168.026 103.542C166.123 100.303 164.987 96.7129 164.694 93.0191C164.511 90.743 164.694 88.4526 164.442 86.1838C164.337 83.8922 163.544 81.6761 162.155 79.7951C160.683 77.9944 158.197 76.7988 155.841 77.2813" fill="#EE6842"/>
<path d="M180.088 33.0285C172.745 32.834 165.7 38.272 164.442 45.1072C163.786 48.6581 164.488 52.5115 162.757 55.7167C160.469 59.959 154.461 61.9181 153.112 66.5206C151.983 70.3596 154.636 74.5227 153.516 78.3617C152.685 81.1347 150.054 83.0938 148.773 85.7084C148.155 86.9785 147.885 88.375 147.988 89.7695C148.09 91.1639 148.562 92.5117 149.36 93.6889C150.188 94.8466 151.338 95.7664 152.683 96.3471C154.028 96.9278 155.516 97.147 156.985 96.9805C158.838 96.7284 160.515 95.8353 162.322 95.2879C166.135 94.0922 170.343 94.5316 174.354 95.0574C178.365 95.5832 182.482 96.1954 186.416 95.3239C190.351 94.4524 194.132 91.7226 194.719 87.9052C195.101 85.4491 194.125 83.0146 193.324 80.6522C188.048 65.0369 190.434 48.0459 186.744 32.0129" fill="#EE6842"/>
<path d="M199.637 40.6416C200.286 44.7615 201.467 48.8382 203.343 51.3879C204.868 53.4407 207.811 54.6219 208.261 57.0852C208.635 59.1667 207.323 61.2339 207.537 63.3298C207.872 66.6359 211.73 68.6526 212.821 71.8073C213.735 74.4363 212.477 77.411 210.358 79.3125C208.238 81.214 205.402 82.2295 202.573 82.9498C198.539 83.9726 193.652 84.2895 190.755 81.4372C188.772 79.4925 188.322 76.5971 188.078 73.9033C187.4 66.7007 187.43 59.4476 187.453 52.2162" fill="#EE6842"/>
<path d="M173.271 47.5777C173.053 45.9275 173.189 44.2527 173.669 42.6529C174.15 41.0531 174.966 39.5609 176.069 38.2648C177.172 36.9688 178.54 35.8954 180.091 35.1085C181.642 34.3216 183.344 33.8371 185.097 33.6839C192.097 33.0572 198.318 38.0054 199.363 44.5454C200.286 50.3075 201.079 56.1128 201.048 58.2304C200.964 64.5975 197.022 67.0752 195.421 67.8171C194.847 68.0178 194.251 68.1579 193.645 68.2348C193.639 68.2422 193.636 68.251 193.636 68.26C193.636 68.2691 193.639 68.2779 193.645 68.2852L195.169 75.5887C195.848 80.3784 193.019 84.6496 187.957 85.3482C182.894 86.0469 178.914 82.3664 178.136 77.5766L173.271 47.5777Z" fill="#FFBE9D"/>
<path d="M197.991 47.3264C197.884 47.4778 196.992 47.0236 195.856 47.1894C194.719 47.3552 193.957 48.004 193.82 47.9103C193.683 47.8166 193.82 47.6075 194.171 47.3047C194.611 46.9121 195.171 46.66 195.772 46.5839C196.365 46.4973 196.972 46.5934 197.503 46.8578C197.891 47.0452 198.059 47.2615 197.991 47.3264Z" fill="#263238"/>
<path d="M187.712 49.2278C187.606 49.3792 186.714 48.925 185.57 49.0836C184.426 49.2422 183.679 49.8982 183.534 49.8045C183.389 49.7108 183.534 49.5018 183.892 49.199C184.335 48.8087 184.894 48.557 185.494 48.4781C186.088 48.3933 186.695 48.4919 187.224 48.7592C187.613 48.9395 187.773 49.1629 187.712 49.2278Z" fill="#263238"/>
<path d="M191.959 55.4358C192.532 55.1761 193.136 54.9849 193.759 54.8668C194.049 54.802 194.315 54.7083 194.338 54.5139C194.318 54.2254 194.207 53.9493 194.018 53.7216L192.829 51.7481C191.174 48.9318 189.931 46.5982 190.053 46.5334C190.175 46.4685 191.578 48.6941 193.271 51.5248L194.422 53.5199C194.652 53.8284 194.762 54.2023 194.735 54.5787C194.706 54.6804 194.655 54.775 194.584 54.8559C194.513 54.9368 194.424 55.0019 194.323 55.0469C194.167 55.1087 194.003 55.1522 193.835 55.1765C193.224 55.3399 192.594 55.4271 191.959 55.4358Z" fill="#263238"/>
<path d="M193.576 68.2132C193.576 68.2132 189.23 69.164 183.237 66.7727C183.237 66.7727 185.821 72.0306 193.98 70.1579L193.576 68.2132Z" fill="#EB996E"/>
<path d="M191.899 58.1297C191.642 57.9014 191.328 57.7386 190.987 57.6566C190.645 57.5747 190.287 57.5763 189.947 57.6614C189.698 57.7177 189.464 57.8207 189.258 57.9643C189.053 58.1079 188.88 58.2891 188.75 58.4972C188.624 58.6975 188.567 58.9295 188.586 59.1616C188.605 59.3937 188.699 59.6146 188.856 59.7941C189.067 59.9573 189.324 60.0586 189.595 60.0854C189.866 60.1123 190.139 60.0636 190.381 59.9454C190.89 59.6896 191.341 59.342 191.708 58.9223C191.823 58.8203 191.917 58.6979 191.982 58.562C192.03 58.4978 192.053 58.4204 192.049 58.3422C192.045 58.2639 192.014 58.1892 191.96 58.1297" fill="#EB996E"/>
<path d="M188.742 56.6458C188.925 56.6458 189.108 57.777 190.267 58.4615C191.426 59.146 192.745 58.8362 192.783 59.0019C192.821 59.1676 192.524 59.2685 191.967 59.3621C191.245 59.4678 190.506 59.3328 189.878 58.9803C189.279 58.6228 188.85 58.0598 188.681 57.4096C188.559 56.9628 188.65 56.689 188.742 56.6458Z" fill="#263238"/>
<path d="M187.125 46.1521C187.057 46.4621 185.898 46.4765 184.586 46.8153C183.275 47.1541 182.238 47.6443 182.024 47.4064C181.925 47.2911 182.07 46.9883 182.459 46.6855C182.987 46.2564 183.612 45.947 184.286 45.7808C184.96 45.6147 185.665 45.5962 186.348 45.7268C186.874 45.8061 187.156 46.0079 187.125 46.1521Z" fill="#EE6842"/>
<path d="M197.03 44.3589C196.87 44.6329 196.039 44.4887 195.093 44.604C194.148 44.7194 193.378 45.0077 193.149 44.777C193.05 44.6689 193.149 44.4022 193.454 44.121C193.882 43.7719 194.415 43.5577 194.979 43.5083C195.535 43.4384 196.101 43.5368 196.595 43.7894C196.954 43.9913 197.098 44.2292 197.03 44.3589Z" fill="#EE6842"/>
<path d="M194.796 48.666C194.751 48.9247 194.816 49.1896 194.975 49.4038C195.135 49.6181 195.377 49.7647 195.65 49.8122C195.78 49.8411 195.916 49.8454 196.048 49.8248C196.181 49.8042 196.307 49.7591 196.421 49.6922C196.535 49.6253 196.634 49.5377 196.713 49.4346C196.791 49.3315 196.847 49.2149 196.877 49.0913C196.918 48.8321 196.85 48.5682 196.69 48.3546C196.529 48.1411 196.288 47.9944 196.016 47.9451C195.753 47.8889 195.477 47.9331 195.249 48.0682C195.02 48.2032 194.857 48.4181 194.796 48.666Z" fill="#263238"/>
<path d="M184.579 50.5675C184.537 50.8261 184.603 51.0901 184.764 51.3029C184.925 51.5157 185.168 51.6606 185.44 51.7065C185.571 51.7353 185.705 51.7395 185.837 51.7188C185.969 51.6981 186.096 51.653 186.209 51.586C186.322 51.519 186.421 51.4315 186.498 51.3284C186.575 51.2254 186.631 51.1089 186.66 50.9856C186.705 50.7269 186.64 50.4621 186.481 50.2478C186.321 50.0335 186.079 49.8869 185.806 49.8394C185.675 49.8106 185.539 49.8066 185.406 49.8277C185.274 49.8487 185.146 49.8944 185.032 49.9621C184.918 50.0297 184.819 50.1181 184.742 50.222C184.664 50.3259 184.608 50.4433 184.579 50.5675Z" fill="#263238"/>
<path d="M174.011 77.7999L194.72 73.788L199.226 73.644L198.905 86.6087C198.905 86.6087 187.514 89.9507 187.095 90.1596C186.675 90.3685 179.219 90.1596 179.219 90.1596L174.011 77.7999Z" fill="#FFBE9D"/>
<path d="M182.177 36.7306C180.934 38.1433 180.109 39.8419 179.786 41.6536C179.463 43.4653 179.654 45.3254 180.339 47.0448C181.3 49.3424 183.168 51.46 183.008 53.9233C182.81 56.9772 179.508 59.3684 179.691 62.4295C179.89 65.8724 184.556 68.0476 184.564 71.4904C184.571 74.9333 182.314 76.3306 177.976 77.0797C175.193 77.555 173.653 74.3067 172.273 71.973C170.892 69.6394 170.443 66.9312 170.16 64.2806C169.694 59.8718 169.62 55.4339 169.939 51.0134C170.206 47.4121 170.763 43.8108 172.722 40.7209C173.741 39.155 175.091 37.8048 176.688 36.755C178.284 35.7052 180.093 34.9784 182.002 34.6202" fill="#EE6842"/>
<path d="M200.667 43.1193C199.272 45.1289 194.849 43.89 192.173 42.5071C190.782 43.3511 189.097 43.6495 187.477 43.3388C185.857 43.0281 184.429 42.1329 183.496 40.8433C181.971 42.68 178.86 42.0749 177.732 40.0006C176.603 37.9262 177.236 35.074 178.792 33.2589C180.363 31.5608 182.528 30.4516 184.891 30.133C187.594 29.6396 190.39 29.9046 192.934 30.8953C195.479 31.886 197.661 33.5591 199.211 35.7078C200.674 37.8038 201.559 40.6344 200.69 43.1481" fill="#EE6842"/>
<path d="M116.65 91.0888L112.114 82.3808L109.986 77.9872C109.453 76.8852 110.238 76.3738 110.894 77.0653C111.145 77.3318 114.043 80.753 114.043 80.753L110.993 74.6164C110.032 72.6789 111.412 72.6501 111.946 73.3127C112.48 73.9753 116.132 79.687 116.132 79.687C112.266 72.081 112.838 71.2528 113.448 71.0439C114.058 70.835 117.519 77.7639 117.519 77.7639C117.869 76.8387 118.423 75.9942 119.144 75.2862C120.92 73.5936 124.595 74.3139 124.946 75.1926C125.297 76.0713 124.122 76.5467 124.122 76.5467C123.573 76.2897 122.956 76.1903 122.347 76.2606C121.739 76.3308 121.165 76.5678 120.698 76.9423C120.23 77.3167 119.888 77.8122 119.715 78.3678C119.542 78.9233 119.545 79.5146 119.723 80.0688C120.485 82.3304 123.49 81.4589 123.535 79.7446C123.657 75.9849 125.213 76.9212 125.213 76.9212L125.48 85.1178L127.676 88.8776L144.93 110.377L150.024 102.671L163.039 114.742L154.171 124.106C152.877 125.504 151.245 126.586 149.412 127.26C147.58 127.934 145.602 128.18 143.648 127.976C141.693 127.773 139.82 127.126 138.187 126.09C136.555 125.055 135.211 123.663 134.271 122.031L116.65 91.0888Z" fill="#FFBE9D"/>
<path d="M243.609 75.6248C227.186 74.7316 200.705 72.7437 198.623 73.4136C198.623 73.4136 200.469 84.9377 189.298 86.6015C178.128 88.2654 174.049 77.7999 174.049 77.7999C174.049 77.7999 162.612 80.8755 158.373 87.5163C154.133 94.1571 148.926 101.59 148.926 101.59L164.282 115.851L168.575 111.4L171.678 121.138L169.703 130.718L208.345 132.425L211.014 90.4693L243.647 87.934L243.609 75.6248Z" fill="#455A64"/>
<path d="M164.251 97.5856C164.366 97.5856 166.096 102.685 168.109 109.045C170.122 115.405 171.662 120.569 171.548 120.62C171.434 120.67 169.703 115.527 167.69 109.16C165.677 102.793 164.137 97.6216 164.251 97.5856Z" fill="#263238"/>
<path d="M218.409 81.3004C218.493 81.4085 215.916 82.849 213.758 85.622C211.601 88.395 210.8 91.0744 210.663 91.024C210.725 90.4127 210.89 89.8147 211.151 89.2521C211.697 87.8617 212.455 86.5539 213.4 85.3699C214.349 84.1865 215.471 83.1364 216.732 82.2512C217.231 81.8475 217.798 81.5261 218.409 81.3004Z" fill="#263238"/>
<path d="M182.002 105.761C181.98 105.728 181.967 105.691 181.964 105.652C181.956 105.637 181.952 105.619 181.952 105.602C181.952 105.585 181.956 105.567 181.964 105.552C181.968 105.512 181.986 105.475 182.015 105.447C182.044 105.418 182.082 105.399 182.124 105.393C182.171 105.388 182.219 105.394 182.264 105.409C182.308 105.424 182.349 105.448 182.383 105.48C182.409 105.503 182.437 105.525 182.467 105.544C182.59 105.667 182.741 105.762 182.909 105.822C183.077 105.882 183.257 105.905 183.435 105.89C183.565 105.867 183.688 105.818 183.797 105.748C183.906 105.677 183.998 105.586 184.068 105.48C184.142 105.375 184.192 105.257 184.215 105.133C184.239 105.009 184.236 104.882 184.205 104.759C184.163 104.563 184.056 104.384 183.9 104.248C183.726 104.12 183.527 104.026 183.313 103.974C183.031 103.881 182.863 103.83 182.81 103.801C182.694 103.759 182.583 103.704 182.482 103.636C182.365 103.56 182.266 103.464 182.19 103.351C182.114 103.238 182.063 103.112 182.04 102.98V102.865C181.998 102.567 182.08 102.265 182.269 102.022C182.448 101.774 182.72 101.599 183.031 101.533C183.17 101.511 183.312 101.511 183.45 101.533C183.74 101.552 184.012 101.673 184.213 101.871C184.243 101.908 184.266 101.949 184.281 101.994C184.292 102.031 184.292 102.071 184.281 102.109C184.268 102.146 184.245 102.179 184.215 102.206C184.184 102.232 184.147 102.251 184.106 102.26C184.079 102.273 184.049 102.28 184.018 102.28C183.988 102.28 183.958 102.273 183.931 102.26C183.829 102.171 183.708 102.105 183.577 102.065C183.445 102.025 183.305 102.013 183.168 102.03C182.975 102.069 182.806 102.177 182.696 102.332C182.628 102.418 182.581 102.516 182.559 102.621C182.536 102.725 182.539 102.833 182.566 102.937C182.591 103.067 182.664 103.184 182.772 103.268C182.936 103.38 183.119 103.465 183.313 103.52C183.533 103.582 183.748 103.662 183.954 103.758C184.161 103.84 184.346 103.967 184.49 104.13C184.635 104.293 184.736 104.487 184.785 104.695C184.796 104.785 184.796 104.877 184.785 104.968C184.789 105.298 184.668 105.618 184.442 105.869C184.224 106.131 183.917 106.315 183.572 106.387C183.339 106.432 183.097 106.42 182.871 106.351C182.523 106.245 182.219 106.039 182.002 105.761Z" fill="white"/>
<path d="M189.153 104.947C189.161 104.977 189.162 105.009 189.156 105.041C189.15 105.072 189.138 105.102 189.119 105.128C189.1 105.154 189.076 105.177 189.048 105.194C189.02 105.211 188.988 105.222 188.955 105.228C188.911 105.242 188.862 105.242 188.818 105.228C188.768 105.208 188.725 105.177 188.693 105.136C188.661 105.096 188.641 105.048 188.635 104.997C188.635 104.961 188.543 104.118 188.383 102.476C188.101 103.578 187.88 104.45 187.728 105.083C187.689 105.22 187.674 105.3 187.667 105.314C187.657 105.366 187.632 105.415 187.594 105.455C187.556 105.494 187.507 105.523 187.453 105.537H187.384C187.331 105.532 187.28 105.513 187.237 105.483C187.194 105.452 187.161 105.411 187.14 105.364L186.012 102.93C186.096 103.866 186.157 104.738 186.195 105.523C186.195 105.681 186.142 105.775 185.989 105.804C185.945 105.818 185.896 105.818 185.852 105.804C185.802 105.785 185.759 105.753 185.727 105.712C185.695 105.672 185.675 105.624 185.669 105.573C185.669 105.573 185.57 104.442 185.394 102.238C185.349 101.669 185.326 101.367 185.326 101.324C185.314 101.289 185.314 101.251 185.326 101.216C185.338 101.173 185.363 101.134 185.398 101.104C185.433 101.075 185.477 101.056 185.524 101.05H185.6C185.638 101.048 185.675 101.056 185.708 101.074C185.741 101.092 185.767 101.119 185.783 101.151L186.637 103.031L187.293 104.471L188.246 100.683C188.24 100.659 188.24 100.634 188.246 100.611C188.263 100.571 188.29 100.536 188.324 100.508C188.359 100.48 188.4 100.461 188.444 100.452C188.484 100.441 188.526 100.441 188.566 100.452C188.612 100.464 188.654 100.486 188.687 100.518C188.721 100.549 188.745 100.589 188.757 100.632C188.757 100.69 188.757 100.762 188.757 100.834C189.011 103.273 189.143 104.644 189.153 104.947Z" fill="white"/>
<path d="M190.93 104.601C190.93 104.767 190.862 104.867 190.724 104.896C190.677 104.911 190.626 104.911 190.579 104.896C190.532 104.875 190.49 104.843 190.46 104.803C190.429 104.762 190.41 104.715 190.404 104.666L190.069 100.416C190.065 100.385 190.065 100.354 190.069 100.323C190.076 100.275 190.099 100.23 190.134 100.195C190.17 100.16 190.216 100.137 190.267 100.128C190.309 100.117 190.354 100.117 190.396 100.128C190.439 100.137 190.479 100.157 190.51 100.187C190.541 100.216 190.562 100.253 190.572 100.294C190.806 103.069 190.925 104.505 190.93 104.601Z" fill="white"/>
<path d="M194.613 104.118L192.47 104.543C192.423 104.557 192.373 104.557 192.325 104.543C192.282 104.519 192.244 104.487 192.214 104.448C192.184 104.41 192.162 104.366 192.15 104.32C192.15 104.243 192.038 102.827 191.815 100.07C191.815 100.07 191.815 100.013 191.815 99.984C191.822 99.936 191.845 99.8914 191.88 99.8565C191.916 99.8216 191.962 99.7982 192.013 99.7896H192.135C192.181 99.8019 192.222 99.8259 192.254 99.8589C192.286 99.892 192.308 99.9328 192.318 99.9768C192.318 100.164 192.379 100.553 192.425 101.144C192.577 102.952 192.653 103.909 192.669 104.025L194.483 103.665C194.531 103.654 194.58 103.654 194.628 103.665C194.68 103.672 194.729 103.695 194.767 103.73C194.805 103.765 194.831 103.81 194.842 103.859C194.853 103.927 194.836 103.996 194.795 104.052C194.754 104.108 194.691 104.148 194.62 104.162L194.613 104.118Z" fill="white"/>
<path d="M195.276 99.1197L197.312 98.7163C197.352 98.7095 197.394 98.7095 197.434 98.7163C197.49 98.7176 197.545 98.7379 197.586 98.7736C197.628 98.8093 197.656 98.8579 197.663 98.9108C197.67 98.9416 197.67 98.9736 197.663 99.0044C197.649 99.0549 197.622 99.1009 197.583 99.1377C197.544 99.1745 197.495 99.2006 197.442 99.2133L195.612 99.5807L195.749 101.266L197.068 101H197.213C197.265 101.007 197.313 101.03 197.35 101.065C197.387 101.1 197.411 101.145 197.419 101.194C197.427 101.22 197.427 101.247 197.419 101.273C197.408 101.326 197.382 101.374 197.342 101.413C197.303 101.451 197.253 101.478 197.198 101.489L195.795 101.77L195.924 103.348L197.739 102.987C197.784 102.977 197.831 102.977 197.876 102.987C197.931 102.992 197.982 103.013 198.023 103.049C198.063 103.084 198.089 103.131 198.097 103.182V103.261C198.087 103.315 198.061 103.364 198.022 103.404C197.983 103.443 197.932 103.471 197.876 103.484L195.757 103.902C195.707 103.917 195.654 103.917 195.604 103.902C195.556 103.881 195.515 103.849 195.484 103.809C195.454 103.768 195.434 103.721 195.429 103.672C195.429 103.672 195.299 102.231 195.07 99.4222C195.067 99.3935 195.067 99.3645 195.07 99.3358C195.075 99.2833 195.097 99.2336 195.134 99.1945C195.172 99.1554 195.221 99.1291 195.276 99.1197Z" fill="white"/>
<path d="M201.284 97.9385C201.324 97.9281 201.366 97.9281 201.406 97.9385C201.45 97.9515 201.49 97.9749 201.522 98.0064C201.554 98.0378 201.577 98.0764 201.589 98.1186C201.818 100.798 201.94 102.238 201.955 102.44C201.981 102.849 201.908 103.258 201.742 103.636C201.629 103.88 201.453 104.093 201.231 104.256C201.009 104.42 200.747 104.528 200.469 104.572C200.176 104.609 199.879 104.583 199.599 104.495C199.319 104.408 199.064 104.262 198.852 104.068C198.827 104.033 198.809 103.994 198.799 103.953C198.787 103.91 198.787 103.866 198.799 103.823C198.813 103.783 198.838 103.747 198.871 103.719C198.905 103.692 198.946 103.673 198.989 103.665C199.028 103.658 199.069 103.659 199.107 103.669C199.145 103.679 199.181 103.697 199.21 103.722C199.368 103.873 199.562 103.986 199.776 104.052C199.989 104.117 200.217 104.132 200.438 104.097C200.603 104.062 200.758 103.992 200.89 103.892C201.022 103.792 201.128 103.665 201.201 103.521C201.411 103.093 201.477 102.616 201.391 102.152C201.332 102.291 201.25 102.42 201.147 102.534C200.958 102.731 200.707 102.868 200.43 102.923H200.286C200.108 102.929 199.932 102.897 199.769 102.83C199.607 102.763 199.463 102.661 199.348 102.534C199.008 102.175 198.781 101.733 198.692 101.259C198.639 101.014 198.593 100.762 198.562 100.495C198.509 100.078 198.479 99.4799 198.463 98.6948C198.46 98.6709 198.46 98.6466 198.463 98.6227C198.466 98.5728 198.486 98.525 198.52 98.4872C198.555 98.4493 198.602 98.4235 198.654 98.4139C198.696 98.4032 198.741 98.4032 198.784 98.4139C198.826 98.423 198.864 98.4436 198.894 98.473C198.923 98.5024 198.943 98.5395 198.951 98.5795C199.002 98.892 199.032 99.2071 199.043 99.5231C199.063 100.005 199.111 100.486 199.188 100.964C199.257 101.34 199.404 101.7 199.622 102.022C199.696 102.149 199.808 102.251 199.944 102.317C200.08 102.382 200.233 102.408 200.385 102.39H200.469C200.719 102.255 200.907 102.037 200.995 101.777C201.175 101.394 201.271 100.98 201.277 100.56L201.086 98.1978C201.082 98.1619 201.082 98.1257 201.086 98.0897C201.101 98.0497 201.128 98.0144 201.163 97.9877C201.198 97.961 201.24 97.944 201.284 97.9385Z" fill="white"/>
<path d="M183.938 69.7618C185.394 71.6273 184.853 74.2634 183.892 76.3882C182.932 78.513 181.605 80.6017 181.605 82.9138C181.605 85.0746 182.779 87.0913 183.687 89.1008C184.594 91.1103 185.211 93.4872 184.121 95.4103C182.932 97.4991 180.042 98.4714 179.218 100.711C178.242 103.376 180.743 106.546 179.264 109.009C178.273 110.701 175.681 111.17 173.874 110.219C173.002 109.706 172.269 109.008 171.732 108.18C171.196 107.352 170.872 106.418 170.786 105.451C170.633 103.512 170.837 101.562 171.388 99.6887C172.028 96.9589 172.676 93.8401 170.946 91.5713C169.924 90.2388 168.17 89.4105 167.606 87.826C166.935 85.9821 168.239 84.023 169.703 82.6473C171.167 81.2716 172.936 80.0039 173.515 78.1384C173.867 76.6789 173.785 75.156 173.279 73.7376C172.781 72.3202 172.524 70.8374 172.516 69.344C172.623 67.8603 173.5 66.3045 175.002 65.858C177.122 65.2241 179.135 66.9456 180.614 68.5085" fill="#EE6842"/>
<path d="M164.244 139.303C164.244 139.829 188.963 139.303 188.963 139.303L189.923 133.606L170.214 128.017C170.214 128.017 164.51 134.585 164.244 139.303Z" fill="#EE6842"/>
<path d="M189.924 133.62L208.49 129.587C208.49 129.587 213.537 137.74 212.554 145.433L188.963 139.282L189.924 133.62Z" fill="#EE6842"/>
<path d="M192.287 138.252C193.958 139.116 195.342 140.403 196.285 141.967C197.227 143.531 197.691 145.312 197.625 147.111C197.564 148.249 197.281 149.38 197.304 150.518C197.276 151.088 197.386 151.656 197.625 152.18C197.864 152.705 198.226 153.17 198.684 153.543C199.691 154.263 201.361 154.479 201.483 155.646C201.484 156.156 201.28 156.648 200.911 157.022C199.836 158.325 198.052 159.334 196.336 158.88C194.46 158.383 193.561 156.395 193.057 154.609C191.532 149.113 191.357 143.365 191.205 137.682" fill="#EE6842"/>
<g opacity="0.3">
<path d="M192.722 138.496C194.331 139.339 195.647 140.603 196.512 142.137C197.377 143.671 197.752 145.408 197.594 147.139C197.533 148.277 197.251 149.408 197.274 150.546C197.246 151.116 197.355 151.685 197.594 152.209C197.834 152.733 198.196 153.199 198.654 153.571C199.66 154.292 201.33 154.508 201.452 155.675C201.453 156.185 201.249 156.677 200.88 157.05C199.805 158.354 198.021 159.362 196.305 158.909C194.43 158.412 193.53 156.424 193.027 154.637C191.502 149.142 192.058 145.188 191.906 139.512" fill="black"/>
</g>
<path d="M187.385 138.129C183.713 145.76 183.17 154.407 185.86 162.395C186.085 163.354 186.633 164.218 187.423 164.858C188.787 165.773 190.663 165.247 192.226 164.7C194.231 163.979 196.458 163.086 197.213 161.192C197.58 160.135 197.566 158.993 197.175 157.944C196.504 155.84 195.002 154.011 194.498 151.872C194.048 149.934 194.445 147.925 194.338 145.951C194.234 144.214 193.742 142.518 192.894 140.974C192.047 139.43 190.863 138.072 189.42 136.991" fill="#EE6842"/>
<g opacity="0.3">
<path d="M186.874 138.799C186.959 139.213 187.14 139.605 187.404 139.946C187.667 140.288 188.007 140.57 188.399 140.773C188.798 140.969 189.245 141.064 189.694 141.05C190.144 141.036 190.583 140.914 190.968 140.694C191.347 140.469 191.647 140.145 191.833 139.761C192.019 139.377 192.081 138.95 192.013 138.532C191.293 139.167 190.344 139.52 189.359 139.519C188.373 139.519 187.424 139.158 186.714 138.511" fill="black"/>
</g>
<path d="M192.996 135.81C192.409 134.247 190.289 132.734 188.551 132.965H188.589C188.075 132.969 187.57 133.099 187.124 133.341C186.678 133.583 186.306 133.93 186.042 134.348C185.715 135.046 185.604 135.818 185.721 136.574C185.838 137.33 186.178 138.04 186.703 138.621C187.228 139.202 187.917 139.631 188.689 139.859C189.461 140.087 190.285 140.104 191.067 139.908C191.869 139.573 192.511 138.967 192.868 138.21C193.224 137.453 193.27 136.597 192.996 135.81Z" fill="#EE6842"/>
<path d="M186.409 138.583C186.704 138.704 186.98 138.862 187.232 139.051C187.931 139.521 188.744 139.819 189.596 139.915C190.173 139.974 190.756 139.882 191.281 139.649C191.862 139.358 192.304 138.868 192.516 138.28C192.769 137.602 192.832 136.873 192.699 136.165C192.565 135.457 192.239 134.793 191.754 134.24C191.26 133.694 190.606 133.298 189.875 133.102C189.144 132.906 188.368 132.918 187.644 133.138C187.059 133.33 186.538 133.667 186.136 134.112C185.734 134.558 185.465 135.097 185.356 135.673C185.233 136.472 185.428 137.286 185.905 137.956C186.097 138.195 186.303 138.424 186.523 138.64C186.523 138.64 186.439 138.64 186.302 138.525C186.108 138.386 185.934 138.224 185.783 138.043C185.221 137.36 184.966 136.496 185.074 135.637C185.18 135.001 185.465 134.404 185.898 133.908C186.331 133.411 186.897 133.033 187.537 132.813C188.33 132.559 189.186 132.535 189.994 132.746C190.802 132.956 191.524 133.392 192.066 133.995C192.603 134.597 192.961 135.323 193.104 136.098C193.247 136.874 193.171 137.671 192.882 138.41C192.633 139.072 192.122 139.617 191.456 139.93C190.874 140.171 190.233 140.256 189.603 140.175C188.711 140.06 187.871 139.711 187.179 139.166C186.9 138.999 186.642 138.803 186.409 138.583Z" fill="#263238"/>
<path d="M189.443 132.893C189.481 132.943 189.108 133.195 188.681 133.721C188.096 134.404 187.717 135.222 187.583 136.091C187.472 136.963 187.617 137.848 188.002 138.648C188.292 139.267 188.589 139.606 188.543 139.642C188.498 139.678 188.132 139.397 187.781 138.77C187.288 137.944 187.09 136.989 187.217 136.047C187.355 135.107 187.807 134.231 188.505 133.548C188.978 133.037 189.42 132.857 189.443 132.893Z" fill="#263238"/>
<path d="M197.015 156.654C197.015 156.654 196.961 156.834 196.801 157.122C196.571 157.528 196.303 157.914 196.001 158.275C195.013 159.488 193.786 160.508 192.386 161.278C190.978 162.054 189.425 162.568 187.812 162.791C187.327 162.855 186.837 162.884 186.348 162.877C186.005 162.877 185.814 162.877 185.814 162.827C185.814 162.776 186.576 162.748 187.758 162.524C190.879 161.947 193.703 160.391 195.772 158.109C196.534 157.238 196.954 156.625 197.015 156.654Z" fill="#263238"/>
<path d="M190.816 165.19C190.778 165.284 189.969 164.945 189.481 164.081C189.303 163.842 189.187 163.567 189.142 163.278C189.097 162.989 189.124 162.693 189.222 162.416C189.337 162.416 189.382 163.137 189.824 163.901C190.267 164.664 190.877 165.097 190.816 165.19Z" fill="#263238"/>
<path d="M194.422 163.094C194.422 163.188 193.599 162.986 193.088 162.229C192.577 161.473 192.684 160.702 192.79 160.724C192.897 160.745 192.966 161.379 193.416 162.021C193.866 162.662 194.468 162.993 194.422 163.094Z" fill="#263238"/>
<path d="M196.534 162.316C196.426 161.766 196.276 161.224 196.084 160.695C195.696 159.852 195.261 159.182 195.368 159.118C195.873 159.485 196.25 159.986 196.45 160.558C196.638 160.951 196.726 161.38 196.71 161.811C196.672 162.135 196.572 162.33 196.534 162.316Z" fill="#263238"/>
<path d="M191.853 156.669C191.712 156.494 191.597 156.303 191.509 156.1C191.223 155.571 190.968 155.028 190.747 154.472C189.273 150.8 188.715 146.856 189.115 142.948C189.199 142.227 189.291 141.601 189.382 141.19C189.402 140.973 189.461 140.761 189.558 140.563C189.619 140.563 189.481 141.485 189.397 142.969C189.286 144.892 189.363 146.821 189.626 148.731C189.901 150.643 190.366 152.527 191.014 154.356C191.525 155.79 191.914 156.64 191.853 156.669Z" fill="#263238"/>
<g opacity="0.3">
<path d="M189.405 141.169C187.896 145.269 187.896 149.73 189.405 153.831C189.481 154.04 189.58 154.277 189.802 154.349C189.87 154.364 189.941 154.366 190.011 154.355C190.08 154.344 190.146 154.32 190.206 154.284C190.265 154.249 190.317 154.203 190.357 154.148C190.398 154.094 190.427 154.033 190.442 153.968C190.5 153.701 190.482 153.425 190.389 153.168C189.451 149.459 188.749 145.022 189.458 141.262" fill="black"/>
</g>
<path d="M174.163 134.477C174.686 134.348 175.225 134.29 175.765 134.304C177.056 134.267 178.349 134.328 179.63 134.485C180.922 134.639 182.197 134.897 183.443 135.256C183.977 135.368 184.491 135.555 184.968 135.811C184.968 135.919 182.596 135.22 179.63 134.859C176.664 134.499 174.171 134.578 174.163 134.477Z" fill="#263238"/>
<path d="M200.789 134.614C200.789 134.722 199.005 134.888 196.847 135.299C194.689 135.71 192.966 136.207 192.928 136.106C194.122 135.519 195.41 135.122 196.74 134.931C198.063 134.621 199.43 134.514 200.789 134.614Z" fill="#263238"/>
<path d="M208.406 139.699C207.643 139.504 206.895 139.263 206.164 138.979C204.375 138.378 202.549 137.878 200.697 137.481C198.841 137.093 196.962 136.812 195.07 136.638C194.281 136.605 193.494 136.528 192.714 136.408C193.505 136.325 194.303 136.325 195.093 136.408C197.007 136.497 198.91 136.738 200.781 137.128C202.654 137.52 204.488 138.062 206.263 138.748C207.011 138.992 207.73 139.311 208.406 139.699Z" fill="#263238"/>
<g opacity="0.3">
<path d="M201.483 131.193C201.894 137.272 205.516 141.86 210.975 145.108L212.554 145.469C212.676 145.238 212.47 144.611 212.378 144.367C211.244 141.321 209.86 138.364 208.238 135.522C207.476 134.247 207.163 131.114 206.042 130.12L201.467 131.193" fill="black"/>
</g>
<path d="M187.385 166.082C187.491 166.082 186.683 171.434 185.578 178.01C184.472 184.586 183.496 189.894 183.389 189.88C183.283 189.865 184.083 184.521 185.189 177.945C186.294 171.369 187.301 166.061 187.385 166.082Z" fill="#455A64"/>
<path d="M176.115 134.016C176.077 134.016 175.909 133.851 175.772 133.483C175.6 133 175.571 132.482 175.688 131.985C175.811 131.482 176.074 131.019 176.451 130.645C176.74 130.365 176.977 130.264 177 130.3C176.565 130.816 176.262 131.42 176.116 132.064C175.969 132.709 175.982 133.377 176.153 134.016H176.115Z" fill="#FAFAFA"/>
<path d="M177.983 139.354C177.983 139.354 177.694 139.231 177.434 138.842C177.102 138.322 176.985 137.703 177.106 137.106C177.227 136.509 177.578 135.976 178.09 135.608C178.479 135.334 178.784 135.284 178.799 135.327C178.814 135.37 178.578 135.515 178.273 135.81C177.878 136.177 177.61 136.65 177.505 137.164C177.4 137.679 177.463 138.211 177.686 138.691C177.854 139.101 178.029 139.31 177.983 139.354Z" fill="#FAFAFA"/>
<path d="M184.007 139.274C184.007 139.31 183.748 139.231 183.481 138.95C183.152 138.572 182.97 138.1 182.962 137.61C182.942 137.12 183.104 136.639 183.42 136.249C183.671 135.961 183.9 135.867 183.931 135.903C183.961 135.939 183.816 136.105 183.656 136.393C183.451 136.765 183.349 137.18 183.358 137.599C183.368 138.018 183.488 138.428 183.709 138.792C183.885 139.073 184.045 139.224 184.007 139.274Z" fill="#FAFAFA"/>
<path d="M168.994 139.469C168.777 138.936 168.669 138.369 168.674 137.798C168.516 135.028 169.46 132.303 171.319 130.156C171.677 129.699 172.116 129.304 172.615 128.989C172.661 129.039 172.181 129.493 171.54 130.321C170.711 131.402 170.063 132.598 169.619 133.865C169.182 135.133 168.958 136.457 168.956 137.79C168.956 138.799 169.085 139.454 168.994 139.469Z" fill="#FAFAFA"/>
<path d="M181.338 135.687C181.338 135.687 181.087 135.565 180.896 135.205C180.665 134.718 180.608 134.173 180.735 133.653C180.861 133.133 181.164 132.666 181.598 132.324C181.941 132.079 182.215 132.036 182.23 132.072C182.246 132.108 182.047 132.252 181.788 132.518C181.461 132.865 181.231 133.283 181.117 133.735C181.011 134.188 181.025 134.658 181.155 135.104C181.285 135.45 181.392 135.651 181.338 135.687Z" fill="#FAFAFA"/>
<path d="M198.486 134.478C198.379 134.478 198.486 133.851 198.372 133.131C198.257 132.41 197.998 131.863 198.097 131.805C198.196 131.747 198.654 132.266 198.768 133.08C198.883 133.895 198.585 134.478 198.486 134.478Z" fill="#FAFAFA"/>
<path d="M199.904 136.885C199.859 136.978 199.325 136.733 199.142 136.128C198.959 135.522 199.21 135.025 199.31 135.068C199.409 135.111 199.31 135.529 199.523 136.012C199.737 136.495 199.973 136.798 199.904 136.885Z" fill="#FAFAFA"/>
<path d="M202.535 142.861C202.398 142.861 202.878 141.709 202.771 140.319C202.665 138.929 202.009 137.913 202.1 137.855C202.75 138.522 203.128 139.385 203.168 140.29C203.282 141.19 203.058 142.1 202.535 142.861Z" fill="#FAFAFA"/>
<path d="M189.428 149.056C189.428 149.056 189.23 149.294 188.772 149.496C188.177 149.749 187.525 149.863 186.874 149.828C186.22 149.8 185.583 149.627 185.013 149.323C184.586 149.078 184.38 148.854 184.411 148.818C185.18 149.196 186.026 149.412 186.892 149.453C187.758 149.494 188.623 149.359 189.428 149.056Z" fill="#FAFAFA"/>
<path d="M193.873 145.368C193.104 145.17 192.305 145.097 191.51 145.152C190.736 145.313 189.994 145.591 189.314 145.974C189.314 145.974 189.42 145.707 189.786 145.433C190.275 145.084 190.851 144.858 191.458 144.777C192.065 144.697 192.684 144.764 193.256 144.972C193.683 145.138 193.896 145.325 193.873 145.368Z" fill="#FAFAFA"/>
<path d="M190.77 155.012C190.808 155.012 190.686 155.379 190.32 155.855C189.822 156.47 189.177 156.964 188.437 157.296C187.702 157.637 186.891 157.806 186.073 157.786C185.733 157.802 185.394 157.735 185.09 157.591C186.187 157.626 187.277 157.409 188.267 156.959C189.256 156.508 190.115 155.838 190.77 155.005V155.012Z" fill="#FAFAFA"/>
<path d="M194.75 152.808C194.75 152.924 193.721 152.765 192.547 153.075C191.846 153.316 191.161 153.595 190.495 153.911C190.996 153.333 191.675 152.916 192.437 152.719C193.199 152.521 194.007 152.552 194.75 152.808Z" fill="#FAFAFA"/>
<path d="M164.632 139.44C164.121 139.009 163.762 138.44 163.604 137.81C163.446 137.18 163.496 136.52 163.748 135.918C163.862 135.918 163.748 136.768 164.007 137.733C164.267 138.698 164.724 139.368 164.632 139.44Z" fill="#FAFAFA"/>
<path d="M289.311 102.735C288.62 102.038 288.212 101.132 288.16 100.178C288.113 99.2318 287.936 98.2949 287.634 97.391C287.51 97.0523 287.288 96.7531 286.994 96.5267C286.845 96.4155 286.668 96.343 286.481 96.3165C286.294 96.2899 286.102 96.3103 285.926 96.3755C285.745 96.4682 285.594 96.6056 285.489 96.7731C285.385 96.9405 285.33 97.1317 285.331 97.3262C285.392 98.6719 285.53 100.014 285.743 101.345L289.311 102.735Z" fill="#FFBE9D"/>
<path d="M289.311 102.735C289.311 102.735 289.014 102.635 288.389 102.433C287.764 102.231 286.811 101.922 285.682 101.497H285.598V101.432C285.454 100.7 285.349 99.9622 285.286 99.2206C285.286 98.8244 285.217 98.4211 285.179 98.0033C285.167 97.785 285.167 97.5662 285.179 97.3479C285.184 97.0936 285.26 96.845 285.4 96.6276C285.494 96.4785 285.627 96.3542 285.786 96.2661C285.944 96.178 286.123 96.1289 286.307 96.1234C286.652 96.1218 286.986 96.2397 287.245 96.4548C287.658 96.8497 287.939 97.3506 288.053 97.8953C288.305 98.8964 288.282 99.804 288.412 100.539C288.506 101.328 288.834 102.077 289.357 102.699L289.197 102.613C289.063 102.504 288.943 102.38 288.839 102.246C288.475 101.739 288.233 101.164 288.13 100.56C287.962 99.804 287.954 98.8964 287.695 97.9601C287.595 97.4811 287.349 97.0402 286.986 96.6924C286.908 96.6033 286.809 96.533 286.697 96.4876C286.585 96.4422 286.463 96.4229 286.341 96.4313C286.219 96.4398 286.101 96.4758 285.997 96.5363C285.893 96.5967 285.806 96.68 285.743 96.7789C285.561 97.1321 285.51 97.5329 285.598 97.9169L285.697 99.1269C285.774 99.8976 285.827 100.668 285.941 101.288L285.85 101.194C286.872 101.605 287.695 101.994 288.32 102.274L289.311 102.735Z" fill="#EB996E"/>
<path d="M288.842 125.959C294.797 103.596 280.434 80.9068 256.76 75.2812C233.087 69.6557 209.068 83.2242 203.112 105.587C197.157 127.951 211.521 150.64 235.195 156.265C258.868 161.891 282.887 148.322 288.842 125.959Z" fill="#EE6842"/>
<g opacity="0.3">
<path d="M286.734 111.587C287.26 111.587 287.87 112.661 288.259 114.778C288.756 117.791 288.713 120.862 288.13 123.861C288 124.826 287.71 125.798 287.466 126.835C287.222 127.873 286.826 128.917 286.46 130.012C285.583 132.317 284.491 134.544 283.196 136.667C280.205 141.617 276.096 145.883 271.162 149.165C266.229 152.446 260.591 154.661 254.65 155.653C252.099 156.094 249.511 156.316 246.918 156.316C244.673 156.294 242.434 156.097 240.224 155.725C237.041 155.233 233.969 154.24 231.135 152.786C229.16 151.706 228.268 150.791 228.474 150.33C228.932 149.279 233.529 150.489 240.735 150.446C242.684 150.426 244.631 150.311 246.567 150.1C248.761 149.839 250.934 149.439 253.071 148.904C262.853 146.566 271.377 140.897 277.005 132.986C278.254 131.264 279.382 129.467 280.383 127.606C280.818 126.713 281.283 125.856 281.656 125.006C282.03 124.156 282.419 123.342 282.686 122.535C285.186 116.139 285.53 111.638 286.734 111.587Z" fill="black"/>
</g>
<g opacity="0.3">
<path d="M243.96 77.1949C243.96 77.3317 242.992 77.3821 241.284 77.5046C238.879 77.6744 236.494 78.0358 234.155 78.585C232.55 78.9757 230.971 79.4567 229.427 80.0255C227.664 80.6789 225.952 81.4491 224.303 82.3304C216.67 86.3536 210.872 92.892 208.017 100.697C207.378 102.382 206.868 104.108 206.492 105.861C206.175 107.396 205.959 108.947 205.844 110.507C205.679 112.777 205.72 115.057 205.966 117.321C206.141 118.934 206.256 119.842 206.111 119.87C205.966 119.899 205.615 119.057 205.204 117.443C204.651 115.152 204.395 112.806 204.441 110.457C204.465 108.829 204.608 107.204 204.868 105.595C205.184 103.743 205.653 101.918 206.271 100.135C209.094 91.8305 215.243 84.8977 223.404 80.8178C225.155 79.9365 226.975 79.1828 228.848 78.5634C230.497 78.0291 232.184 77.6031 233.895 77.2885C236.334 76.8333 238.823 76.6616 241.307 76.7771C243.045 76.8564 243.975 77.0796 243.96 77.1949Z" fill="white"/>
</g>
<g opacity="0.3">
<path d="M209.626 130.048C209.176 130.336 207.88 129.234 207.209 127.39C206.538 125.546 206.835 123.933 207.377 123.897C207.918 123.861 208.497 125.186 209.092 126.778C209.687 128.369 210.091 129.76 209.626 130.048Z" fill="white"/>
</g>
<path d="M259.225 110.586C259.102 110.984 258.903 111.358 258.637 111.688C257.994 112.64 257.225 113.511 256.35 114.281C253.471 116.891 249.691 118.431 245.706 118.619C241.721 118.806 237.798 117.629 234.658 115.304C233.716 114.616 232.866 113.823 232.126 112.942C231.829 112.637 231.594 112.283 231.432 111.897C231.547 111.804 232.607 113.266 234.993 114.879C236.388 115.801 237.916 116.529 239.53 117.04C243.506 118.354 247.867 118.147 251.684 116.464C253.238 115.798 254.681 114.922 255.969 113.863C258.203 112.063 259.095 110.507 259.225 110.586Z" fill="white"/>
<path d="M273.155 104.723C272.995 104.723 272.972 103.441 271.82 101.842C271.151 100.904 270.271 100.117 269.243 99.5373C268.016 98.7981 266.568 98.4547 265.116 98.5586C263.664 98.6625 262.287 99.2081 261.192 100.114C260.27 100.835 259.526 101.737 259.011 102.757C258.127 104.529 258.317 105.825 258.157 105.818C257.997 105.811 258.027 105.516 258.005 104.939C257.999 104.12 258.165 103.307 258.493 102.548C258.977 101.409 259.74 100.394 260.719 99.5877C261.911 98.5503 263.439 97.9233 265.055 97.8083C266.671 97.6933 268.281 98.0969 269.625 98.9539C270.722 99.6092 271.637 100.503 272.293 101.561C272.74 102.263 273.036 103.041 273.162 103.852C273.239 104.406 273.201 104.723 273.155 104.723Z" fill="white"/>
<path d="M230.845 106.077C230.693 106.077 230.67 104.802 229.519 103.196C228.846 102.26 227.964 101.476 226.934 100.899C225.709 100.154 224.261 99.8078 222.809 99.9118C221.358 100.016 219.981 100.565 218.89 101.475C217.963 102.193 217.216 103.095 216.701 104.118C215.825 105.89 216.008 107.179 215.855 107.172C215.703 107.165 215.718 106.87 215.703 106.293C215.697 105.476 215.863 104.666 216.191 103.909C216.668 102.767 217.432 101.751 218.417 100.949C219.61 99.9129 221.137 99.2861 222.752 99.1698C224.368 99.0536 225.978 99.4545 227.323 100.308C228.42 100.963 229.335 101.857 229.991 102.915C230.44 103.619 230.736 104.4 230.861 105.213C230.937 105.76 230.899 106.077 230.845 106.077Z" fill="white"/>
<path d="M290.318 99.7319C288.793 101.36 287.207 102.887 285.842 104.63C285.499 105.069 285.141 105.645 285.415 106.128C285.523 106.29 285.679 106.418 285.863 106.498C286.047 106.577 286.252 106.604 286.452 106.574C286.852 106.508 287.227 106.347 287.542 106.106C289.228 104.975 290.341 103.225 291.416 101.576C291.603 101.361 291.736 101.108 291.802 100.837C291.868 100.566 291.866 100.283 291.797 100.013C291.73 99.8915 291.636 99.7859 291.52 99.7036C291.404 99.6214 291.271 99.5648 291.129 99.5378C290.987 99.5109 290.84 99.5143 290.7 99.5479C290.56 99.5815 290.429 99.6444 290.318 99.7319Z" fill="#FFBE9D"/>
<path d="M290.318 99.732C290.318 99.732 290.501 99.4151 291.08 99.4583C291.257 99.4724 291.426 99.5306 291.57 99.6268C291.715 99.723 291.83 99.8537 291.904 100.006C291.975 100.211 291.999 100.429 291.974 100.644C291.949 100.858 291.876 101.066 291.759 101.252C291.236 102.174 290.656 103.067 290.02 103.924C289.261 105.014 288.249 105.928 287.062 106.596C286.701 106.767 286.286 106.808 285.896 106.711C285.693 106.658 285.512 106.548 285.376 106.397C285.241 106.245 285.156 106.059 285.133 105.861C285.122 105.507 285.232 105.159 285.446 104.867C285.623 104.618 285.814 104.378 286.018 104.147C286.78 103.225 287.542 102.44 288.191 101.792L289.716 100.279C289.894 100.085 290.093 99.9085 290.31 99.7536C290.181 99.9824 290.02 100.193 289.83 100.38C289.502 100.762 289.006 101.302 288.389 101.972C287.771 102.642 287.047 103.413 286.3 104.356C285.941 104.817 285.476 105.321 285.537 105.847C285.555 105.972 285.613 106.09 285.703 106.184C285.792 106.277 285.91 106.343 286.04 106.373C286.338 106.449 286.655 106.413 286.925 106.272C288.051 105.628 289.018 104.763 289.761 103.737C290.478 102.807 291.073 101.9 291.538 101.158C291.645 101.005 291.718 100.832 291.751 100.651C291.784 100.47 291.776 100.285 291.728 100.107C291.674 99.981 291.587 99.8708 291.475 99.7863C291.363 99.7018 291.23 99.6459 291.088 99.6239C290.826 99.5731 290.553 99.6114 290.318 99.732Z" fill="#EB996E"/>
<path d="M291.37 102.224C289.982 103.945 288.48 105.566 287.245 107.381C286.925 107.842 286.612 108.44 286.917 108.908C287.038 109.062 287.202 109.18 287.392 109.248C287.581 109.315 287.787 109.33 287.985 109.29C288.376 109.196 288.737 109.013 289.037 108.757C290.646 107.518 291.637 105.732 292.59 103.996C292.764 103.771 292.88 103.51 292.927 103.235C292.975 102.959 292.954 102.677 292.865 102.411C292.79 102.29 292.687 102.186 292.563 102.108C292.44 102.03 292.299 101.98 292.151 101.962C292.004 101.944 291.854 101.958 291.713 102.004C291.572 102.049 291.445 102.124 291.34 102.224" fill="#FFBE9D"/>
<path d="M291.37 102.224C291.37 102.224 291.53 101.893 292.133 101.9C292.31 101.904 292.483 101.952 292.634 102.039C292.786 102.126 292.91 102.25 292.994 102.397C293.08 102.598 293.119 102.814 293.109 103.03C293.098 103.246 293.038 103.458 292.933 103.65C292.484 104.603 291.975 105.529 291.408 106.423C290.722 107.555 289.776 108.527 288.641 109.268C288.295 109.471 287.879 109.538 287.482 109.455C287.275 109.415 287.086 109.317 286.938 109.175C286.79 109.032 286.69 108.852 286.651 108.656C286.619 108.304 286.705 107.952 286.895 107.648C287.062 107.359 287.245 107.115 287.421 106.87C288.122 105.897 288.831 105.076 289.426 104.392C290.021 103.708 290.455 103.225 290.852 102.786C291.014 102.579 291.201 102.391 291.408 102.224C291.295 102.458 291.149 102.676 290.974 102.872C290.669 103.283 290.211 103.852 289.639 104.558C289.068 105.264 288.404 106.099 287.726 107.064C287.398 107.54 286.963 108.073 287.039 108.598C287.063 108.723 287.127 108.838 287.222 108.927C287.318 109.016 287.441 109.075 287.573 109.095C287.876 109.148 288.189 109.092 288.45 108.937C289.526 108.223 290.43 107.303 291.103 106.236C291.751 105.264 292.285 104.32 292.697 103.549C292.794 103.391 292.855 103.214 292.876 103.032C292.897 102.85 292.878 102.665 292.819 102.491C292.756 102.369 292.661 102.265 292.544 102.189C292.426 102.112 292.29 102.064 292.148 102.051C291.875 102.018 291.599 102.079 291.37 102.224Z" fill="#EB996E"/>
<path d="M292.293 105.566C291.225 106.884 290.074 108.123 289.129 109.52C288.885 109.873 288.648 110.327 288.877 110.687C288.97 110.804 289.096 110.893 289.24 110.944C289.385 110.995 289.542 111.006 289.693 110.975C289.994 110.907 290.272 110.768 290.501 110.572C291.66 109.54 292.586 108.298 293.223 106.92C293.356 106.748 293.443 106.549 293.479 106.338C293.515 106.128 293.498 105.913 293.429 105.71C293.369 105.625 293.29 105.552 293.198 105.498C293.106 105.444 293.003 105.409 292.895 105.395C292.788 105.381 292.678 105.39 292.574 105.419C292.471 105.449 292.375 105.499 292.293 105.566Z" fill="#FFBE9D"/>
<path d="M292.293 105.566C292.293 105.566 292.399 105.307 292.864 105.307C293.004 105.306 293.141 105.341 293.26 105.408C293.38 105.475 293.478 105.572 293.543 105.689C293.61 105.846 293.641 106.016 293.635 106.186C293.628 106.356 293.584 106.522 293.505 106.675C293.158 107.406 292.763 108.116 292.323 108.8C291.8 109.675 291.072 110.427 290.196 110.997C289.921 111.159 289.59 111.213 289.273 111.148C289.106 111.116 288.952 111.037 288.832 110.921C288.713 110.806 288.633 110.659 288.602 110.5C288.617 109.982 288.828 109.486 289.197 109.103C289.738 108.382 290.28 107.727 290.722 107.208C291.185 106.624 291.694 106.075 292.247 105.566C291.865 106.208 291.418 106.813 290.913 107.374C290.486 107.914 289.975 108.555 289.456 109.297C289.205 109.664 288.884 110.075 288.938 110.442C288.991 110.81 289.548 110.918 289.952 110.673C290.771 110.131 291.46 109.431 291.972 108.62C292.468 107.9 292.88 107.179 293.2 106.567C293.273 106.45 293.32 106.32 293.337 106.185C293.354 106.049 293.341 105.912 293.299 105.782C293.253 105.692 293.183 105.614 293.097 105.556C293.01 105.498 292.909 105.462 292.804 105.451C292.625 105.44 292.447 105.48 292.293 105.566Z" fill="#EB996E"/>
<path d="M55.8966 264.24C49.7969 266.264 41.768 264.456 36.5223 260.833C31.2765 257.21 27.5022 252.031 24.155 246.773C22.7292 244.533 21.3339 242.192 20.884 239.571C20.4341 236.949 21.0975 234.082 23.2172 232.368C26.511 229.746 31.6043 231.079 35.3099 233.088C41.153 236.304 46.0802 240.815 49.6667 246.23C53.2532 251.646 55.3913 257.805 55.8966 264.175" fill="#EE6842"/>
<path d="M49.3164 278.105C45.6337 282.693 39.3052 284.738 33.2131 285.005C27.121 285.271 21.1051 283.68 15.417 281.612C13.3507 280.892 11.0938 279.841 10.3847 277.86C10.1617 277.095 10.1431 276.29 10.3307 275.517C10.5184 274.744 10.9064 274.027 11.4598 273.43C12.5883 272.253 13.997 271.347 15.5695 270.787C21.1661 268.532 27.5937 268.446 33.4876 269.886C39.3815 271.327 44.5358 274.561 49.3164 278.119" fill="#EE6842"/>
<path d="M55.9881 239.427C50.9024 239.52 47.09 235.314 44.8026 231.043C41.6008 225.067 40.5309 218.273 41.7527 211.675C42.2102 209.226 43.1938 206.583 45.5194 205.401C47.8449 204.22 50.9405 204.991 52.9229 206.698C54.9053 208.405 55.9728 210.839 56.7353 213.252C59.4573 221.586 58.8702 231.158 55.9728 239.427" fill="#EE6842"/>
<path d="M72.6633 265.947C64.0093 252.031 62.5682 234.975 67.6767 219.605C68.5078 217.113 70.0709 214.254 72.8387 214.088C75.8885 213.901 77.8176 217.127 78.6639 219.915C81.6299 229.696 81.0047 240.082 80.349 250.231C79.9449 256.49 77.6651 261.834 72.6633 265.947Z" fill="#EE6842"/>
<path d="M81.6604 271.666C83.2728 266.899 85.9972 262.534 89.6328 258.894C93.2683 255.254 97.7223 252.431 102.666 250.634C104.954 249.813 107.882 249.345 109.597 251.008C111.313 252.672 110.764 255.33 109.681 257.397C107.943 260.682 105.106 263.325 102.293 265.853C99.7309 268.158 97.0699 270.477 93.8218 271.817C90.5737 273.157 84.6264 273.495 81.6604 271.666Z" fill="#EE6842"/>
<path d="M28.0283 235.919C28.0283 235.919 28.0741 235.969 28.1808 236.049L28.6459 236.387L30.4606 237.669L31.772 238.591C32.2448 238.937 32.7404 239.311 33.297 239.751C34.3721 240.593 35.6378 241.508 36.9111 242.632L38.9545 244.382C39.656 244.994 40.3346 245.686 41.0742 246.37C42.5991 247.724 44.0021 249.301 45.5575 250.929C48.8215 254.562 51.8029 258.414 54.4784 262.453C57.0872 266.519 59.3806 270.758 61.3406 275.137C62.1946 277.176 63.0409 279.099 63.628 280.964C63.9483 281.893 64.299 282.779 64.5659 283.644C64.8327 284.508 65.0691 285.358 65.3283 286.157C65.8392 287.742 66.1366 289.218 66.4568 290.479C66.6093 291.127 66.7694 291.718 66.8838 292.272C66.9981 292.827 67.0744 293.338 67.1659 293.799C67.3336 294.685 67.4709 295.391 67.5624 295.902L67.6767 296.45C67.6767 296.572 67.7225 296.637 67.7301 296.63C67.7418 296.568 67.7418 296.504 67.7301 296.443C67.7301 296.298 67.6844 296.111 67.6539 295.888C67.5776 295.377 67.4632 294.671 67.326 293.77C67.2498 293.309 67.1735 292.798 67.082 292.243C66.9905 291.689 66.8304 291.084 66.6855 290.436C66.3882 289.146 66.1137 287.663 65.6104 286.064C65.3817 285.257 65.1377 284.414 64.848 283.543C64.5582 282.671 64.2456 281.778 63.933 280.842C63.3307 278.969 62.4919 277.031 61.6456 274.979C59.6943 270.575 57.4006 266.314 54.7834 262.23C52.094 258.183 49.0892 254.331 45.7939 250.706C44.2689 249.078 42.744 247.501 41.2648 246.154C40.5023 245.47 39.8314 244.778 39.1223 244.173L37.056 242.43C35.7674 241.299 34.4864 240.399 33.3961 239.549C32.8471 239.146 32.3439 238.75 31.8712 238.411L30.5292 237.525L28.6688 236.301L28.1808 236.034L28.0283 235.919Z" fill="#263238"/>
<path d="M16.5455 274.489C16.7468 274.479 16.9463 274.447 17.1403 274.395C17.5291 274.331 18.0857 274.194 18.8253 274.079C20.8953 273.707 22.9891 273.467 25.0928 273.358C32.0475 272.96 39.0066 274.068 45.4392 276.597C51.8717 279.126 57.6078 283.009 62.2098 287.951C63.6136 289.435 64.9078 291.009 66.0832 292.661C66.5178 293.237 66.8457 293.713 67.0287 294.015C67.1316 294.18 67.2489 294.337 67.3794 294.484C67.3057 294.307 67.2137 294.138 67.1049 293.979C66.899 293.655 66.6322 293.165 66.2204 292.582C65.0783 290.891 63.804 289.282 62.4081 287.771C57.8257 282.738 52.0601 278.789 45.5726 276.239C39.0851 273.689 32.0558 272.609 25.0471 273.085C22.9359 273.22 20.8384 273.504 18.7719 273.934C18.0095 274.079 17.4757 274.237 17.0945 274.331C16.9082 274.373 16.7249 274.426 16.5455 274.489Z" fill="#263238"/>
<path d="M48.5083 210.955C48.4961 211.026 48.4961 211.099 48.5083 211.171L48.6456 211.797L49.2174 214.196C49.713 216.27 50.4755 219.274 51.4286 222.976C53.3348 230.38 56.1102 240.579 58.9923 251.887C60.4257 257.541 61.7295 262.943 62.8504 267.87C63.9712 272.796 64.8785 277.233 65.58 281C65.9536 282.873 66.2357 284.601 66.5026 286.042C66.7695 287.483 66.983 288.822 67.1431 289.874C67.3032 290.925 67.4481 291.718 67.5396 292.301C67.5955 292.56 67.6336 292.769 67.6539 292.928C67.6637 293.001 67.6816 293.074 67.7073 293.144C67.7188 293.072 67.7188 292.999 67.7073 292.928C67.7073 292.762 67.6616 292.553 67.6311 292.294C67.5548 291.71 67.4481 290.889 67.3108 289.852C67.1736 288.815 66.983 287.504 66.7314 286.006C66.4797 284.508 66.2281 282.808 65.8698 280.928C65.2064 277.168 64.2991 272.71 63.224 267.769C62.1489 262.828 60.8375 257.433 59.4116 251.772C56.5295 240.464 53.7084 230.279 51.7336 222.889C50.75 219.216 49.957 216.234 49.3928 214.138L48.7523 211.761C48.6761 211.502 48.6227 211.3 48.5769 211.142C48.5596 211.078 48.5367 211.015 48.5083 210.955Z" fill="#263238"/>
<path d="M68.3783 292.049C68.408 291.995 68.4261 291.936 68.4317 291.876C68.4698 291.739 68.508 291.574 68.5537 291.379C68.6604 290.904 68.8053 290.255 68.9807 289.442C69.3467 287.756 69.8346 285.314 70.3912 282.282C71.4968 276.232 72.8159 267.827 73.6241 258.514C74.013 253.832 74.2341 249.366 74.3332 245.304C74.4323 241.242 74.3332 237.576 74.2265 234.5C74.2265 232.966 74.0816 231.576 74.013 230.359C73.9444 229.141 73.8529 228.09 73.769 227.24C73.6851 226.39 73.6241 225.749 73.5784 225.266C73.5784 225.057 73.5326 224.892 73.5174 224.755C73.5254 224.698 73.5254 224.639 73.5174 224.582C73.5174 224.582 73.5174 224.64 73.5174 224.755C73.5174 224.87 73.5174 225.065 73.5174 225.273C73.5174 225.756 73.586 226.419 73.6394 227.247C73.6927 228.075 73.7614 229.148 73.8071 230.373C73.8529 231.597 73.9444 232.973 73.9672 234.507C74.0587 237.576 74.0664 241.234 73.9672 245.311C73.8681 249.388 73.6241 253.825 73.2048 258.492C72.3965 267.855 71.1232 276.232 70.0863 282.261C69.5754 285.293 69.1332 287.742 68.8129 289.463C68.6604 290.284 68.5461 290.904 68.4622 291.408C68.4622 291.617 68.4012 291.782 68.3783 291.919C68.3739 291.962 68.3739 292.006 68.3783 292.049Z" fill="#263238"/>
<path d="M67.7378 293.814C67.8291 293.66 67.9056 293.498 67.9665 293.331L68.5384 291.934L68.9425 290.918L69.4991 289.744C69.6973 289.319 69.9108 288.873 70.1319 288.39C70.3531 287.908 70.6428 287.432 70.8944 286.914L71.7789 285.293L72.8311 283.579C73.5249 282.383 74.4246 281.187 75.2939 279.891C77.3145 277.161 79.4987 274.542 81.8359 272.047C84.1996 269.571 86.6962 267.21 89.3157 264.974C90.5585 263.988 91.7022 262.994 92.8535 262.165L94.4852 260.926L96.0102 259.846C96.9937 259.126 97.9163 258.557 98.7322 258.038C99.548 257.52 100.257 257.073 100.829 256.742L102.171 255.935C102.334 255.849 102.487 255.748 102.628 255.633C102.456 255.698 102.29 255.777 102.133 255.87L100.745 256.591C100.143 256.907 99.426 257.311 98.6026 257.837C97.7791 258.362 96.8413 258.91 95.8424 259.601L94.2717 260.667L92.6095 261.892C91.443 262.713 90.3221 263.7 89.0336 264.686C86.3887 266.918 83.874 269.284 81.5004 271.774C79.1585 274.289 76.979 276.934 74.9736 279.697C74.112 281.007 73.2199 282.21 72.5337 283.427L71.4968 285.156L70.6352 286.798C70.3683 287.324 70.0862 287.814 69.8727 288.296L69.2627 289.665C69.0797 290.097 68.9044 290.493 68.7366 290.861L68.363 291.891C68.1572 292.481 67.9894 292.949 67.8674 293.331C67.81 293.488 67.7666 293.65 67.7378 293.814Z" fill="#263238"/>
<path d="M31.2156 252.06C31.2156 252.118 32.2678 252.125 33.9452 252.211C38.339 252.427 42.6815 253.205 46.8538 254.523C47.7051 254.835 48.5729 255.104 49.4538 255.33C49.2528 255.195 49.0352 255.084 48.8057 254.999C48.3711 254.804 47.7383 254.552 46.9453 254.278C42.7969 252.809 38.4132 252.019 33.9833 251.945C33.1294 251.945 32.4584 251.945 31.9704 251.981C31.716 251.969 31.4612 251.996 31.2156 252.06Z" fill="#263238"/>
<path d="M24.6887 282.181C25.6389 280.362 26.8359 278.667 28.2495 277.14C29.7702 275.677 31.4908 274.413 33.3656 273.38C32.7413 273.529 32.1465 273.772 31.6043 274.1C28.8904 275.578 26.7115 277.794 25.3521 280.46C25.0326 280.996 24.8085 281.577 24.6887 282.181Z" fill="#263238"/>
<path d="M46.9528 222.256C46.869 222.335 48.4778 223.826 50.201 225.857C51.9242 227.888 53.1746 229.645 53.2508 229.588C52.5361 228.145 51.6067 226.806 50.4907 225.612C49.4877 224.339 48.2962 223.209 46.9528 222.256Z" fill="#263238"/>
<path d="M52.1758 213.706C51.7966 214.752 51.5409 215.834 51.4133 216.933C51.1512 218.013 51.0207 219.117 51.0245 220.225C51.6811 218.103 52.0676 215.914 52.1758 213.706Z" fill="#263238"/>
<path d="M68.3705 240.493C69.088 242.227 69.9339 243.912 70.9019 245.535C71.7525 247.214 72.7204 248.838 73.7993 250.396C73.0768 248.664 72.2311 246.979 71.2679 245.354C70.4208 243.673 69.4528 242.049 68.3705 240.493Z" fill="#263238"/>
<path d="M78.0083 231.403C77.1717 232.551 76.4518 233.771 75.8582 235.047C75.1425 236.266 74.5453 237.544 74.074 238.865C74.9106 237.717 75.6305 236.496 76.2241 235.22C76.9398 234.001 77.537 232.724 78.0083 231.403Z" fill="#263238"/>
<path d="M92.1672 262.484C92.1672 262.599 93.9133 262.282 96.0558 262.145C98.1984 262.007 99.9444 262.08 99.9597 261.964C98.6718 261.674 97.3395 261.603 96.0253 261.755C94.7042 261.783 93.3985 262.03 92.1672 262.484Z" fill="#263238"/>
<path d="M82.4991 289.96L77.6803 313.902C77.5242 314.668 77.0901 315.36 76.4527 315.857C75.8154 316.353 75.0146 316.625 74.1881 316.624H59.9528C59.1122 316.626 58.2984 316.345 57.6571 315.832C57.0158 315.318 56.589 314.606 56.4531 313.822L52.2595 289.96H82.4991Z" fill="#263238"/>
<path d="M80.9284 297.739H53.7082L52.2595 289.96H82.4991L80.9284 297.739Z" fill="#455A64"/>
<path d="M80.9284 297.739L80.3566 300.578H54.1276L53.7083 297.739H80.9284Z" fill="#FAFAFA"/>
<path d="M121.721 57.7334C138.594 57.7334 152.273 44.8119 152.273 28.8725C152.273 12.9331 138.594 0.0115967 121.721 0.0115967C104.847 0.0115967 91.1687 12.9331 91.1687 28.8725C91.1687 44.8119 104.847 57.7334 121.721 57.7334Z" fill="#EE6842"/>
<g opacity="0.3">
<path d="M149.902 25.9843C150.161 25.9843 150.481 26.7045 150.664 28.1811C150.889 30.2373 150.781 32.3138 150.344 34.3393C150.058 35.7506 149.652 37.138 149.132 38.488C148.507 40.0406 147.741 41.5394 146.844 42.968C144.793 46.2908 142.009 49.1573 138.68 51.3721C135.351 53.587 131.556 55.0983 127.554 55.8031C125.829 56.1119 124.079 56.2806 122.323 56.3073C120.792 56.3169 119.262 56.211 117.748 55.9904C115.583 55.6945 113.477 55.0897 111.504 54.1969C110.131 53.5343 109.475 52.9941 109.575 52.7564C109.803 52.209 112.929 53.2246 118.008 53.3398C119.379 53.3649 120.752 53.3144 122.117 53.1885C123.659 53.0316 125.188 52.7741 126.692 52.4179C133.67 50.8327 139.744 46.7904 143.672 41.117C144.544 39.8904 145.324 38.6076 146.005 37.278C146.581 36.1041 147.09 34.9019 147.53 33.6767C149.261 29.1246 149.261 25.9987 149.902 25.9843Z" fill="black"/>
</g>
<g opacity="0.3">
<path d="M120.333 2.20843C120.333 2.52534 117.649 2.37409 113.6 3.36805C111.248 3.9495 108.989 4.82644 106.883 5.9754C101.687 8.74378 97.7315 13.1996 95.7509 18.5152C94.9306 20.6767 94.4178 22.9317 94.226 25.2208C93.8981 29.1534 94.5234 31.6167 94.226 31.7031C94.104 31.7031 93.8066 31.1558 93.4635 30.0393C93.0358 28.4531 92.8257 26.8216 92.8383 25.1848C92.8423 22.7389 93.2514 20.3086 94.0506 17.9822C95.9981 12.1643 100.305 7.3114 106.029 4.48446C108.316 3.33064 110.781 2.5237 113.333 2.09319C115.037 1.79524 116.775 1.70567 118.503 1.82669C119.692 1.94913 120.348 2.08598 120.333 2.20843Z" fill="white"/>
</g>
<g opacity="0.3">
<path d="M96.5974 38.7401C96.1475 39.0282 95.1182 38.3152 94.6455 37.0043C94.1727 35.6934 94.5082 34.5266 95.042 34.4906C95.5757 34.4546 96.1247 35.3261 96.5212 36.3921C96.9176 37.4581 97.0625 38.4592 96.5974 38.7401Z" fill="white"/>
</g>
<path d="M130.886 25.2928C130.954 25.2928 130.482 26.5029 128.972 27.9074C126.988 29.7608 124.352 30.8588 121.565 30.9917C118.779 31.1245 116.038 30.2829 113.867 28.6277C112.228 27.3744 111.626 26.2436 111.694 26.2148C111.763 26.186 112.556 27.1223 114.203 28.2027C116.327 29.6505 118.91 30.3723 121.526 30.2492C124.143 30.1262 126.637 29.1657 128.598 27.5257C130.123 26.2796 130.771 25.2208 130.886 25.2928Z" fill="white"/>
<path d="M109.231 19.4515C108.972 18.9821 108.568 18.5983 108.072 18.3513C107.576 18.1042 107.013 18.0056 106.456 18.0686C106.117 18.0844 105.79 18.1891 105.511 18.3711C105.081 18.6838 104.751 19.1014 104.555 19.5787C104.358 20.056 104.304 20.5749 104.397 21.0793C104.483 21.416 104.641 21.7325 104.861 22.0091C105.082 22.2858 105.36 22.5167 105.679 22.6875C105.998 22.8584 106.35 22.9655 106.715 23.0024C107.079 23.0392 107.448 23.0049 107.798 22.9016C108.134 22.7662 108.438 22.569 108.692 22.3215C108.946 22.074 109.146 21.7812 109.28 21.4601C109.413 21.1391 109.477 20.7961 109.469 20.4513C109.461 20.1064 109.38 19.7666 109.231 19.4515Z" fill="white"/>
<path d="M138.305 19.5379C138.045 19.0711 137.641 18.6896 137.147 18.444C136.653 18.1984 136.091 18.1002 135.537 18.1622C135.198 18.1768 134.87 18.2817 134.591 18.4647C134.163 18.7787 133.833 19.1961 133.636 19.6729C133.438 20.1497 133.381 20.668 133.47 21.1729C133.556 21.5104 133.714 21.8277 133.935 22.1049C134.156 22.3822 134.435 22.6135 134.755 22.7844C135.075 22.9554 135.428 23.0623 135.794 23.0986C136.159 23.1348 136.528 23.0996 136.879 22.9952C137.215 22.8591 137.519 22.6612 137.773 22.4129C138.027 22.1646 138.227 21.8709 138.359 21.5491C138.492 21.2272 138.556 20.8836 138.546 20.5383C138.537 20.193 138.455 19.8529 138.305 19.5379Z" fill="white"/>
<path d="M121.029 165.718C124.348 152.223 115.457 138.741 101.171 135.605C86.8847 132.469 72.6125 140.868 69.2932 154.363C65.9739 167.859 74.8645 181.341 89.1509 184.477C103.437 187.612 117.709 179.214 121.029 165.718Z" fill="#EE6842"/>
<g opacity="0.3">
<path d="M119.654 157.526C120.051 157.526 120.501 158.167 120.821 159.456C121.203 161.285 121.234 163.163 120.913 165.002C120.472 167.778 119.484 170.45 118 172.882C116.188 175.931 113.677 178.559 110.65 180.573C107.624 182.587 104.159 183.936 100.509 184.521C97.5899 185.021 94.5976 184.999 91.6871 184.456C89.7458 184.122 87.8837 183.461 86.1897 182.504C85.0155 181.784 84.5047 181.165 84.6648 180.819C85.0003 180.048 87.8062 180.632 92.0684 180.495C94.5232 180.426 96.9603 180.077 99.3271 179.458C105.039 178.022 110.016 174.7 113.357 170.094C114.769 168.201 115.934 166.152 116.826 163.994C118.404 160.277 118.762 157.583 119.654 157.526Z" fill="black"/>
</g>
<g opacity="0.3">
<path d="M93.9592 136.883C93.9592 137.186 91.626 137.092 88.1263 137.978C86.0968 138.491 84.1483 139.257 82.3315 140.254C77.8605 142.653 74.4469 146.486 72.7092 151.058C71.9926 152.914 71.5364 154.852 71.352 156.82C71.0394 160.227 71.5502 162.373 71.23 162.438C71.0241 162.51 69.9948 160.421 69.949 156.769C69.937 154.633 70.2844 152.508 70.9784 150.474C71.8146 147.953 73.1699 145.613 74.9665 143.589C76.763 141.564 78.9654 139.895 81.4471 138.677C83.4458 137.676 85.5998 136.98 87.8289 136.617C91.6413 136.084 93.9973 136.681 93.9592 136.883Z" fill="white"/>
</g>
<g opacity="0.3">
<path d="M73.3345 168.632C72.8846 168.92 71.9315 168.315 71.5122 167.192C71.0928 166.068 71.4435 165.031 71.9849 164.966C72.5262 164.901 73.0523 165.686 73.3878 166.579C73.7233 167.472 73.7767 168.33 73.3345 168.632Z" fill="white"/>
</g>
<path d="M103.132 156.942C103.208 156.942 102.804 158.008 101.492 159.24C99.7674 160.863 97.4665 161.825 95.0345 161.94C92.6024 162.054 90.2118 161.313 88.3246 159.859C86.8911 158.757 86.3803 157.763 86.4489 157.698C86.5175 157.634 87.2114 158.476 88.6601 159.406C90.5042 160.645 92.7363 161.261 94.9965 161.155C97.2568 161.049 99.4134 160.227 101.119 158.822C102.446 157.785 103.017 156.87 103.132 156.942Z" fill="white"/>
<path d="M84.3141 151.864C84.088 151.456 83.7355 151.123 83.3035 150.909C82.8716 150.696 82.3809 150.612 81.8971 150.669C81.6044 150.679 81.3212 150.769 81.0812 150.928C80.7084 151.2 80.4213 151.564 80.2507 151.979C80.0801 152.394 80.0324 152.845 80.1129 153.283C80.1819 153.579 80.316 153.858 80.5065 154.102C80.6969 154.345 80.9395 154.549 81.2185 154.698C81.4975 154.847 81.8066 154.94 82.1258 154.969C82.445 154.998 82.7671 154.964 83.0713 154.868C83.3634 154.75 83.6277 154.578 83.8487 154.362C84.0698 154.147 84.2432 153.892 84.3589 153.612C84.4746 153.333 84.5302 153.034 84.5225 152.734C84.5148 152.434 84.444 152.138 84.3141 151.864Z" fill="white"/>
<path d="M112.175 154.284C112.08 153.638 111.93 152.999 111.725 152.376C111.452 151.747 111.01 151.196 110.444 150.777C109.745 150.29 108.896 150.035 108.028 150.049C107.16 150.063 106.321 150.347 105.64 150.856C105.089 151.292 104.666 151.855 104.413 152.491C104.23 153.121 104.102 153.764 104.031 154.414C103.955 154.457 103.528 153.658 103.871 152.333C104.089 151.562 104.536 150.867 105.16 150.33C105.954 149.682 106.964 149.318 108.013 149.301C109.062 149.284 110.084 149.615 110.901 150.237C111.543 150.754 112.014 151.433 112.258 152.196C112.663 153.507 112.251 154.32 112.175 154.284Z" fill="white"/>
<path d="M268.26 220.527C282.354 220.527 293.78 209.734 293.78 196.42C293.78 183.106 282.354 172.313 268.26 172.313C254.165 172.313 242.74 183.106 242.74 196.42C242.74 209.734 254.165 220.527 268.26 220.527Z" fill="#EE6842"/>
<g opacity="0.3">
<path d="M291.797 194.007C292.194 194.007 292.636 194.619 292.964 195.858C293.347 197.618 293.388 199.429 293.086 201.202C292.679 203.877 291.74 206.456 290.318 208.801C288.578 211.749 286.158 214.289 283.237 216.233C280.316 218.177 276.969 219.474 273.445 220.03C270.628 220.505 267.741 220.476 264.935 219.943C263.063 219.619 261.269 218.972 259.644 218.035C258.515 217.315 258.035 216.724 258.188 216.378C258.531 215.607 261.237 216.133 265.317 215.982C267.664 215.907 269.994 215.566 272.255 214.966C277.706 213.588 282.462 210.425 285.675 206.042C287.034 204.232 288.158 202.273 289.022 200.208C290.539 196.629 290.92 194.05 291.797 194.007Z" fill="black"/>
</g>
<g opacity="0.3">
<path d="M267.101 174.142C267.101 174.452 264.859 174.365 261.504 175.222C259.555 175.721 257.684 176.46 255.938 177.419C251.646 179.733 248.373 183.423 246.712 187.82C246.018 189.608 245.577 191.475 245.401 193.373C245.096 196.643 245.576 198.703 245.256 198.775C245.05 198.84 244.051 196.838 243.998 193.323C243.98 191.264 244.312 189.217 244.982 187.258C245.785 184.832 247.088 182.58 248.817 180.632C250.546 178.683 252.665 177.078 255.054 175.907C256.979 174.939 259.057 174.271 261.207 173.926C264.874 173.371 267.139 173.94 267.101 174.142Z" fill="white"/>
</g>
<g opacity="0.3">
<path d="M247.277 204.667C246.827 204.948 245.896 204.371 245.492 203.262C245.088 202.153 245.439 201.152 245.98 201.101C246.522 201.051 247.04 201.771 247.368 202.643C247.696 203.514 247.742 204.379 247.277 204.667Z" fill="white"/>
</g>
<path d="M269.426 202.261C272.077 202.112 274.579 201.054 276.464 199.287C277.486 198.235 278.423 196.636 278.309 195.217C278.267 194.502 277.972 193.821 277.472 193.283C276.972 192.745 276.294 192.381 275.549 192.25C274.467 192.233 273.41 192.557 272.545 193.171C271.692 193.789 270.733 194.262 269.708 194.569C268.183 194.886 266.659 194.324 265.263 193.762C263.868 193.2 262.335 192.61 260.826 192.862C260.309 192.896 259.812 193.06 259.385 193.336C258.957 193.612 258.615 193.99 258.393 194.432C258.393 194.432 257.631 196.002 259.156 198.105C260.345 199.574 261.915 200.728 263.714 201.456C265.513 202.184 267.481 202.462 269.426 202.261Z" fill="white"/>
<path d="M257.829 188.547C257.616 188.159 257.283 187.841 256.875 187.635C256.467 187.43 256.002 187.346 255.542 187.395C255.268 187.413 255.005 187.5 254.779 187.647C254.421 187.91 254.144 188.26 253.979 188.659C253.814 189.059 253.767 189.493 253.841 189.916C253.92 190.194 254.056 190.454 254.242 190.681C254.428 190.909 254.661 191.099 254.925 191.24C255.19 191.382 255.482 191.472 255.785 191.505C256.087 191.539 256.393 191.515 256.685 191.436C256.963 191.319 257.214 191.151 257.422 190.942C257.63 190.733 257.792 190.487 257.899 190.218C258.005 189.949 258.054 189.663 258.042 189.376C258.03 189.089 257.958 188.807 257.829 188.547Z" fill="white"/>
<path d="M282.114 188.619C281.9 188.233 281.566 187.916 281.158 187.712C280.75 187.507 280.286 187.424 279.826 187.474C279.554 187.49 279.29 187.574 279.064 187.719C278.706 187.98 278.429 188.329 278.264 188.727C278.099 189.126 278.051 189.559 278.126 189.981C278.198 190.262 278.33 190.527 278.514 190.758C278.699 190.989 278.932 191.182 279.198 191.325C279.465 191.467 279.76 191.556 280.065 191.587C280.37 191.617 280.678 191.587 280.97 191.5C281.247 191.384 281.496 191.216 281.704 191.008C281.912 190.799 282.073 190.554 282.18 190.286C282.286 190.018 282.335 189.732 282.324 189.446C282.313 189.16 282.241 188.879 282.114 188.619Z" fill="white"/>
</svg>
